<svg width="80" height="80" viewBox="0 0 80 80" fill="none" xmlns="http://www.w3.org/2000/svg">
<rect width="80" height="80" fill="#153439"/>
<g transform="translate(15, 26.5508)">
  <style>
    #q-mark {
      transform-origin: 38.18px 13.5px;
      animation: rollOut 1.5s cubic-bezier(0.25, 1, 0.5, 1) forwards;
    }
    @keyframes rollOut {
      0% {
        transform: translate(-25.5px, 0) rotate(-180deg);
      }
      100% {
        transform: translate(0, 0) rotate(0deg);
      }
    }
  </style>
  <path id="q-mark" fill-rule="evenodd" clip-rule="evenodd" d="M51.0058 23.0014L47.361 27L44.4971 24.4688C42.0672 26.0095 39.3646 26.7799 36.3891 26.7799C32.3971 26.7799 29.0374 25.4959 26.3099 22.928C25.9744 22.6121 25.6596 22.2874 25.3654 21.9537V4.9038C25.6704 4.55613 25.9977 4.21773 26.3471 3.88859C29.0994 1.29618 32.4715 0 36.4635 0C40.4556 0 43.8153 1.28395 46.5427 3.8519C49.2702 6.41985 50.6339 9.57471 50.6339 13.3166V13.3899C50.6339 16.0802 49.8653 18.538 48.328 20.7636L51.0058 23.0014ZM36.4673 19.4429C37.0624 19.4429 37.6575 19.3451 38.2526 19.1495L35.3143 16.6549L38.9592 12.6196L41.7487 15.1141C41.8726 14.5516 41.9346 14.038 41.9346 13.5734V13.5C41.9346 11.9103 41.4201 10.5285 40.3911 9.35462C39.3621 8.1807 38.0294 7.59375 36.3929 7.59375C34.806 7.59375 33.5105 8.1807 32.5063 9.35462C31.5021 10.5285 31 11.8981 31 13.4633V13.5367C31 15.1264 31.5021 16.5081 32.5063 17.6821C33.5105 18.856 34.8308 19.4429 36.4673 19.4429Z" fill="#84D7DC"/>
  <path id="h-mark" fill-rule="evenodd" clip-rule="evenodd" d="M16.6623 0.550781H25.8654V26.2301H16.6623V17.0222H8.70307V26.2301H0V0.550781H8.70307V9.61192H16.6623V0.550781Z" fill="#84D7DC"/>
</g>
</svg>
