<svg width="774" height="95" viewBox="0 0 774 95" fill="none" xmlns="http://www.w3.org/2000/svg">
<g clip-path="url(#clip0_49_545)">
<path d="M209.808 12.0195V8.44531H187.619V12.0303L189.329 12.2756C192.467 12.7772 194.109 13.5133 194.81 14.7348C195.466 15.8741 195.344 17.5715 194.438 19.9214L178.429 61.1772L162.426 19.7246C161.582 17.4609 161.501 15.8875 162.164 14.7712C162.925 13.4985 164.702 12.7286 167.929 12.277L169.75 12.0329V8.44531H137.521V12.0141L138.813 12.2729C142.321 12.974 144.133 14.9438 146.266 20.3771L169.793 80.2102L169.879 80.4286H176.537L200.149 20.8868C202.366 15.3941 204.682 12.9794 208.409 12.2743L209.808 12.0195Z" fill="#010101"/>
<path d="M219.917 23.7388C224.302 23.7388 227.869 20.2631 227.869 15.9905C227.869 11.8461 224.229 8.34473 219.917 8.34473C215.552 8.34473 211.866 11.8461 211.866 15.9905C211.866 20.1903 215.552 23.7388 219.917 23.7388Z" fill="#010101"/>
<path d="M227.462 71.1581V28.8291L226.227 28.8385L206.694 33.3618V36.3563L206.974 36.4102C211.585 37.2744 212.777 38.4973 212.777 42.3572V71.1581C212.777 75.1893 211.458 76.0333 208.306 76.4971L206.694 76.7438V80.1238H233.548V76.7438L231.935 76.4971C228.843 76.0279 227.462 75.1462 227.462 71.1581Z" fill="#010101"/>
<path d="M262.141 48.7317L258.692 47.3133C252.097 44.5737 249.98 42.6053 249.98 39.2145C249.98 35.4759 252.965 32.8657 257.241 32.8657C264.525 32.8657 268.03 39.6244 269.688 45.2937L269.761 45.5418H273.501L273.817 31.4851L273.604 31.3921C270.435 30.0061 264.659 28.5244 257.951 28.5244C246.712 28.5244 238.237 35.3869 238.237 44.4874C238.237 52.3935 243.085 55.938 252.035 59.713L255.386 61.1327C261.928 63.8521 265.01 65.5967 265.01 69.8409C265.01 74.3197 261.955 77.1011 257.039 77.1011C247.478 77.1011 243.589 66.3584 242.362 61.7394L242.292 61.4832H238.55L238.129 77.666L238.337 77.7604C241.378 79.1356 247.812 81.4424 256.734 81.4424C268.451 81.4424 276.955 74.3871 276.955 64.6718C277.063 56.4287 272.05 52.837 262.141 48.7317Z" fill="#010101"/>
<path d="M301.299 71.1581V28.8291L300.064 28.8385L280.531 33.3618V36.3563L280.811 36.4102C285.422 37.2744 286.614 38.4973 286.614 42.3572V71.1581C286.614 75.1893 285.295 76.0333 282.143 76.4971L280.531 76.7438V80.1238H307.385V76.7438L305.772 76.4971C302.679 76.0279 301.299 75.1462 301.299 71.1581Z" fill="#010101"/>
<path d="M293.754 23.7388C298.139 23.7388 301.706 20.2631 301.706 15.9905C301.706 11.8461 298.066 8.34473 293.754 8.34473C289.389 8.34473 285.703 11.8461 285.703 15.9905C285.703 20.1903 289.389 23.7388 293.754 23.7388Z" fill="#010101"/>
<path d="M337.669 73.4505C332.988 73.4505 330.712 71.0089 330.712 65.9867V35.9091H341.889L343.493 29.9445H330.712V17.4707H324.758L324.672 17.6891C322.577 23.0065 318.295 29.838 309.79 32.188L309.537 32.2581V35.9091H316.027V68.1169C316.027 76.4557 320.959 81.2392 329.555 81.2392C334.891 81.2392 340.249 79.1953 343.889 75.7708L343.997 75.6697V72.1859L343.534 72.3571C341.56 73.0825 339.586 73.4505 337.669 73.4505Z" fill="#010101"/>
<path d="M399.758 36.8622L394.893 35.0381C385.159 31.2469 380.815 28.4762 380.815 22.0762C380.815 16.0469 385.874 11.6706 392.841 11.6706C401.675 11.6706 407.143 17.3871 410.05 29.66L410.115 29.9256H414.07L414.488 10.9978L414.273 10.9061C410.001 9.09006 402.956 6.9248 393.653 6.9248C379.176 6.9248 368.26 16.1413 368.26 28.363C368.26 36.1301 371.437 42.5882 386.936 48.8655L391.601 50.691C400.78 54.3407 406.795 57.2865 406.795 64.6681C406.795 71.9836 401.473 76.8992 393.553 76.8992C379.974 76.8992 374.659 64.5859 372.596 54.2571L372.54 53.9793H368.576L367.956 75.2059L367.95 75.4054L368.12 75.5092C372.936 78.4645 382.694 81.645 392.741 81.645C408.16 81.645 419.353 71.8609 419.353 58.3813C419.353 48.4085 413.86 42.3765 399.758 36.8622Z" fill="#010101"/>
<path d="M470.731 74.0582C468.024 74.0582 466.918 72.7477 466.918 69.5362V43.8794C466.918 34.1209 459.659 28.5244 446.999 28.5244C434.898 28.5244 427.725 34.9137 426.18 40.8513L426.148 40.9807L426.21 41.0993C427.132 42.844 430.028 45.4406 434.221 45.4406C437.351 45.4406 439.422 44.6047 440.738 40.3255C442.44 34.4809 443.189 32.4599 446.39 32.4599C450.459 32.4599 452.435 35.8628 452.435 42.8642V50.1123L438.379 54.2999C430.09 56.8723 424.953 59.9611 424.953 67.406C424.953 75.2338 431.16 81.1377 439.393 81.1377C444.605 81.1377 449.572 78.7702 452.821 74.77C453.676 77.7779 455.973 81.0366 461.908 81.0366C466.317 81.0366 470.655 79.2138 473.516 76.1614L473.611 76.0616V73.3382L473.112 73.5876C472.513 73.8869 471.645 74.0582 470.731 74.0582ZM452.435 54.3969V71.2242C450.979 72.7261 448.946 73.5512 446.695 73.5512C441.663 73.5512 439.029 68.8783 439.029 64.2633C439.029 60.1444 440.474 58.3513 444.977 56.8831L452.435 54.3969Z" fill="#010101"/>
<path d="M496.029 71.1584V4.69336L494.794 4.7028L475.258 9.22611V12.2205L475.539 12.2731C480.042 13.136 481.344 14.4694 481.344 18.2215V71.1584C481.344 75.1896 480.026 76.0336 476.871 76.4973L475.258 76.7441V80.1241H502.112V76.7414L500.4 76.4973C497.377 76.0389 496.029 75.1599 496.029 71.1584Z" fill="#010101"/>
<path d="M532.094 73.4505C527.413 73.4505 525.137 71.0089 525.137 65.9867V35.9091H536.314L537.918 29.9445H525.137V17.4707H519.183L519.097 17.6891C517.002 23.0065 512.72 29.838 504.215 32.188L503.962 32.2581V35.9091H510.452V68.1169C510.452 76.4557 515.384 81.2392 523.98 81.2392C529.317 81.2392 534.675 79.1953 538.315 75.7708L538.423 75.6697V72.1859L537.959 72.3571C535.985 73.0825 534.011 73.4505 532.094 73.4505Z" fill="#010101"/>
<path d="M613.705 56.8643C610.079 69.2707 606.109 75.1746 593.35 75.1746H590.51C585.525 75.1746 583.756 73.9113 583.756 70.3479V17.6133C583.756 13.8908 586.01 12.8109 589.64 12.277L591.565 12.0356V8.44531H560.351V12.0356L562.268 12.2756C566 12.8095 568.16 13.8531 568.16 17.6133V70.956C568.16 74.6501 566.089 75.6464 562.252 76.1938L560.351 76.5525V80.1239H615.776L617.658 56.6162H613.778L613.705 56.8643Z" fill="#010101"/>
<path d="M668.098 74.0582C665.391 74.0582 664.285 72.7477 664.285 69.5362V43.8794C664.285 34.1209 657.026 28.5244 644.367 28.5244C632.265 28.5244 625.092 34.9137 623.547 40.8513L623.515 40.9807L623.577 41.0993C624.499 42.844 627.392 45.4406 631.588 45.4406C634.719 45.4406 636.79 44.6047 638.105 40.3255C639.807 34.4809 640.557 32.4599 643.757 32.4599C647.826 32.4599 649.803 35.8628 649.803 42.8642V50.1123L635.746 54.2999C627.457 56.8723 622.32 59.9611 622.32 67.406C622.32 75.2338 628.528 81.1377 636.76 81.1377C641.972 81.1377 646.939 78.7702 650.188 74.77C651.043 77.7779 653.34 81.0366 659.275 81.0366C663.684 81.0366 668.023 79.2138 670.884 76.1614L670.978 76.0616V73.3382L670.479 73.5876C669.88 73.8869 669.012 74.0582 668.098 74.0582ZM649.803 54.3969V71.2242C648.347 72.7261 646.313 73.5512 644.062 73.5512C639.03 73.5512 636.396 68.8783 636.396 64.2633C636.396 60.1444 637.841 58.3513 642.344 56.8831L649.803 54.3969Z" fill="#010101"/>
<path d="M720.604 68.0386L706.383 47.5792L710.117 44.1331C716.675 38.0796 722.23 34.5566 727.102 33.3634L727.367 33.2987V29.9443H704.873V33.3028L706.466 33.6708C708.197 34.0241 709.195 34.6335 709.432 35.4815C709.813 36.8351 708.419 38.995 705.285 41.9058L693.394 53.2148V4.69336L692.056 4.7028L672.623 9.22611V12.2205L672.904 12.2731C677.407 13.136 678.709 14.4694 678.709 18.2215V71.1584C678.709 75.1896 677.39 76.0336 674.236 76.4973L672.623 76.7441V80.1241H699.477V76.7414L697.765 76.4973C694.683 76.0443 693.394 75.2017 693.394 71.1584V59.5474L696.435 56.7754L706.048 71.0465C707.34 72.9866 708.483 74.897 708.09 75.7248C707.893 76.136 707.243 76.3868 706.081 76.4973L704.366 76.7414V80.1241H731.22V76.7616L729.521 76.3962C725.999 75.7315 724.419 73.48 720.604 68.0386Z" fill="#010101"/>
<path d="M770.833 62.2886L770.655 62.5447C766.888 67.9862 763.032 70.2054 757.348 70.2054C748.016 70.2054 742.251 63.3065 741.884 51.7292H772.467L772.497 51.4191C772.602 50.3877 772.602 49.5532 772.602 48.7469C772.602 43.4862 770.82 38.5961 767.581 34.9775C763.865 30.8222 758.467 28.626 751.974 28.626C740.549 28.626 728.404 38.3076 728.404 56.2512C728.404 71.0831 738.014 81.4428 751.772 81.4428C761.975 81.4428 769.417 75.4001 773.292 63.9685L773.387 63.6948L770.833 62.2886ZM742 47.2868C742.644 38.3804 746.139 32.8662 751.162 32.8662C755.736 32.8662 758.734 38.2483 759.219 47.2868H742Z" fill="#010101"/>
<path d="M47.1526 61.5956L10.3327 74.8093C10.0604 74.9074 9.77471 74.9611 9.48454 74.9611C8.26138 74.9611 7.22126 74.0816 7.01146 72.8764L0.0384827 32.3468C-0.0909392 31.6192 0.109924 30.8781 0.583145 30.3111C1.05631 29.7442 1.75274 29.4183 2.49374 29.4093L39.4208 29.1504C40.577 29.1504 41.577 29.9316 41.8582 31.0522L48.7419 58.627C49.0543 59.8813 48.3713 61.1581 47.1526 61.5956Z" fill="#010101"/>
<path d="M9.13655 22.749C8.78387 21.7089 9.12314 20.6107 9.99809 19.95L35.6443 0.50886C36.0773 0.182989 36.6175 0 37.1577 0C37.2112 0 37.2649 0.00446846 37.3139 0.00446846L73.5937 2.27663C74.7231 2.34812 75.6472 3.13817 75.8882 4.24537C76.1338 5.35245 75.6249 6.45507 74.6294 6.99074L43.2065 23.9409C42.8495 24.133 42.4431 24.24 42.0325 24.24L11.5114 24.4588C10.4177 24.4588 9.48471 23.7892 9.13655 22.749Z" fill="#010101"/>
<path d="M77.802 87.0812C78.3779 87.8223 78.4895 88.8134 78.0966 89.6616C77.7083 90.5142 76.8824 91.0722 75.9494 91.1214L44.4119 94.6027C44.3672 94.6072 44.3226 94.6072 44.2824 94.6072C43.9074 94.6072 43.5325 94.5224 43.1976 94.3617L17.3728 82.0185C16.4577 81.581 15.8996 80.6435 15.9488 79.6301C16.0023 78.6123 16.6541 77.7374 17.6094 77.3936L51.4295 65.2557C51.7017 65.1575 51.9875 65.1084 52.2776 65.1084C52.541 65.1084 52.8044 65.1486 53.0499 65.2289L62.2817 68.2244C62.7638 68.3806 63.1834 68.6752 63.496 69.077L77.802 87.0812Z" fill="#010101"/>
<path d="M92.0033 52.1767L86.1062 83.5326C85.883 84.7156 84.8429 85.5772 83.6331 85.5772C82.8519 85.5772 82.1332 85.2245 81.6555 84.5996L69.3257 68.6315C68.4998 67.5645 68.6605 66.0512 69.6917 65.1807L87.9187 49.7973C88.383 49.4046 88.9365 49.1992 89.5302 49.1992C90.2713 49.1992 91.0033 49.543 91.481 50.1189C91.9542 50.6902 92.1417 51.4402 92.0033 52.1767Z" fill="#010101"/>
<path d="M47.8267 27.0036L86.026 6.39739C86.3965 6.20088 86.8073 6.09375 87.2179 6.09375C88.4634 6.09375 89.508 6.98657 89.7 8.21867L94.1328 36.5791C94.2668 37.4362 93.9409 38.3201 93.2713 38.8826L65.0224 62.7299C64.5671 63.1092 63.9957 63.319 63.402 63.319C63.1386 63.319 62.8796 63.2789 62.6297 63.1985L55.563 60.9085C54.7326 60.6362 54.1122 59.971 53.9023 59.1273L46.5857 29.8204C46.3045 28.7044 46.8178 27.5483 47.8267 27.0036Z" fill="#010101"/>
<path d="M96.7132 21.4456C96.5972 20.7045 96.7936 19.9902 97.2668 19.4368C97.7445 18.8788 98.4721 18.5439 99.2131 18.5439C100.021 18.5439 100.762 18.9323 101.24 19.6108L115.074 39.1948C115.628 39.976 115.699 40.9448 115.262 41.784C114.824 42.6322 113.971 43.159 113.038 43.159C112.69 43.159 112.342 43.0831 112.007 42.9357L100.436 37.8154C99.6507 37.4672 99.106 36.753 98.9721 35.9048L96.7132 21.4456Z" fill="#010101"/>
<path d="M120.734 55.8327L96.1951 81.2425C95.7129 81.7379 95.079 82.0147 94.405 82.0147C93.655 82.0147 92.9229 81.671 92.4452 81.0906C91.9675 80.5148 91.7845 79.7872 91.9229 79.0328L98.2217 45.552C98.4449 44.3645 99.4806 43.5029 100.69 43.5029C101.039 43.5029 101.382 43.5788 101.704 43.7217L119.944 51.7972C120.694 52.1276 121.234 52.8062 121.39 53.6096C121.551 54.4132 121.306 55.2435 120.734 55.8327Z" fill="#010101"/>
</g>
<defs>
<clipPath id="clip0_49_545">
<rect width="773.387" height="94.6077" fill="white"/>
</clipPath>
</defs>
</svg>
