<svg width="1103" height="342" viewBox="0 0 1103 342" fill="none" xmlns="http://www.w3.org/2000/svg">
<g clip-path="url(#clip0_1471_7890)">
<g opacity="0.5">
<path fill-rule="evenodd" clip-rule="evenodd" d="M679.928 1184.75C721.715 1139.45 773.387 1097.25 823.319 1073.14C873.17 1048.42 923.155 1041.7 971.034 1046.36C1018.69 1050.57 1063.88 1064.53 1102.99 1074.96C1142.18 1085.71 1169.39 1100.6 1189.55 1108.08C1209.91 1116.03 1222.8 1117.3 1233.24 1111.28C1243.8 1105.43 1252.44 1092.6 1265.44 1076.98C1278.7 1061.48 1296.3 1043.72 1327.48 1028.84C1358.54 1013.57 1407.41 1005.01 1464.93 983.46C1521.11 962.578 1582.92 915.506 1549.62 790.863C1523.37 693.892 1460.79 585.903 1403.19 496.544C1345.37 406.149 1293.33 331.84 1265.54 268.38C1237.58 205.035 1237.47 148.337 1242.76 104.748C1248.16 61.5406 1257.42 28.1264 1257.78 -2.37169C1258.36 -32.7901 1249.98 -60.2481 1229.45 -86.6426C1209.14 -113.073 1176.87 -138.12 1138.81 -161.412C1100.58 -184.882 1057.92 -206.597 1017.11 -228.63C975.573 -250.248 936.566 -275.534 890.16 -289.831C843.844 -304.136 787.411 -293.863 720.667 -286.33C659.119 -280.081 590.865 -255.876 523.26 -205.684C455.699 -155.864 390.5 -80.8373 339.21 6.18126C287.503 93.51 254.766 196.137 237.021 285.654C219.116 375.589 213.147 455.464 213.041 529.329C212.908 603.195 218.769 674.924 237.038 738.083C255.201 801.384 283.204 855.228 313.907 900.607C344.575 946.12 377.844 983.558 406.975 1017.42C436.186 1051.25 463.843 1076.94 489.066 1094.8C514.316 1112.6 537.133 1125.05 556.787 1136.99C576.424 1148.89 592.855 1160.26 606.994 1170.95C621.142 1181.6 632.803 1191.74 644.855 1195.88C656.854 1200.06 668.569 1197.12 679.928 1184.75Z" stroke="#264A50" stroke-width="0.1973"/>
<path fill-rule="evenodd" clip-rule="evenodd" d="M674.688 1196.51C716.627 1151.08 767.53 1108.7 817.492 1083.75C867.392 1058.3 917.309 1050.71 965.165 1054.75C1012.79 1058.3 1058.02 1071.83 1097.27 1082.01C1136.57 1092.42 1165.17 1105.48 1185.83 1112.46C1206.63 1119.81 1219.92 1120.75 1229.75 1113.86C1239.68 1107.14 1247.17 1093.21 1258.44 1076.05C1269.95 1059.02 1285.18 1039.2 1313.19 1021.9C1341.14 1004.23 1385.69 992.612 1439.78 969.666C1492.43 947.287 1555.18 902.956 1523.98 781.617C1499.37 687.544 1438.69 582.109 1381.93 494.511C1324.98 405.928 1272.85 332.841 1244.01 270.424C1214.97 208.105 1213.46 151.995 1218.52 108.435C1223.67 65.2036 1232.58 31.6669 1232.82 1.24353C1233.27 -29.1533 1225.02 -56.3836 1204.88 -82.3987C1184.96 -108.449 1153.43 -132.957 1116.21 -155.699C1078.81 -178.609 1037.1 -199.817 996.797 -221.149C955.809 -242.037 916.732 -266.412 870.04 -278.279C823.392 -290.138 767.557 -279.761 701.362 -272.159C640.231 -265.791 572.632 -241 506.108 -190.238C439.62 -139.857 375.939 -64.393 326.332 22.4246C276.326 109.606 247.076 211.91 230.78 299.588C214.343 387.718 208.976 465.888 209.234 538.895C209.465 611.911 216.049 683.375 234.61 745.978C253.073 808.706 280.84 862.19 310.988 907.506C341.109 952.937 373.54 990.554 401.786 1024.66C430.086 1058.71 458.216 1083.69 483.788 1101.51C509.369 1119.29 532.631 1131.98 552.542 1144.34C572.437 1156.66 588.945 1168.7 602.957 1180.12C616.996 1191.48 628.529 1202.6 640.222 1207.12C651.844 1211.55 663.386 1208.79 674.688 1196.51Z" stroke="#264A50" stroke-width="0.2005"/>
<path fill-rule="evenodd" clip-rule="evenodd" d="M670.299 1210.15C712.477 1164.52 762.4 1122.06 812.332 1096.26C862.202 1070.08 911.975 1061.69 959.715 1065.09C1007.23 1068.01 1052.38 1081.13 1091.73 1091.04C1131.06 1101.1 1160.92 1112.4 1182.05 1118.86C1203.29 1125.61 1216.79 1126.04 1226.4 1118.44C1236.12 1111.06 1242.24 1095.92 1251.86 1077.28C1261.73 1058.78 1274.7 1037.08 1299.63 1017.44C1324.54 997.492 1364.88 982.944 1415.38 958.472C1464.34 934.471 1527.32 892.459 1498.24 774.387C1475.3 683.148 1416.65 580.227 1360.94 494.429C1305.06 407.655 1253.07 335.792 1223.35 274.413C1193.42 213.149 1190.21 157.637 1194.95 114.072C1199.76 70.8534 1208.23 37.1679 1208.27 6.77551C1208.53 -23.5902 1200.34 -50.6451 1180.63 -76.2798C1161.12 -101.977 1130.36 -125.934 1094.06 -148.151C1057.55 -170.493 1016.85 -191.183 977.122 -211.794C936.754 -231.943 897.69 -255.226 850.846 -264.634C804.037 -273.937 749.012 -264.031 683.43 -256.282C622.798 -249.713 555.956 -224.292 490.639 -172.951C425.447 -122.073 362.935 -48.9142 315.504 40.7716C267.897 130.582 241.76 228.904 226.704 314.96C211.63 401.299 206.786 477.795 207.363 550.021C207.904 622.283 215.232 693.48 233.97 755.498C252.61 817.659 280.034 870.854 309.533 916.061C339.015 961.419 370.529 999.205 397.828 1033.55C425.155 1067.85 453.927 1092.06 479.815 1109.87C505.695 1127.66 529.366 1140.64 549.479 1153.46C569.583 1166.27 586.094 1178.93 599.926 1191.15C613.784 1203.29 625.06 1215.34 636.372 1220.18C647.657 1224.96 659.014 1222.44 670.299 1210.15Z" stroke="#264A50" stroke-width="0.2037"/>
<path fill-rule="evenodd" clip-rule="evenodd" d="M666.127 1223.76C708.765 1177.85 757.683 1135.34 807.655 1108.72C857.566 1081.83 907.246 1072.63 954.93 1075.44C1002.38 1077.75 1047.53 1090.44 1087 1100.12C1126.41 1109.85 1157.43 1119.49 1179.1 1125.35C1200.85 1131.39 1214.62 1131.37 1224.06 1123.04C1233.6 1114.9 1238.69 1098.77 1246.8 1078.71C1255.15 1058.83 1266.02 1035.3 1288.06 1013.47C1310.12 991.363 1346.46 973.989 1393.38 947.937C1438.7 922.222 1501.28 881.993 1474.33 767.231C1452.95 678.779 1396.35 578.389 1341.68 494.36C1286.87 409.364 1235.07 338.757 1204.58 278.4C1173.86 218.15 1168.74 163.354 1173.09 119.75C1177.5 76.4563 1185.46 42.6584 1185.26 12.2891C1185.28 -18.0624 1177.11 -44.9143 1157.77 -70.2116C1138.62 -95.5268 1108.58 -119.021 1073.14 -140.668C1037.48 -162.448 997.729 -182.62 958.513 -202.437C918.704 -221.8 879.612 -243.891 832.637 -250.793C785.68 -257.508 731.468 -248.555 666.402 -240.605C606.168 -233.747 540.011 -207.66 475.832 -155.715C411.732 -104.258 349.823 -30.347 305.428 59.4285C260.821 149.311 236.797 245.632 222.936 329.865C209.083 414.382 204.649 489.288 205.518 560.81C206.352 632.386 214.404 703.259 233.285 764.735C252.068 826.353 279.116 879.213 307.964 924.38C336.795 969.681 367.399 1007.65 393.809 1042.19C420.21 1076.72 449.839 1100.16 476.089 1118.04C502.312 1135.9 526.407 1149.15 546.716 1162.47C567.015 1175.76 583.51 1189.15 597.141 1202.15C610.798 1215.08 621.697 1227.95 632.658 1233.19C643.575 1238.4 654.793 1236.05 666.127 1223.76Z" stroke="#264A50" stroke-width="0.207"/>
<path fill-rule="evenodd" clip-rule="evenodd" d="M660.258 1237.37C703.579 1191.22 751.478 1148.69 801.579 1121.31C851.608 1093.72 901.256 1083.77 948.942 1086.01C996.39 1087.7 1041.58 1100.01 1081.19 1109.45C1120.72 1118.84 1152.84 1126.92 1175.1 1132.11C1197.4 1137.45 1211.52 1136.88 1220.87 1127.84C1230.32 1119.01 1234.6 1101.92 1241.34 1080.55C1248.28 1059.34 1257.2 1034.15 1276.5 1010.27C1295.88 986.137 1328.43 966.109 1371.81 938.438C1413.55 910.997 1475.24 872.202 1450.29 760.79C1430.44 675.131 1375.82 577.425 1322.19 495.254C1268.47 412.161 1216.92 342.845 1185.73 283.606C1154.3 224.41 1147.09 170.435 1151.01 126.891C1154.97 83.5952 1162.38 49.7008 1161.88 19.3841C1161.62 -10.9326 1153.41 -37.574 1134.39 -62.4843C1115.55 -87.4479 1086.2 -110.37 1051.55 -131.463C1016.68 -152.671 977.808 -172.255 939.048 -191.235C899.738 -209.718 860.57 -230.58 813.496 -234.868C766.422 -238.889 712.985 -231.45 648.323 -223.203C588.4 -215.994 522.85 -189.193 459.741 -136.754C396.668 -84.8113 335.751 -9.95604 294.213 79.4938C252.454 169.059 230.315 263.081 217.528 345.455C204.768 428.025 200.65 501.335 201.777 572.16C202.86 643.012 211.662 713.473 230.634 774.337C249.49 835.405 276.147 887.827 304.347 932.898C332.565 978.049 361.954 1017.17 387.803 1050.88C414.557 1085.8 444.008 1108.23 470.682 1126.2C497.303 1144.13 521.821 1157.69 542.31 1171.52C562.808 1185.3 579.26 1199.41 592.641 1213.25C606.076 1226.97 616.485 1240.65 627.124 1246.23C637.719 1251.82 648.838 1249.61 660.258 1237.37Z" stroke="#264A50" stroke-width="0.2102"/>
<path fill-rule="evenodd" clip-rule="evenodd" d="M653.911 1250.98C698.092 1204.56 744.909 1162 795.134 1133.88C845.28 1105.63 894.884 1094.91 942.553 1096.58C989.974 1097.72 1035.18 1109.59 1074.93 1118.79C1114.57 1127.91 1147.69 1134.58 1170.53 1139C1193.41 1143.55 1207.92 1142.44 1217.26 1132.7C1226.71 1123.18 1230.37 1105.17 1235.8 1082.56C1241.45 1060.12 1248.52 1033.4 1265.23 1007.54C1282.04 981.514 1310.99 958.962 1350.82 929.624C1388.98 900.471 1449.2 862.651 1426.16 754.514C1407.8 671.609 1355.17 576.531 1302.68 496.224C1250.11 415.013 1198.91 347.003 1167.16 288.867C1135.16 230.713 1125.77 177.678 1129.2 134.171C1132.66 90.9039 1139.47 56.8721 1138.64 26.6197C1138.04 -3.62389 1129.76 -30.097 1111.06 -54.6449C1092.51 -79.2727 1063.83 -101.629 1029.97 -122.15C995.885 -142.776 957.872 -161.788 919.566 -179.886C880.755 -197.497 841.535 -216.943 794.442 -218.638C747.332 -219.969 694.684 -214.468 630.418 -205.854C570.802 -198.242 505.888 -170.651 443.894 -117.749C381.891 -65.3087 322.391 10.6506 283.606 99.4739C244.581 188.439 224.177 280.11 212.346 360.647C200.551 441.344 196.699 513.125 198.039 583.291C199.344 653.51 208.876 723.508 227.869 783.747C246.738 844.234 272.929 896.266 300.443 941.246C328 986.198 354.174 1024.86 381.767 1059.37C409.378 1093.8 438.045 1116.15 465.097 1134.21C492.105 1152.25 517.018 1166.16 537.653 1180.52C558.297 1194.81 574.645 1209.75 587.745 1224.39C600.881 1238.98 610.714 1253.31 621.036 1259.27C631.305 1265.19 642.337 1263.21 653.911 1250.98Z" stroke="#264A50" stroke-width="0.2134"/>
<path fill-rule="evenodd" clip-rule="evenodd" d="M648.931 1262.64C694.114 1215.76 739.855 1173.14 790.21 1144.18C840.468 1115.14 890.025 1103.72 937.656 1104.83C985.039 1105.36 1030.24 1116.93 1070.11 1125.93C1109.86 1134.79 1143.82 1140.21 1167.28 1143.84C1190.74 1147.54 1205.67 1145.85 1215.09 1135.38C1224.59 1125.14 1227.83 1106.24 1232.09 1082.41C1236.53 1058.72 1241.88 1030.43 1256.12 1002.71C1270.49 974.806 1295.98 949.796 1332.27 918.77C1366.91 887.834 1425.05 850.482 1403.86 745.322C1386.92 664.879 1336.32 572.237 1285.02 493.598C1233.67 414.097 1182.95 347.23 1150.74 290.057C1118.27 232.848 1106.65 180.721 1109.57 137.123C1112.48 93.7834 1118.66 59.5681 1117.47 29.2799C1116.5 -0.999396 1108.14 -27.3516 1089.71 -51.5715C1071.43 -75.898 1043.41 -97.8079 1010.32 -117.799C977.009 -137.878 939.839 -156.385 901.977 -173.559C863.654 -190.272 824.452 -208.352 777.389 -207.357C731.798 -205.918 678.426 -202.737 614.583 -193.755C555.293 -185.652 491.033 -157.247 430.198 -103.743C369.293 -50.7008 311.652 26.6322 275.485 114.769C239.061 203.057 220.259 292.598 209.274 371.45C198.342 450.4 194.668 520.946 196.221 590.691C197.73 660.517 207.969 730.084 226.896 789.888C245.707 849.913 271.377 901.765 298.147 946.695C324.998 991.625 350.091 1030.98 377.394 1065.15C404.75 1099.19 433.792 1121.55 461.219 1139.81C488.602 1158.03 513.881 1172.34 534.609 1187.29C555.346 1202.21 571.548 1217.92 584.299 1233.47C597.094 1248.97 606.242 1263.96 616.243 1270.31C626.198 1276.7 637.174 1274.9 648.931 1262.64Z" stroke="#264A50" stroke-width="0.2167"/>
<path fill-rule="evenodd" clip-rule="evenodd" d="M642.204 1278.16C688.644 1230.95 733.361 1188.29 783.931 1158.62C834.376 1128.96 883.951 1116.76 931.607 1117.34C979.006 1117.34 1024.26 1128.5 1064.28 1137.29C1104.19 1145.87 1138.92 1150.32 1163.03 1153.03C1187.14 1155.81 1202.55 1153.43 1212.1 1142.3C1221.75 1131.34 1224.77 1111.67 1227.95 1086.7C1231.3 1061.88 1235.05 1032.23 1246.97 1002.77C1259.03 973.155 1281.27 945.922 1314.11 913.258C1345.33 880.612 1400.94 843.503 1381.48 741.493C1365.88 663.654 1317.23 573.658 1267.11 496.893C1216.97 419.347 1166.72 353.772 1134.12 297.7C1101.26 241.521 1087.37 190.569 1089.75 147.036C1092.12 103.715 1097.63 69.4098 1096.04 39.2042C1094.67 8.9631 1086.18 -17.1429 1068 -41.0394C1049.95 -64.9625 1022.52 -86.3921 990.134 -105.816C957.531 -125.294 921.11 -143.209 883.631 -159.413C845.806 -175.216 805.343 -189.467 759.756 -188.261C714.204 -186.708 661.201 -183.504 597.674 -173.956C538.623 -165.305 474.954 -136.111 415.219 -82.2215C355.36 -28.7406 299.87 49.7548 266.139 136.787C232.124 223.952 214.744 311.09 204.495 388.077C194.317 465.161 190.738 534.295 192.496 603.544C194.201 672.838 205.107 741.759 223.936 800.954C242.648 860.363 267.773 911.856 293.813 956.668C319.959 1001.49 344.045 1041.37 371.159 1075.06C398.344 1108.68 427.83 1131.07 455.664 1149.47C483.453 1167.88 509.093 1182.57 529.902 1198.12C550.719 1213.6 566.723 1230.12 579.104 1246.56C591.511 1262.99 599.903 1278.49 609.61 1285.22C619.264 1291.96 630.206 1290.38 642.204 1278.16Z" stroke="#264A50" stroke-width="0.2199"/>
<path fill-rule="evenodd" clip-rule="evenodd" d="M636.058 1289.83C683.838 1242.24 727.502 1199.47 778.219 1169.04C828.785 1138.6 878.277 1125.81 925.862 1125.78C973.199 1125.21 1018.39 1136.06 1058.49 1144.65C1098.45 1153.01 1133.79 1156.7 1158.51 1158.42C1183.23 1160.17 1199.12 1157.16 1208.86 1145.27C1218.68 1133.59 1221.66 1113.12 1223.87 1087.05C1226.24 1061.07 1228.48 1030.13 1238.17 998.999C1248.03 967.763 1267.13 938.398 1296.53 904.084C1324.35 869.743 1376.84 832.448 1359.02 733.39C1344.74 657.983 1298.11 570.476 1249.29 495.513C1200.47 419.752 1150.88 355.452 1118.05 300.414C1084.95 245.216 1068.86 195.457 1070.67 151.952C1072.47 108.624 1077.28 74.2207 1075.29 44.0314C1073.51 13.8155 1064.88 -12.151 1046.94 -35.6867C1029.13 -59.2846 1002.32 -80.2565 970.679 -99.117C938.805 -118.022 903.178 -135.33 866.132 -150.535C828.865 -165.51 788.705 -176.28 743.302 -174.861C697.979 -173.228 645.311 -169.831 582.21 -159.655C523.509 -150.438 460.586 -120.399 402.072 -66.0534C343.398 -12.1155 290.499 67.6292 259.121 153.406C227.442 239.388 211.368 324.136 201.769 399.436C192.25 474.736 188.737 542.7 190.671 611.568C192.57 680.49 204.067 748.72 222.687 807.413C241.193 866.318 265.686 917.453 290.924 962.227C316.305 1006.97 339.379 1047.27 366.312 1080.62C393.325 1113.9 423.221 1136.35 451.395 1154.99C479.526 1173.66 505.439 1188.77 526.233 1204.93C547.045 1221.07 562.755 1238.35 574.678 1255.77C586.628 1273.12 594.177 1289.13 603.572 1296.27C612.887 1303.4 623.807 1302.09 636.058 1289.83Z" stroke="#264A50" stroke-width="0.2231"/>
<path fill-rule="evenodd" clip-rule="evenodd" d="M628.142 1303.42C677.493 1255.41 720.226 1212.44 771.182 1181.18C821.953 1149.95 871.436 1136.43 919.013 1135.9C966.332 1134.79 1011.52 1145.32 1051.74 1153.73C1091.83 1161.92 1127.66 1165.17 1153.05 1165.78C1178.44 1166.43 1194.85 1162.67 1204.84 1150.04C1214.9 1137.55 1218.02 1116.34 1219.36 1089.17C1220.83 1062.12 1221.66 1029.83 1229.29 997.08C1237.07 964.274 1253.22 932.845 1279.27 896.896C1303.85 860.876 1352.8 823.019 1336.5 726.724C1323.43 653.575 1278.72 568.467 1231.17 495.167C1183.65 421.13 1134.73 357.969 1101.69 303.926C1068.4 249.662 1050.13 201.123 1051.37 157.602C1052.61 114.222 1056.72 79.6583 1054.29 49.4806C1052.07 19.303 1043.29 -6.5864 1025.55 -29.8123C1007.93 -53.0825 981.688 -73.6537 950.701 -91.9698C919.492 -110.339 884.566 -127.093 847.892 -141.236C811.076 -155.246 771.28 -163.095 725.992 -161.417C680.837 -159.641 628.408 -155.992 565.662 -145.089C507.245 -135.19 445.004 -104.266 387.66 -49.5312C330.13 4.91111 280.052 85.882 250.83 170.351C221.297 255.051 206.367 337.549 197.31 411.266C188.35 484.93 184.828 551.855 186.948 620.521C189.042 689.204 201.071 756.777 219.443 814.984C237.718 873.448 261.546 924.313 285.996 969.06C310.604 1013.76 332.783 1054.45 359.609 1087.54C386.533 1120.57 416.873 1143.14 445.412 1162.08C473.906 1181 500.077 1196.6 520.835 1213.45C541.612 1230.21 557.004 1248.43 568.421 1266.81C579.856 1285.13 586.518 1301.6 595.638 1309.16C604.66 1316.79 615.58 1315.65 628.142 1303.42Z" stroke="#264A50" stroke-width="0.2264"/>
<path fill-rule="evenodd" clip-rule="evenodd" d="M622.204 1318.91C673.356 1270.54 715.333 1227.43 766.609 1195.38C817.672 1163.37 867.216 1149.17 914.842 1148.11C962.201 1146.47 1007.45 1156.66 1047.82 1164.89C1088.08 1172.89 1124.33 1176.07 1150.43 1175.47C1176.53 1174.92 1193.52 1170.38 1203.83 1156.97C1214.2 1143.74 1217.63 1121.78 1218.2 1093.56C1218.89 1065.46 1218.42 1031.93 1224.08 997.732C1229.92 963.488 1243.28 930.13 1266.12 892.683C1287.58 855.084 1332.66 816.519 1317.72 722.949C1305.75 652.038 1262.9 569.415 1216.56 497.892C1170.27 425.685 1122.02 363.805 1088.82 310.761C1055.37 257.513 1034.97 210.342 1035.64 166.897C1036.3 123.523 1039.72 88.9326 1036.85 58.7865C1034.18 28.6316 1025.2 2.9391 1007.62 -19.9677C990.153 -42.9631 964.413 -63.022 934.01 -80.7832C903.384 -98.5798 869.073 -114.664 832.7 -127.741C796.257 -140.729 756.83 -146.026 711.602 -144.101C666.535 -142.158 614.263 -138.139 551.805 -126.517C493.6 -115.977 431.977 -84.1811 375.762 -29.141C319.325 25.6329 272.268 107.599 245.018 190.514C217.456 273.668 203.494 353.842 194.887 425.898C186.378 497.883 182.825 563.755 185.126 632.192C187.417 700.628 199.905 767.272 217.998 824.965C235.993 882.879 259.158 933.492 282.829 978.108C306.677 1022.73 328.065 1063.61 354.862 1096.47C381.775 1129.27 412.614 1151.98 441.516 1171.17C470.383 1190.4 496.807 1206.48 517.502 1224C538.215 1241.46 553.226 1260.53 564.097 1279.87C574.978 1299.18 580.734 1316 589.58 1323.97C598.32 1332 609.272 1331.17 622.204 1318.91Z" stroke="#264A50" stroke-width="0.2296"/>
<path fill-rule="evenodd" clip-rule="evenodd" d="M612.976 1330.63C666.005 1281.91 707.249 1238.53 758.788 1205.62C810.077 1172.77 859.566 1157.86 907.155 1156.26C954.461 1154.08 999.654 1163.93 1040.1 1172.05C1080.42 1179.95 1116.87 1183.37 1143.66 1181.46C1170.45 1179.63 1187.99 1174.28 1198.64 1160.01C1209.34 1145.93 1213.23 1123.22 1213.12 1093.98C1213.12 1064.83 1211.45 1030.07 1215.25 994.462C1219.23 958.753 1229.93 923.675 1249.59 884.674C1268.01 845.548 1308.74 805.953 1295.06 714.906C1284.14 646.124 1243.17 565.814 1198.17 495.941C1153.23 425.411 1105.78 364.713 1072.57 312.676C1039.12 260.355 1016.7 214.654 1016.8 171.225C1016.9 127.849 1019.62 93.1339 1016.3 63.0245C1013.2 32.8886 1004.03 7.34044 986.619 -15.2793C969.315 -37.9611 944.087 -57.5726 914.307 -74.8236C884.306 -92.0746 850.621 -107.542 814.63 -119.486C778.603 -131.422 739.647 -134.625 694.578 -132.371C649.686 -130.126 597.66 -125.734 535.633 -113.345C477.768 -102.04 416.93 -69.4371 361.975 -14.0813C306.763 41.0704 263.069 123.935 237.682 205.248C211.993 286.817 198.913 364.766 190.678 435.332C182.55 505.782 178.912 570.757 181.405 639.131C183.907 707.514 196.73 773.084 214.433 830.356C232.056 887.797 254.462 938.13 277.294 982.722C300.321 1027.28 320.935 1068.39 347.689 1101.06C374.567 1133.66 405.838 1156.62 435.023 1176.15C464.182 1195.71 490.75 1212.3 511.266 1230.55C531.835 1248.69 547.284 1268.85 556.362 1289.04C565.493 1309.15 571.678 1326.48 580.223 1334.92C588.688 1343.42 599.665 1342.85 612.976 1330.63Z" stroke="#264A50" stroke-width="0.2328"/>
<path fill-rule="evenodd" clip-rule="evenodd" d="M603.808 1346.14C659.102 1297.1 701.455 1250.95 751.654 1219.49C801.782 1188.08 852.745 1170.29 900.272 1168.19C947.587 1165.45 992.762 1174.99 1033.32 1182.98C1073.76 1190.74 1110.29 1194.93 1137.82 1191.57C1165.35 1188.36 1183.49 1182.06 1194.53 1166.94C1205.61 1151.98 1210.1 1128.57 1209.42 1098.3C1208.83 1068.09 1206.06 1032.2 1208.11 995.224C1210.36 958.202 1218.56 921.446 1235.17 880.963C1250.69 840.347 1286.8 799.562 1274.24 710.964C1264.27 644.143 1225.08 566.141 1181.34 497.954C1137.7 429.127 1091.05 369.663 1057.85 318.567C1024.48 267.311 1004.22 222.968 999.943 179.654C995.789 136.5 1001.23 101.536 997.422 71.4094C993.863 41.3089 984.491 15.8939 967.21 -6.40636C950.028 -28.8131 925.265 -48.0075 896.021 -64.6816C866.555 -81.3558 833.441 -96.2019 797.753 -106.984C762.065 -117.801 723.546 -119.283 678.592 -116.683C633.816 -114.145 581.975 -109.291 520.308 -96.0954C462.725 -84.0624 402.639 -50.6253 348.89 4.99668C294.865 60.45 254.66 143.998 230.962 223.607C206.963 303.534 194.618 379.274 186.674 448.349C178.855 517.281 174.808 581.245 177.808 649.894C180.843 718.419 193.579 782.586 210.842 839.442C228.069 896.439 249.698 946.479 271.718 991.026C293.933 1035.52 313.885 1076.78 340.662 1109.3C367.554 1141.8 399.293 1164.97 428.777 1184.87C458.225 1204.84 484.914 1221.94 505.229 1240.93C525.607 1259.78 540.278 1281.11 548.639 1302.01C557.061 1322.81 562.644 1340.79 570.898 1349.69C579.055 1358.6 590.078 1358.36 603.808 1346.14Z" stroke="#264A50" stroke-width="0.2361"/>
<path fill-rule="evenodd" clip-rule="evenodd" d="M596.257 1359.78C653.895 1310.51 697.019 1263.71 746.804 1231.38C796.519 1199 848.064 1180.84 895.638 1178.22C942.99 1174.9 988.183 1184.17 1028.86 1192.01C1069.44 1199.79 1105.24 1205.11 1134.07 1200.26C1162.93 1195.7 1181.32 1188.24 1192.79 1172.15C1204.32 1156.32 1208.17 1131.87 1208.22 1100.82C1208.39 1069.92 1203.52 1032.66 1203.91 994.34C1204.52 956.059 1210.35 917.699 1224.02 875.852C1236.97 833.89 1264.59 790.1 1256.23 705.368C1249.74 641.511 1209.83 564.666 1167.3 498.245C1124.91 431.106 1079.07 372.829 1045.9 322.723C1012.59 272.466 991.656 228.88 986.158 186.385C980.758 144.033 985.723 108.343 981.486 78.2595C977.471 48.2206 967.878 22.9634 950.709 0.953198C933.628 -21.1368 909.272 -39.9001 880.511 -56.0373C851.537 -72.1569 818.912 -86.298 783.506 -95.9059C748.11 -105.558 709.996 -105.744 665.113 -102.719C620.426 -99.8359 568.721 -94.4243 507.389 -80.4428C450.079 -67.6235 390.709 -33.415 338.152 22.369C285.32 78.0554 248.725 162.015 226.545 239.863C204.082 318.012 192.339 391.557 184.603 459.246C176.973 526.803 172.691 590.677 176.084 658.704C179.513 726.598 192.126 790.091 208.949 846.478C225.719 902.981 246.566 952.777 267.777 997.25C289.202 1041.68 308.556 1082.97 335.399 1115.42C362.357 1147.82 394.573 1171.27 424.32 1191.56C454.05 1211.9 480.812 1229.59 500.86 1249.32C520.987 1268.92 534.764 1291.35 542.412 1312.96C550.122 1334.48 555.096 1353.06 563.081 1362.46C570.96 1371.88 582.054 1371.95 596.257 1359.78Z" stroke="#264A50" stroke-width="0.2393"/>
<path fill-rule="evenodd" clip-rule="evenodd" d="M586.501 1375.32C646.43 1325.83 690.378 1278.3 739.739 1245.04C789.047 1211.68 840.791 1193 888.238 1189.86C935.473 1186 980.51 1194.93 1021.18 1202.66C1061.74 1210.26 1097.64 1215.62 1126.67 1210.68C1155.71 1205.93 1175.3 1196.17 1187.19 1179.16C1199.15 1162.34 1203.28 1137.03 1203.16 1104.96C1203.15 1073.03 1197.47 1034.67 1196.34 995.062C1195.43 955.507 1199.01 915.641 1209.81 872.436C1219.99 829.143 1243.65 784.11 1234.91 701.137C1228.18 638.825 1191.14 564.376 1149.98 499.437C1108.97 433.893 1064.12 376.713 1031.16 327.533C998.068 278.158 976.604 235.345 969.995 193.587C963.448 151.999 967.86 115.702 963.218 85.6118C958.771 55.557 948.991 30.4565 931.956 8.73002C915 -13.0409 891.126 -31.4645 862.902 -47.0468C834.483 -62.5848 802.423 -76.0717 767.396 -84.4622C732.378 -92.9149 694.763 -92.0625 650.124 -88.6797C605.671 -85.3856 554.264 -79.4102 493.511 -64.5825C441.05 -51.9657 387.304 -21.4314 339.032 27.4821C290.549 76.2713 255.016 149.957 232.657 220.845C210.058 291.965 197.293 360.856 188.346 423.958C179.451 487.042 174.101 545.571 173.117 606.533C172.081 667.584 178.149 731.103 189.834 787.111C201.43 843.358 217.712 894.119 235.492 939.765C253.28 985.428 272.61 1026.18 291.346 1063.35C310.073 1100.5 334.577 1132.26 362.331 1156.82C390.068 1181.42 419.691 1200.36 445.195 1218.47C470.709 1236.55 491.987 1254.24 507.357 1273.96C522.807 1293.56 531.479 1316.16 537.176 1335.77C542.925 1355.34 547.425 1371.44 554.955 1379.24C562.405 1387.08 572.991 1386.46 586.501 1375.32Z" stroke="#264A50" stroke-width="0.2425"/>
<path fill-rule="evenodd" clip-rule="evenodd" d="M574.376 1390.91C637.018 1341.33 682.142 1293.15 731.463 1259C780.732 1224.75 832.742 1205.48 880.289 1201.76C927.623 1197.3 972.703 1205.94 1013.52 1213.54C1054.22 1221.02 1090.38 1226.41 1119.74 1221.36C1149.09 1216.42 1169.85 1204.61 1182.26 1186.64C1194.72 1168.81 1199.18 1142.64 1198.98 1109.58C1198.87 1076.65 1192.54 1037.26 1189.99 996.486C1187.65 955.748 1189.11 914.504 1197.21 870.093C1204.77 825.575 1224.68 779.407 1215.26 698.135C1208.09 637.308 1173.61 565.3 1133.62 501.909C1093.79 437.994 1049.76 382.02 1016.91 333.811C983.937 285.389 961.921 243.364 954.236 202.423C946.586 161.623 950.429 124.913 945.371 94.8858C940.481 64.9381 930.462 40.0038 913.486 18.5568C896.573 -2.94344 873.03 -20.8766 845.192 -35.9081C817.168 -50.8776 785.506 -63.6286 750.693 -70.7895C715.889 -77.9947 678.548 -76.4596 633.956 -72.6529C589.533 -68.9261 538.215 -62.342 477.783 -46.6804C425.542 -33.3526 372.44 -2.12708 325.195 46.8985C277.719 95.8353 245.595 169.973 224.608 239.221C203.381 308.744 191.233 375.605 182.483 437.284C173.804 498.874 168.303 556.48 167.38 617.263C166.403 678.09 172.819 740.967 184.24 796.417C195.572 852.098 211.27 902.428 228.344 947.833C245.444 993.282 263.982 1033.98 282.138 1071.24C300.268 1108.5 325.203 1139.93 353.254 1164.68C381.269 1189.5 411.228 1208.82 436.785 1227.42C462.36 1246.05 483.427 1264.32 498.326 1284.84C513.305 1305.24 520.901 1328.6 525.96 1348.87C531.071 1369.06 535.073 1385.77 542.403 1394.01C549.662 1402.24 560.382 1401.97 574.376 1390.91Z" stroke="#264A50" stroke-width="0.2458"/>
<path fill-rule="evenodd" clip-rule="evenodd" d="M565.105 1402.69C630.532 1353.2 676.998 1304.25 726.403 1269.24C775.773 1234.06 827.843 1214.18 875.445 1209.83C922.844 1204.79 967.915 1213.06 1008.84 1220.56C1049.64 1227.88 1086.02 1233.35 1115.67 1228.21C1145.32 1223.13 1167.14 1209.5 1180.08 1190.51C1193.08 1171.58 1197.92 1144.55 1197.68 1110.48C1197.54 1076.56 1190.72 1036.13 1186.86 994.258C1183.18 952.424 1182.66 909.889 1188.15 864.313C1193.18 818.684 1209.44 771.37 1199.14 691.665C1191.35 632.213 1159.31 562.51 1120.52 500.654C1081.86 438.337 1038.71 383.584 1006.04 336.323C973.253 288.85 950.775 247.627 942.089 207.469C933.412 167.461 936.663 130.468 931.201 100.525C925.89 70.6345 915.641 45.8868 898.714 24.7658C881.849 3.59159 858.625 -13.9561 831.164 -28.3914C803.518 -42.7647 772.247 -54.7617 737.673 -60.6759C703.108 -66.5813 666.012 -64.7104 621.509 -60.4188C577.157 -56.2158 525.984 -48.9893 465.948 -32.4968C414.091 -18.4161 361.657 10.4546 315.449 62.5478C269.196 114.481 240.564 185.736 220.741 253.391C200.785 321.223 189.125 386.12 180.528 446.433C172.002 506.639 166.309 563.379 165.456 624.037C164.568 684.731 171.229 746.764 182.304 801.704C193.308 856.803 208.352 906.662 224.684 951.874C241.043 997.078 258.797 1037.75 276.417 1075.14C293.975 1112.55 319.277 1143.59 347.599 1168.57C375.84 1193.62 406.072 1213.37 431.596 1232.49C457.147 1251.61 477.928 1270.56 492.271 1291.83C506.685 1312.99 513.186 1337.18 517.6 1358.06C522.067 1378.89 525.549 1396.16 532.698 1404.86C539.758 1413.59 550.602 1413.67 565.105 1402.69Z" stroke="#264A50" stroke-width="0.249"/>
<path fill-rule="evenodd" clip-rule="evenodd" d="M551.575 1420.22C619.952 1370.87 667.949 1321.09 717.627 1285.17C767.277 1249.07 819.32 1228.36 867.015 1223.38C914.496 1217.7 959.577 1225.64 1000.62 1233.03C1041.53 1240.28 1078.12 1245.75 1108.08 1240.57C1138.05 1235.38 1160.82 1220.22 1174.35 1200.1C1187.9 1180.02 1193.16 1151.97 1192.96 1116.87C1192.84 1081.89 1185.71 1040.42 1180.62 997.387C1175.71 954.413 1173.31 910.614 1176.3 863.905C1178.92 817.151 1191.64 768.748 1180.28 690.332C1171.72 632.107 1141.94 564.479 1104.28 504.046C1066.77 443.249 1024.47 389.567 991.996 343.195C959.417 296.628 936.521 256.12 926.9 216.686C917.27 177.411 919.902 140.221 914.052 110.333C908.334 80.5064 897.842 55.9321 880.948 35.0661C864.107 14.1468 841.167 -2.98425 814.047 -16.8506C786.75 -30.6725 755.816 -41.8951 721.468 -46.5438C687.102 -51.1837 650.166 -49.1432 605.743 -44.3969C561.463 -39.6861 510.398 -31.746 450.771 -14.4286C399.209 0.413579 346.152 29.9826 302.539 82.7243C258.89 135.342 232.17 205.33 213.462 271.379C194.648 337.641 183.364 400.656 174.846 459.732C166.39 518.675 160.486 574.735 159.721 635.425C158.93 696.089 165.732 757.312 176.42 811.749C187.054 866.318 201.388 915.866 216.975 960.88C232.588 1005.92 249.58 1046.61 266.723 1084.22C283.786 1121.82 309.385 1152.53 337.945 1177.79C366.416 1203.16 396.861 1223.35 422.318 1243.03C447.801 1262.7 468.225 1282.34 481.954 1304.42C495.754 1326.34 501.16 1351.32 504.939 1372.87C508.771 1394.34 511.741 1412.22 518.685 1421.41C525.576 1430.65 536.54 1431.06 551.575 1420.22Z" stroke="#264A50" stroke-width="0.2522"/>
<path fill-rule="evenodd" clip-rule="evenodd" d="M539.431 1433.96C610.546 1384.99 660.047 1334.46 709.938 1297.64C759.803 1260.66 811.511 1239.09 859.08 1233.41C906.446 1227.07 951.33 1234.65 992.289 1241.93C1033.11 1249.05 1069.75 1254.64 1099.87 1249.36C1130 1244.13 1153.54 1227.77 1167.58 1206.48C1181.67 1185.21 1187.34 1156.14 1187.24 1120C1187.21 1083.97 1179.93 1041.51 1173.76 997.412C1167.75 953.371 1163.59 908.479 1164.2 860.733C1164.51 812.978 1173.78 763.573 1161.26 686.458C1151.88 629.368 1124.23 563.883 1087.85 504.869C1051.6 445.545 1010.35 393.074 978.27 347.65C946.075 302.022 922.929 262.263 912.472 223.612C901.997 185.121 904 147.923 897.815 118.12C891.736 88.4222 881.066 63.9728 864.273 43.4506C847.525 22.8485 824.954 6.12933 798.263 -7.14143C771.412 -20.3413 740.919 -30.8107 706.952 -34.1617C672.941 -37.4949 636.236 -35.5712 592.114 -30.3232C548.107 -25.1017 497.409 -16.4673 438.488 1.69688C387.471 17.2548 334.496 47.7235 293.573 100.771C252.596 153.774 227.757 222.22 210.122 286.597C192.39 351.125 181.455 412.302 172.974 470.136C164.573 527.838 158.468 583.217 157.794 643.942C157.13 704.666 163.909 764.717 174.091 818.589C184.229 872.612 197.769 921.661 212.524 966.509C227.323 1011.35 243.451 1052.13 260.147 1089.82C276.744 1127.5 302.559 1158.06 331.111 1183.53C359.566 1209.09 390.014 1229.75 415.226 1249.98C440.464 1270.2 460.367 1290.5 473.367 1313.34C486.429 1336.08 490.763 1361.7 493.891 1383.88C497.054 1406 499.5 1424.49 506.235 1434.13C512.873 1443.86 523.923 1444.62 539.431 1433.96Z" stroke="#264A50" stroke-width="0.2555"/>
<path fill-rule="evenodd" clip-rule="evenodd" d="M528.124 1451.53C602.332 1402.91 653.695 1351.54 704.137 1313.74C754.578 1275.84 806.083 1253.17 853.731 1246.75C901.176 1239.71 946.015 1246.97 987.041 1254.09C1027.93 1261.07 1064.72 1266.74 1095.12 1261.47C1125.52 1256.19 1149.78 1238.99 1164.45 1216.37C1179.14 1193.73 1185.29 1163.57 1185.33 1126.27C1185.44 1089.12 1178.13 1045.47 1170.95 1000.23C1163.91 955.051 1158.1 908.905 1156.44 860.13C1154.54 811.347 1160.56 760.867 1146.74 684.738C1136.42 628.583 1110.56 564.853 1075.28 507.143C1040.11 449.168 999.754 397.693 967.946 353.066C936.033 308.225 912.603 269.167 901.336 231.156C890.033 193.331 891.434 156.146 884.909 126.377C878.473 96.7229 867.596 72.4332 850.833 52.1311C834.113 31.7934 811.783 15.4612 785.392 2.74347C758.851 -9.86764 728.559 -19.4503 694.944 -21.6439C662.02 -23.651 624.424 -22.0436 580.463 -16.2886C536.564 -10.5071 486.061 -1.04874 427.641 17.8946C377.005 34.2002 324.347 65.7546 285.83 119.059C247.241 172.247 224.033 239.308 207.278 302.177C190.444 365.171 179.699 424.683 171.18 481.486C162.759 538.147 156.181 592.863 155.853 654.152C155.56 715.342 161.97 773.913 171.615 827.421C181.251 881.018 193.989 929.749 207.969 974.536C222.011 1019.3 237.153 1060.38 253.694 1098.07C270.148 1135.8 296.219 1166.54 324.862 1192.23C353.398 1218.04 383.636 1239.11 408.599 1260.13C433.58 1281.18 453.012 1302.06 465.264 1325.7C477.577 1349.22 480.954 1375.6 483.437 1398.46C485.963 1421.29 487.904 1440.37 494.447 1450.58C500.892 1460.82 512.079 1462.03 528.124 1451.53Z" stroke="#264A50" stroke-width="0.2587"/>
<path fill-rule="evenodd" clip-rule="evenodd" d="M512.387 1463.42C589.775 1415.53 643.182 1363.43 694.355 1324.78C745.527 1286.02 796.815 1262.29 844.564 1255.08C892.109 1247.35 936.913 1254.17 977.993 1261.17C1018.93 1267.97 1055.89 1273.72 1086.55 1268.46C1117.22 1263.18 1142.08 1245.63 1157.39 1221.65C1172.73 1197.68 1179.37 1166.37 1179.6 1128.02C1179.9 1089.75 1172.7 1045.07 1164.59 998.838C1156.63 952.636 1149.26 905.511 1145.46 855.866C1141.47 806.23 1144.38 754.944 1129.15 679.91C1117.83 624.747 1093.51 562.922 1059.28 506.588C1025.13 450.068 985.655 399.74 954.154 356.03C922.555 312.135 898.867 273.783 886.841 236.567C874.779 199.52 875.56 162.526 868.722 132.922C861.964 103.363 850.878 79.3032 834.134 59.3335C817.425 39.3195 795.334 23.3864 769.215 11.3123C742.982 -0.708487 712.66 -8.7549 679.766 -10.4848C646.801 -12.1615 609.198 -10.0058 565.369 -3.65381C521.593 2.72477 471.29 12.8826 413.413 32.6127C363.181 49.5838 311.246 82.2574 274.999 135.424C238.673 188.466 216.936 253.867 200.946 315C184.893 376.266 174.242 433.993 165.631 489.706C157.09 545.276 150.341 600.306 150.128 660.916C149.951 721.455 156.052 779.297 165.134 832.215C174.215 885.195 186.091 933.571 199.349 978.132C212.688 1022.71 226.754 1063.81 243.214 1101.43C259.585 1139.06 285.987 1169.86 314.757 1195.71C343.43 1221.73 373.583 1243.07 397.981 1264.73C422.397 1286.41 441.234 1308.35 452.648 1332.72C464.15 1356.95 466.687 1383.97 468.532 1407.45C470.429 1430.86 471.875 1450.56 478.225 1461.29C484.486 1472.02 495.794 1473.67 512.387 1463.42Z" stroke="#264A50" stroke-width="0.262"/>
<path fill-rule="evenodd" clip-rule="evenodd" d="M497.971 1481.04C578.607 1434 634.222 1381.19 686.287 1341.6C738.371 1301.94 789.451 1277.02 837.302 1268.97C884.967 1260.48 929.73 1266.86 970.874 1273.71C1011.86 1280.36 1048.95 1286.23 1079.88 1280.96C1110.82 1275.7 1136.13 1258.25 1152.12 1232.78C1168.14 1207.38 1175.3 1174.83 1175.77 1135.3C1176.3 1095.85 1169.3 1050.02 1160.38 1002.77C1151.58 955.527 1142.78 907.382 1136.94 856.868C1130.97 806.398 1130.89 754.295 1114.2 680.188C1101.85 625.902 1078.82 565.752 1045.58 510.686C1012.4 455.513 973.802 406.241 942.596 363.367C911.319 320.341 887.416 282.675 874.692 246.18C861.907 209.854 862.084 173.164 854.959 143.634C847.905 114.211 836.628 90.2719 819.894 70.627C803.204 50.92 781.306 35.3921 755.451 23.9281C729.515 12.4819 699.8 5.73839 666.838 4.50504C633.831 3.28943 596.264 5.95134 552.556 12.8812C508.911 19.8554 458.833 30.7959 401.514 51.266C351.703 68.8879 300.861 102.765 266.772 155.649C232.585 208.443 212.169 272.196 196.828 331.672C181.433 391.272 170.795 447.439 162.046 502.15C153.351 556.773 146.483 612.229 146.315 672.237C146.164 732.202 151.914 789.371 160.369 841.748C168.834 894.215 179.969 942.244 192.489 986.574C205.124 1030.9 217.998 1072.21 234.431 1109.79C250.783 1147.4 277.606 1178.27 306.549 1204.32C335.403 1230.5 365.491 1252.22 389.288 1274.5C413.129 1296.76 430.653 1320.14 441.176 1345.23C451.805 1370.17 453.678 1397.86 454.902 1421.97C456.189 1446.01 457.129 1466.32 463.305 1477.61C469.383 1488.9 480.828 1491.04 497.971 1481.04Z" stroke="#264A50" stroke-width="0.2652"/>
<path fill-rule="evenodd" clip-rule="evenodd" d="M482.937 1496.77C566.871 1450.79 624.866 1397.25 677.988 1356.82C731.144 1316.33 782.038 1290 830.037 1281.1C877.849 1271.79 922.582 1277.73 963.763 1284.42C1004.78 1290.88 1042.02 1296.86 1073.21 1291.59C1104.38 1286.51 1129.35 1270.21 1146.69 1242.54C1164.05 1215.05 1171.18 1181.82 1171.93 1141.01C1172.72 1100.31 1166 1053.32 1156.37 1005.02C1146.84 956.713 1136.69 907.62 1128.92 856.291C1121.08 805.007 1118.18 752.214 1099.98 678.974C1086.55 625.489 1064.58 566.91 1032.29 513.087C1000.02 459.185 962.263 410.98 931.379 368.934C900.424 326.727 876.358 289.757 862.962 253.985C849.513 218.364 849.061 182.103 841.684 152.658C834.369 123.32 822.917 99.6256 806.201 80.2531C789.521 60.8361 767.807 45.7321 742.188 34.8877C716.524 24.0167 687.273 18.4082 654.25 17.6627C621.218 16.9617 583.685 20.0676 540.124 27.6463C496.626 35.2161 446.789 46.9922 390.064 68.1397C340.697 86.3941 291.296 121.394 259.222 173.85C227.034 226.191 207.805 288.275 192.998 346.109C178.147 404.067 167.441 458.67 158.51 512.519C149.606 566.324 142.691 622.25 142.505 681.575C142.309 740.917 147.618 797.384 155.403 849.272C163.189 901.213 173.77 948.735 185.488 992.911C197.339 1037.02 209.004 1078.56 225.48 1116.08C241.912 1153.62 269.209 1184.58 298.38 1210.83C327.453 1237.22 357.493 1259.22 380.681 1282.16C403.921 1305.08 420.06 1329.49 429.097 1355.74C438.232 1381.86 440.016 1409.82 440.655 1434.54C441.339 1459.21 441.809 1480.13 447.801 1491.99C453.687 1503.84 465.236 1506.47 482.937 1496.77Z" stroke="#264A50" stroke-width="0.2684"/>
<path fill-rule="evenodd" clip-rule="evenodd" d="M466.737 1508.71C553.83 1464.04 614.256 1409.99 668.476 1368.74C722.767 1327.46 773.45 1299.73 821.527 1289.92C869.417 1279.75 914.036 1285.23 955.189 1291.7C996.173 1297.96 1033.44 1304 1064.84 1298.79C1096.19 1293.73 1121.48 1277.43 1139.15 1249.39C1156.85 1221.49 1165.1 1185.74 1166.15 1143.76C1167.24 1101.84 1160.91 1053.69 1150.67 1004.39C1140.53 955.118 1129.16 905.15 1119.6 853.107C1110 801.144 1104.42 747.79 1084.75 675.465C1070.27 622.873 1049.14 565.743 1017.79 513.195C986.439 460.585 949.559 413.48 919.063 372.296C888.495 330.97 864.328 294.733 850.339 259.701C836.296 224.828 835.197 189.061 827.617 159.817C820.099 130.689 808.503 107.145 791.837 88.1225C775.197 69.0464 753.707 54.3936 728.343 44.1553C702.971 33.9258 674.079 29.2454 641.091 29.015C608.112 28.7756 570.7 32.41 527.384 40.6095C484.131 48.8091 434.653 61.2989 378.651 83.123C329.848 101.924 282.294 137.993 252.152 189.779C221.895 241.476 203.73 301.7 189.386 357.891C174.997 414.153 164.164 467.206 155.024 520.206C145.892 573.135 139.004 629.513 138.702 688.079C138.383 746.753 143.047 802.509 150.236 853.692C157.435 904.928 167.426 951.998 178.277 995.894C189.27 1039.76 199.669 1081.43 216.247 1118.87C232.808 1156.32 260.618 1187.34 289.989 1213.72C319.262 1240.25 349.2 1262.56 371.718 1286.08C394.281 1309.57 408.917 1335.15 416.426 1362.35C424.042 1389.42 425.176 1417.92 425.229 1443.3C425.327 1468.58 425.354 1490.11 431.151 1502.49C436.878 1514.89 448.519 1518.07 466.737 1508.71Z" stroke="#264A50" stroke-width="0.2717"/>
<path fill-rule="evenodd" clip-rule="evenodd" d="M448.666 1524.47C539.076 1481.2 602.175 1426.65 657.77 1384.46C713.446 1342.31 764.101 1312.99 812.379 1302.2C860.479 1291.08 905.059 1296.04 946.258 1302.32C987.272 1308.35 1024.64 1314.47 1056.28 1309.33C1087.87 1304.29 1113.53 1287.99 1131.57 1259.5C1149.65 1231.1 1158.94 1193.06 1160.34 1149.78C1161.78 1106.45 1155.84 1056.98 1145.08 1006.54C1134.4 956.111 1121.89 905.164 1110.64 852.371C1099.37 799.666 1091.28 745.62 1070.07 674.033C1054.53 622.11 1033.99 566.227 1003.45 514.773C972.885 463.258 936.812 417.087 906.628 376.677C876.392 336.108 852.115 300.501 837.542 266.11C822.925 231.87 821.124 196.671 813.381 167.509C805.682 138.444 793.956 115.088 777.308 96.348C760.686 77.5724 739.354 63.3065 714.2 53.6923C689.036 44.0692 660.325 40.1898 627.338 40.4561C594.378 40.7136 557.028 44.9126 513.886 53.7278C470.805 62.5874 421.632 75.8857 366.284 98.3188C317.989 117.671 272.46 154.788 244.06 205.903C215.526 256.939 198.274 315.468 184.251 370.197C170.192 424.979 159.15 476.698 149.748 529.022C140.337 581.345 133.489 638.249 133.01 696.191C132.514 754.285 136.443 809.378 143.255 860.005C150.102 910.677 159.185 957.425 169.11 1001.18C179.204 1044.93 188.375 1086.83 205.183 1124.29C221.983 1161.76 250.455 1192.91 280.115 1219.49C309.687 1246.23 339.578 1268.91 361.433 1293.06C383.341 1317.2 396.566 1343.83 402.446 1372.14C408.442 1400.29 408.354 1429.63 407.866 1455.61C407.422 1481.53 407.005 1503.7 412.638 1516.7C418.163 1529.73 429.907 1533.44 448.666 1524.47Z" stroke="#264A50" stroke-width="0.2749"/>
<path fill-rule="evenodd" clip-rule="evenodd" d="M430.102 1540.25C523.809 1498.75 589.697 1443.74 646.818 1400.77C704.036 1357.84 754.767 1326.89 803.28 1315.06C851.616 1302.96 896.18 1307.35 937.408 1313.39C978.449 1319.14 1015.9 1325.35 1047.76 1320.26C1079.57 1315.3 1105.6 1298.97 1124.01 1270.15C1142.47 1241.37 1152.71 1201.39 1154.49 1156.75C1156.31 1112.03 1150.81 1061.14 1139.62 1009.68C1128.51 958.17 1114.97 906.285 1102.12 852.856C1089.29 799.533 1078.82 744.94 1056.1 674.124C1039.53 622.924 1019.37 568.251 989.568 517.912C959.734 467.537 924.416 422.303 894.565 382.691C864.651 342.883 840.293 307.959 825.181 274.26C810.024 240.73 807.469 206.17 799.598 177.142C791.78 148.23 779.925 125.027 763.313 106.611C746.719 88.1318 725.537 74.2528 700.575 65.3286C675.604 56.3157 646.951 53.1279 613.994 53.9004C581.063 54.6374 543.793 59.397 500.862 68.8628C457.993 78.3375 409.134 92.4296 354.471 115.419C306.712 135.248 263.453 173.226 236.654 223.504C209.713 273.701 193.234 330.46 179.436 383.676C165.619 436.884 154.278 487.339 144.597 539.01C134.88 590.69 128.101 648.071 127.355 705.301C126.583 762.655 130.08 816.964 136.416 867.019C142.805 917.127 150.88 963.409 159.825 1007.01C168.973 1050.53 176.942 1092.67 194.086 1130.11C211.239 1167.56 240.425 1198.85 270.41 1225.56C300.314 1252.52 330.157 1275.43 351.33 1300.24C372.556 1325 384.278 1352.64 388.564 1381.96C392.974 1411.13 390.578 1441.63 389.877 1468.01C389.238 1494.3 388.147 1517.31 393.622 1530.9C398.982 1544.52 410.82 1548.75 430.102 1540.25Z" stroke="#264A50" stroke-width="0.2781"/>
<path fill-rule="evenodd" clip-rule="evenodd" d="M412.978 1556.02C509.922 1516.56 578.718 1461.38 637.501 1417.66C696.399 1374.02 747.334 1341.43 796.113 1328.53C844.732 1315.42 889.267 1319.17 930.518 1324.91C971.582 1330.37 1009.1 1336.65 1041.17 1331.61C1073.19 1326.7 1099.57 1310.44 1118.37 1281.32C1137.22 1252.23 1148.3 1210.74 1150.5 1164.73C1152.74 1118.59 1147.66 1066.39 1136.16 1013.84C1124.73 961.268 1110.23 908.58 1095.91 854.57C1081.63 800.667 1068.91 745.77 1044.73 675.747C1027.13 625.277 1007.17 571.836 978.062 522.608C948.893 473.344 914.309 429.146 884.766 390.334C855.18 351.37 830.75 317.144 815.127 284.133C799.468 251.264 796.077 217.579 788.124 188.711C780.232 159.95 768.284 136.999 751.711 118.91C735.146 100.768 714.126 87.381 689.342 79.0684C664.549 70.7203 635.841 68.0678 602.952 69.3453C570.081 70.5695 532.904 75.8924 490.207 85.9971C447.562 96.0573 399.068 110.899 345.114 134.373C297.925 154.583 257.144 193.245 231.81 242.517C206.333 291.7 190.505 346.659 176.844 398.345C163.173 450.03 151.483 499.16 141.487 550.198C131.447 601.289 124.745 658.954 123.654 715.403C122.517 772.021 125.864 825.33 131.634 874.744C137.457 924.203 144.434 970.015 152.335 1013.38C160.475 1056.68 167.337 1098.92 184.904 1136.33C202.507 1173.72 232.493 1205.06 262.816 1231.93C293.078 1259.02 322.86 1282.25 343.312 1307.63C363.827 1332.97 373.991 1361.64 376.689 1391.83C379.53 1421.88 375.597 1453.18 373.44 1480.42C371.336 1507.58 370.706 1530.8 376.023 1545C381.27 1559.16 393.191 1564.08 412.978 1556.02Z" stroke="#264A50" stroke-width="0.2814"/>
<path fill-rule="evenodd" clip-rule="evenodd" d="M393.513 1569.9C493.615 1532.65 565.41 1477.38 625.991 1432.92C686.715 1388.61 737.982 1354.24 787.083 1340.17C836.023 1325.95 880.543 1328.97 921.821 1334.45C962.904 1339.56 1000.46 1345.89 1032.74 1340.91C1064.95 1336.07 1091.68 1319.86 1110.85 1290.44C1130.1 1261.09 1141.9 1218.36 1144.55 1170.87C1147.26 1123.21 1142.58 1069.49 1130.87 1015.79C1119.21 962.032 1103.88 908.45 1088.2 853.855C1072.56 799.384 1057.75 744.106 1032.13 674.787C1013.57 625.003 993.643 572.6 965.142 524.361C936.578 476.121 902.678 432.807 873.448 394.748C844.174 356.556 819.695 322.934 803.597 290.591C787.464 258.363 783.131 225.541 775.158 196.819C767.238 168.177 755.243 145.411 738.719 127.65C722.213 109.837 701.329 96.8691 676.726 89.1916C652.104 81.4963 623.248 79.2774 590.449 81.0614C557.659 82.8099 520.607 88.7034 478.165 99.4165C435.768 110.121 387.68 125.68 334.468 149.591C287.88 170.174 249.745 209.343 225.754 257.618C201.612 305.76 186.296 359.032 172.693 409.304C159.073 459.532 146.979 507.523 136.653 558.088C126.274 608.742 119.641 666.71 118.105 722.405C116.507 778.305 120.005 830.68 125.119 879.541C130.278 928.429 136.041 973.793 142.868 1017C149.954 1060.12 155.805 1102.57 173.918 1139.99C192.067 1177.43 222.912 1208.83 253.616 1235.91C284.257 1263.16 313.975 1286.75 333.66 1312.74C353.416 1338.69 361.966 1368.39 363.12 1399.45C364.417 1430.37 359 1462.47 355.413 1490.51C351.888 1518.5 350.956 1542.22 356.141 1557.09C361.256 1571.91 373.251 1577.4 393.513 1569.9Z" stroke="#264A50" stroke-width="0.2846"/>
<path fill-rule="evenodd" clip-rule="evenodd" d="M375.584 1583.75C478.744 1549.1 553.585 1493.88 616.1 1448.82C678.758 1403.86 730.537 1367.82 779.999 1352.51C829.301 1337.08 873.825 1339.46 915.126 1344.52C956.214 1349.29 993.821 1355.57 1026.27 1350.68C1058.65 1345.91 1085.7 1329.76 1105.27 1300.13C1124.9 1270.52 1137.31 1227.18 1140.46 1178.14C1143.67 1128.92 1139.34 1073.78 1127.51 1018.87C1115.74 963.977 1099.67 909.541 1082.74 854.431C1065.86 799.471 1049.1 743.927 1022.1 675.387C1002.61 626.291 982.579 574.951 954.642 527.718C926.617 480.44 893.37 438.103 864.448 400.804C835.481 363.381 810.963 330.429 794.42 298.78C777.85 267.247 772.442 235.368 764.485 206.841C756.591 178.368 744.585 155.829 728.13 138.382C711.694 120.934 690.959 108.365 666.539 101.358C642.083 94.324 612.992 92.4701 580.322 94.7409C547.635 96.9939 510.73 103.46 468.576 114.778C426.467 126.097 378.799 142.338 326.362 166.589C280.39 187.46 245.074 226.923 222.27 274.068C199.324 321.071 184.424 372.571 170.775 421.436C157.127 470.248 144.579 517.091 133.896 567.199C123.152 617.377 116.554 675.512 114.511 730.391C112.353 785.421 116.287 836.832 120.665 885.086C125.043 933.348 129.51 978.249 135.22 1021.22C141.196 1064.13 146.195 1106.68 164.968 1144.11C183.776 1181.57 215.539 1213.03 246.637 1240.26C277.682 1267.69 307.297 1291.52 326.185 1318.15C345.144 1344.71 352.034 1375.32 351.661 1407.2C351.439 1438.91 344.593 1471.68 339.638 1500.46C334.745 1529.17 332.738 1553.64 337.818 1569.1C342.808 1584.52 354.867 1590.69 375.584 1583.75Z" stroke="#264A50" stroke-width="0.2878"/>
<path fill-rule="evenodd" clip-rule="evenodd" d="M353.061 1599.49C459.201 1567.67 537.178 1512.71 601.767 1467.11C666.524 1421.63 719.003 1383.86 768.897 1367.23C818.649 1350.52 863.194 1352.1 904.541 1356.78C945.666 1361.09 983.3 1367.39 1015.93 1362.54C1048.49 1357.83 1075.87 1341.8 1095.84 1311.94C1115.84 1282.21 1128.26 1239.06 1132.33 1188.07C1136.46 1137.03 1132.13 1080.49 1120.3 1024.34C1108.51 968.161 1091.8 912.889 1073.72 857.298C1055.72 801.849 1037.12 746.115 1008.8 678.333C988.426 629.95 968.17 579.572 940.7 533.282C913.141 486.956 880.492 445.48 851.831 408.942C823.144 372.271 798.588 339.989 781.61 308.993C764.615 278.112 757.969 247.328 750.089 218.956C742.28 190.611 730.286 168.286 713.921 151.183C697.601 134.027 677.398 122.022 652.46 115.621C627.531 109.193 599.084 107.597 566.505 110.407C533.935 113.165 497.181 120.178 455.319 132.112C413.501 144.019 366.272 160.954 314.619 185.433C269.283 206.517 236.847 246.06 215.107 292.058C193.225 337.879 178.61 387.663 164.84 435.177C151.078 482.602 138 528.396 126.957 578.145C115.852 628.035 108.549 686.357 106.781 740.024C104.933 793.913 108.505 844.832 111.97 892.417C115.47 940.038 118.535 984.395 123.11 1027.22C127.943 1069.93 132.279 1112.61 151.824 1150.08C171.405 1187.54 204.161 1219.15 235.683 1246.51C267.151 1274.09 296.664 1298.24 314.708 1325.48C332.823 1352.64 338.029 1384.21 336.172 1416.8C334.484 1449.26 326.24 1482.66 319.976 1512.1C313.766 1541.5 309.919 1566.82 314.903 1582.9C319.799 1598.94 331.917 1605.85 353.061 1599.49Z" stroke="#264A50" stroke-width="0.2911"/>
<path fill-rule="evenodd" clip-rule="evenodd" d="M333.382 1613.29C442.221 1584.58 523.248 1529.99 589.949 1483.82C656.818 1437.82 710.132 1398.3 760.473 1380.25C810.68 1362.16 855.215 1362.88 896.554 1367.11C937.672 1370.96 975.274 1377.18 1008.04 1372.4C1040.72 1367.73 1068.37 1351.77 1088.71 1321.72C1109.07 1291.77 1121.95 1248.09 1126.32 1196.15C1130.78 1144.12 1127.02 1085.21 1115.3 1027.68C1103.63 970.089 1086.4 913.895 1067.3 857.72C1048.28 801.712 1028.03 745.767 998.478 678.612C977.307 630.797 956.766 581.358 929.727 535.843C902.599 490.318 870.545 449.648 842.166 413.79C813.778 377.807 789.225 346.084 771.853 315.737C754.481 285.444 746.412 255.833 738.68 227.555C731.019 199.32 719.098 177.148 702.853 160.364C686.653 143.526 666.316 132.147 641.523 126.165C616.739 120.183 588.431 119.038 556.022 122.322C523.621 125.588 487.102 133.177 445.612 145.71C404.166 158.216 357.465 175.79 306.672 200.51C262.048 221.759 232.604 261.257 211.823 306.125C190.909 350.815 176.475 398.993 162.539 445.264C148.593 491.472 134.985 536.357 123.578 585.859C112.136 635.564 104.484 693.737 102.922 746.513C101.298 799.6 104.334 849.811 106.801 896.854C109.305 943.914 110.893 987.796 114.293 1030.52C117.959 1073.14 121.839 1115.96 142.246 1153.55C162.672 1191.15 196.448 1222.89 228.352 1250.45C260.21 1278.26 289.566 1302.76 306.681 1330.65C323.884 1358.49 327.355 1391 324.079 1424.3C320.963 1457.47 311.403 1491.48 303.893 1521.6C296.437 1551.67 291.217 1577.76 295.185 1594.65C299.1 1611.48 311.874 1619 333.382 1613.29Z" stroke="#264A50" stroke-width="0.2943"/>
<path fill-rule="evenodd" clip-rule="evenodd" d="M309.767 1627.09C421.378 1601.73 505.645 1547.85 574.713 1501.26C643.922 1454.87 698.172 1414.41 749.355 1394.22C800.369 1373.92 844.867 1374.4 886.325 1378.14C927.535 1381.49 965.18 1387.6 998.14 1382.84C1031.01 1378.18 1058.99 1362.35 1079.73 1332.15C1100.51 1302.06 1113.87 1257.91 1118.59 1205.12C1123.39 1152.25 1118.93 1091.47 1108.35 1032.37C1097.84 973.265 1079.31 916.233 1059.23 859.531C1039.27 803.041 1017.45 746.995 986.682 680.528C964.726 633.359 943.793 584.804 917.064 540.112C890.245 495.427 858.654 455.546 830.485 420.377C802.298 385.084 777.702 353.99 759.915 324.281C742.093 294.624 731.017 266.06 724.661 238.152C718.306 210.245 705.514 188.107 689.434 171.588C673.345 155.069 652.767 144.302 628.091 138.718C603.424 133.135 575.193 132.443 542.926 136.233C510.65 140.014 474.294 148.172 433.111 161.238C391.964 174.322 345.723 192.474 295.687 217.302C251.687 238.641 225.215 277.821 205.224 321.511C185.09 364.979 170.726 411.518 156.503 456.584C142.281 501.543 128.05 545.562 116.245 594.861C104.414 644.357 96.8047 702.018 95.3291 753.981C93.8091 806.245 96.1914 855.723 97.5514 902.093C98.9647 948.517 98.9736 991.887 101.196 1034.46C103.667 1076.89 107.365 1119.89 128.796 1157.58C150.219 1195.29 185.135 1227.13 217.491 1254.88C249.82 1282.88 279.038 1307.7 295.216 1336.25C311.483 1364.74 313.252 1398.09 308.567 1432.05C304.069 1465.85 293.234 1500.41 284.523 1531.11C275.865 1561.73 269.5 1588.49 272.327 1606.16C275.082 1623.81 287.883 1632.08 309.767 1627.09Z" stroke="#264A50" stroke-width="0.2975"/>
<path fill-rule="evenodd" clip-rule="evenodd" d="M289.102 1637.02C403.08 1615.31 490.374 1562.41 561.768 1515.59C633.285 1469.03 688.991 1427.31 740.549 1405.42C791.946 1383.31 836.779 1382.9 878.263 1386.07C919.489 1388.83 957.1 1394.8 990.172 1390.05C1023.15 1385.42 1051.37 1369.74 1072.49 1339.41C1093.62 1309.23 1107.46 1264.73 1112.54 1211.17C1117.71 1157.55 1113.77 1095.15 1103 1034.68C1092.3 974.13 1074 916.115 1053.14 858.986C1032.38 802.044 1009.16 745.988 977.318 680.293C954.684 633.806 933.365 586.175 906.929 542.268C880.413 498.371 849.295 459.333 821.367 424.863C793.421 390.277 768.823 359.833 750.684 330.789C732.509 301.773 720.721 273.971 713.402 246.808C706.082 219.689 694.738 197.199 678.811 181.015C662.893 164.795 642.08 154.597 617.598 149.444C593.116 144.256 565.054 144.017 532.995 148.283C500.945 152.548 464.827 161.23 424.062 174.852C383.316 188.535 336.599 206.653 288.56 232.016C246.294 253.947 221.812 291.991 202.509 334.381C183.082 376.549 168.709 421.484 154.159 465.355C139.608 509.128 124.765 552.272 112.577 601.366C100.372 650.691 93.1854 707.58 91.6841 758.66C90.1473 810.06 91.7551 858.685 91.8883 904.364C92.1104 950.035 90.4493 992.869 91.4886 1035.29C92.7589 1077.56 96.5608 1120.67 119.062 1158.44C141.554 1196.22 177.557 1228.17 210.309 1256.08C243.034 1284.27 272.019 1309.41 287.156 1338.59C302.382 1367.68 302.444 1401.83 296.43 1436.36C290.603 1470.7 278.593 1505.7 268.768 1536.9C258.997 1568.04 251.562 1595.31 253.294 1613.68C254.964 1632.09 266.921 1641.31 289.102 1637.02Z" stroke="#264A50" stroke-width="0.3008"/>
<path fill-rule="evenodd" clip-rule="evenodd" d="M268.153 1652.63C372.69 1636.53 456.137 1592.73 525.674 1550.17C595.256 1507.8 650.44 1466.51 699.598 1439.02C748.702 1411.46 792.249 1400.87 831.856 1399.44C871.293 1397.68 907.34 1403.36 940.334 1404.65C973.229 1405.89 1002.94 1402.33 1028.05 1387.4C1053.13 1372.56 1073.51 1346.41 1087.45 1309.35C1101.42 1272.34 1108.83 1224.71 1109.06 1171.72C1109.37 1118.65 1102.59 1060.52 1090.3 1005.6C1078.06 950.577 1060.71 898.174 1040.63 846.375C1020.6 794.682 997.95 743.521 968.436 684.995C945.18 639.097 923.477 592.258 897.283 549.067C871 505.866 840.315 467.547 812.594 433.709C784.864 399.756 760.268 369.894 741.778 341.478C723.253 313.072 710.8 285.898 702.545 259.488C694.29 233.096 684.179 210.342 668.442 194.457C652.713 178.572 631.685 168.873 607.417 164.08C583.14 159.27 555.259 159.43 523.437 164.231C491.616 168.952 455.791 178.244 415.456 192.354C375.14 206.597 327.722 225.162 282.178 250.534C242.065 272.596 218.889 309.824 200.169 350.956C181.333 391.831 166.856 435.324 151.917 478.134C136.987 520.793 121.471 563.186 108.911 612.305C96.3242 661.567 89.8889 717.502 88.2556 767.881C86.5869 818.483 87.2969 866.386 86.1075 911.397C85.0246 956.425 81.6338 998.72 81.4918 1041.07C81.5628 1083.25 85.7702 1126.49 109.47 1164.49C133.108 1202.47 170.247 1234.56 203.382 1262.69C236.5 1291.11 265.197 1316.6 279.231 1346.48C293.344 1376.27 291.729 1411.22 284.45 1446.29C277.358 1481.18 264.23 1516.68 253.365 1548.34C242.554 1579.96 234.13 1607.75 234.813 1626.84C235.426 1645.89 245.722 1656.12 268.153 1652.63Z" stroke="#264A50" stroke-width="0.304"/>
<path fill-rule="evenodd" clip-rule="evenodd" d="M244.425 1662.5C347.218 1651.19 436.767 1608.1 508.542 1565.65C580.45 1523.52 637.524 1481.42 687.674 1452.7C737.797 1423.91 781.732 1411.43 821.53 1409.08C861.151 1406.44 897.203 1411.61 930.245 1412.7C963.19 1413.74 992.992 1410.2 1018.33 1395.31C1043.63 1380.54 1064.35 1354.35 1078.69 1317.05C1093.05 1279.82 1100.9 1231.6 1101.41 1177.84C1102.01 1123.93 1095.1 1064.68 1082.92 1008.42C1070.79 952.095 1053.35 898.858 1032.65 846.713C1012.01 794.683 988.313 743.575 957.961 685.671C934.142 640.402 912.046 594.397 885.99 551.87C859.855 509.316 829.529 471.784 801.964 438.573C774.399 405.273 749.764 376.046 730.925 348.221C712.052 320.467 698.939 293.964 689.787 268.286C680.652 242.679 672.085 219.575 655.892 204.18C639.744 188.795 619.245 179.301 595.169 174.936C571.102 170.499 543.395 171.156 511.8 176.355C480.205 181.546 444.65 191.333 404.736 205.946C364.832 220.728 317.079 239.618 273.827 264.879C235.716 286.901 213.673 323.236 195.403 363.057C177.035 402.683 162.325 444.704 146.931 486.433C131.546 528.029 115.327 569.731 102.366 618.833C89.369 668.041 83.998 722.813 82.1337 772.403C80.1984 822.215 79.8878 869.267 77.2778 913.534C74.8009 957.862 69.5809 999.555 68.2936 1041.83C67.1662 1083.94 72.1643 1127.33 97.1547 1165.5C122.056 1203.64 160.372 1235.86 193.903 1264.21C227.424 1292.84 255.806 1318.7 268.661 1349.28C281.604 1379.75 278.373 1415.38 269.868 1450.94C261.559 1486.29 247.381 1522.23 235.538 1554.27C223.758 1586.31 214.41 1614.54 214.099 1634.24C213.753 1653.91 222.559 1664.99 244.425 1662.5Z" stroke="#264A50" stroke-width="0.3072"/>
<path fill-rule="evenodd" clip-rule="evenodd" d="M220.897 1672.24C319.807 1665.61 416.586 1623.91 490.582 1581.76C564.853 1540.02 623.954 1497.17 675.248 1467.23C726.532 1437.26 770.978 1422.76 811 1419.39C850.863 1415.76 886.942 1420.43 920.054 1421.25C953.068 1422 982.965 1418.51 1008.52 1403.63C1034.04 1388.87 1055.1 1362.72 1069.84 1325.18C1084.6 1287.71 1092.91 1239.01 1093.74 1184.43C1094.66 1129.76 1087.95 1069.39 1075.54 1011.85C1063.16 954.178 1045.96 900.244 1024.74 847.641C1003.56 795.18 978.933 744.192 947.819 686.841C923.482 642.146 901.037 596.945 875.066 555.027C849.015 513.074 818.976 476.234 791.54 443.644C764.094 410.975 739.42 382.299 720.235 355.106C701.014 327.93 687.265 302.112 677.237 277.182C667.218 252.314 658.914 229.318 643.015 214.195C627.143 199.081 606.892 189.922 583.017 185.883C559.151 181.819 531.643 182.866 500.281 188.537C468.918 194.199 433.648 204.503 394.167 219.547C354.687 234.848 306.946 254.036 265.831 279.019C226.537 302.725 204.963 342.13 186.16 384.491C167.241 426.56 150.951 470.394 133.631 515.018C116.347 559.713 96.8865 608.065 86.8321 663.624C76.7688 719.262 75.7562 773.853 73.6866 824.991C71.5816 876.157 67.558 923.506 61.8469 969.133C56.6065 1014.73 47.4848 1060.83 57.1395 1106.38C66.7854 1151.91 101.985 1193.67 140.391 1228.14C178.645 1263.09 218.241 1291.37 241.272 1322.44C264.41 1353.47 267.812 1390.37 260.999 1429.06C254.427 1467.5 238.652 1507.44 224.201 1543.88C209.839 1580.25 196.951 1613.01 194.065 1636.47C191.116 1659.91 198.301 1673.91 220.897 1672.24Z" stroke="#264A50" stroke-width="0.3105"/>
<path fill-rule="evenodd" clip-rule="evenodd" d="M199.237 1683.79C294.051 1681.52 396.754 1642.11 472.916 1600.44C549.442 1559.34 610.59 1515.81 663.068 1484.75C715.574 1453.61 760.554 1437.02 800.795 1432.57C840.886 1427.94 876.949 1431.96 910.083 1432.49C943.11 1432.95 973.058 1429.43 998.792 1414.59C1024.48 1399.84 1045.84 1373.73 1060.97 1336.02C1076.11 1298.37 1084.87 1249.31 1086.05 1194.02C1087.31 1138.66 1080.75 1077.28 1068.28 1018.56C1055.85 959.749 1038.3 904.861 1016.9 852.058C995.562 799.361 969.997 748.367 938.247 691.652C913.499 647.586 890.8 603.2 864.889 561.84C838.908 520.505 809.146 484.36 781.833 452.383C754.52 420.327 729.816 392.28 710.32 365.706C690.79 339.202 676.441 313.984 665.58 289.849C654.727 265.767 646.581 242.989 630.99 228.096C615.435 213.239 595.443 204.404 571.83 200.696C548.226 197.015 520.958 198.417 489.892 204.546C458.834 210.657 423.908 221.443 384.935 236.859C345.962 252.542 298.63 272.003 259.551 296.573C222.166 319.981 201.482 358.21 182.856 399.137C164.098 439.815 147.291 482.16 129.322 525.916C111.389 569.823 91.1479 618.776 81.7774 673.158C72.4157 727.753 71.129 781.426 68.0144 831.621C64.8732 881.835 58.9722 928.207 51.4297 973.205C44.4107 1018.18 33.2122 1064.28 44.0913 1110C54.9969 1155.67 92.053 1197.7 131.416 1232.35C170.655 1267.48 210.436 1295.99 232.62 1327.63C254.919 1359.24 256.348 1397 248.246 1436.18C240.393 1475.09 223.604 1515.37 208.253 1552.12C192.99 1588.79 179.307 1621.94 175.509 1645.88C171.631 1669.79 177.772 1684.45 199.237 1683.79Z" stroke="#264A50" stroke-width="0.3137"/>
<path fill-rule="evenodd" clip-rule="evenodd" d="M176.794 1695.19C267.644 1697.02 375.222 1660.52 453.686 1619.48C532.55 1579.11 595.937 1534.93 649.797 1502.74C703.711 1470.56 749.437 1451.62 790.006 1446.05C830.432 1440.27 866.569 1443.66 899.786 1443.83C932.896 1443.91 962.933 1440.38 988.878 1425.49C1014.77 1410.74 1036.46 1384.68 1051.99 1346.73C1067.53 1308.88 1076.77 1259.37 1078.32 1203.34C1079.95 1147.23 1073.65 1084.86 1061.07 1024.89C1048.55 964.818 1030.51 908.85 1008.83 855.758C987.191 802.782 961.309 751.947 928.82 695.667C903.577 652.113 880.758 608.389 854.814 567.543C828.807 526.706 799.222 491.134 771.964 459.744C744.705 428.266 719.924 400.73 700.088 374.748C680.226 348.82 665.273 324.25 653.597 300.817C641.93 277.436 633.824 254.944 618.507 240.275C603.227 225.633 583.498 217.019 560.119 213.69C536.75 210.289 509.695 212.171 478.903 218.689C448.11 225.206 413.491 236.484 374.992 252.28C336.483 268.379 289.789 287.906 252.523 312.058C216.856 335.154 196.887 372.138 178.286 411.768C159.578 451.122 142.122 492.155 123.422 535.15C104.768 578.35 84.2482 627.871 75.4136 681.238C66.6056 734.907 64.9008 787.767 60.5945 837.049C56.2882 886.393 48.3681 931.768 38.9208 976.211C30.0507 1020.63 17.034 1066.86 29.3226 1112.87C41.6555 1158.84 80.7054 1201.23 121.078 1236.1C161.345 1271.48 201.318 1300.29 222.619 1332.57C244.044 1364.78 243.476 1403.52 234.126 1443.16C225.043 1482.59 207.285 1523.19 191.098 1560.28C175.001 1597.31 160.59 1630.8 155.946 1655.22C151.249 1679.65 156.399 1694.94 176.794 1695.19Z" stroke="#264A50" stroke-width="0.3169"/>
<path fill-rule="evenodd" clip-rule="evenodd" d="M157.054 1704.15C243.954 1709.78 355.157 1676.96 435.902 1636.84C517.045 1597.48 582.742 1552.87 638.082 1519.7C693.519 1486.55 740.1 1465.38 781.049 1458.56C821.866 1451.58 858.089 1454.24 891.4 1453.99C924.595 1453.66 954.707 1450.03 980.849 1435.17C1006.93 1420.42 1028.93 1394.41 1044.86 1356.41C1060.79 1318.47 1070.52 1268.7 1072.47 1212.11C1074.49 1155.47 1068.49 1092.28 1055.85 1031.27C1043.29 970.14 1024.81 913.184 1002.87 859.962C980.973 806.863 955 756.452 922.152 700.809C896.721 657.819 873.172 614.723 847.146 574.447C821.066 534.18 791.567 499.242 764.35 468.481C737.124 437.64 712.261 410.674 692.089 385.348C671.889 360.023 656.22 336.196 643.829 313.522C631.446 290.892 623.301 268.857 608.262 254.394C593.268 239.966 573.797 231.649 550.667 228.634C527.545 225.566 500.737 227.747 470.224 234.726C439.721 241.642 405.451 253.374 367.433 269.424C329.415 285.802 283.625 305.249 248.049 328.854C213.975 351.439 194.593 387.095 175.913 425.394C157.134 463.409 138.978 503.064 119.516 545.238C100.089 587.651 79.8279 637.486 71.4071 689.777C63.004 742.432 60.7389 794.289 55.125 842.511C49.5289 890.803 39.4381 935.034 28.0504 978.83C17.2668 1022.56 2.77898 1068.89 16.6449 1115.11C30.5642 1161.3 71.6291 1203.96 112.996 1239.01C154.283 1274.56 194.371 1303.6 214.677 1336.49C235.107 1369.32 232.567 1408.77 222.041 1448.79C211.799 1488.58 193.154 1529.38 176.223 1566.67C159.373 1603.89 144.343 1637.59 138.925 1662.42C133.48 1687.19 137.717 1703.09 157.054 1704.15Z" stroke="#264A50" stroke-width="0.3202"/>
<path fill-rule="evenodd" clip-rule="evenodd" d="M136.177 1712.58C219.152 1721.81 332.754 1693.06 415.729 1653.99C499.069 1615.75 567.136 1570.71 624.052 1536.52C681.101 1502.37 728.68 1478.9 770.065 1470.74C811.335 1462.46 847.665 1464.28 881.072 1463.58C914.355 1462.79 944.545 1459 970.871 1444.08C997.135 1429.3 1019.43 1403.32 1035.76 1365.12C1052.09 1327.04 1062.3 1276.88 1064.67 1219.66C1067.12 1162.38 1061.43 1098.28 1048.81 1036.13C1036.25 973.845 1017.37 915.717 995.224 862.223C973.11 808.872 947.104 758.823 914.017 703.696C885.248 655.983 858.389 607.515 828.296 564.081C798.097 520.629 764.619 484.12 735.281 452.113C705.917 420.034 680.701 392.005 661.057 365.44C641.368 338.92 627.117 313.705 615.087 291.002C603.084 268.282 586.345 252.931 563.822 245.215C541.343 237.455 513.969 236.816 482.063 242.374C450.149 247.879 413.597 259.607 372.407 276.823C331.208 294.5 280.626 315.88 242.324 341.708C209.699 363.815 190.765 398.22 171.938 435.288C153.005 472.054 134.071 510.534 113.796 552.041C93.5564 593.788 74.0454 643.952 65.9069 695.377C57.7773 747.157 54.8275 798.12 47.7463 845.381C40.7184 892.704 28.3418 935.862 14.9701 979.128C2.2204 1022.28 -13.3547 1068.85 2.23813 1115.52C17.8754 1162.16 61.0202 1205.2 103.33 1240.5C145.595 1276.37 185.728 1305.72 204.919 1339.33C224.243 1372.85 219.765 1413.12 208.135 1453.56C196.789 1493.77 177.349 1534.85 159.775 1572.41C142.272 1609.92 126.706 1643.89 120.611 1669.09C114.48 1694.31 117.848 1710.77 136.177 1712.58Z" stroke="#264A50" stroke-width="0.3234"/>
<path fill-rule="evenodd" clip-rule="evenodd" d="M116.108 1720.51C195.258 1733.06 310.012 1708.86 395.134 1671.14C480.557 1634.31 551.036 1588.96 609.617 1553.88C668.366 1518.86 717.085 1493.1 758.961 1483.53C800.74 1473.82 837.214 1474.81 870.73 1473.57C904.121 1472.2 934.375 1468.25 960.88 1453.29C987.323 1438.44 1009.89 1412.48 1026.61 1374.21C1043.32 1336.02 1054.03 1285.63 1056.83 1227.87C1059.72 1170.06 1054.42 1105.19 1041.83 1042.03C1029.32 978.766 1010.1 919.433 987.776 865.791C965.492 812.247 939.511 762.654 906.289 708.177C877.492 661.151 850 613.352 819.941 570.374C789.784 527.397 756.251 491.425 726.707 459.974C697.128 428.504 671.565 401.093 651.413 375.2C631.217 349.36 616.307 324.959 603.566 303.053C590.86 281.182 575.159 265.465 552.937 258.033C530.768 250.556 503.695 250.272 472.143 256.213C440.573 262.091 404.419 274.292 363.777 291.794C323.145 309.713 273.902 330.873 237.17 355.958C205.858 377.42 187.261 410.585 168.185 446.423C148.992 481.915 129.222 519.236 108.111 560.092C86.9992 601.16 68.731 651.534 60.7608 702.024C52.7729 752.886 48.9789 802.888 40.2979 849.044C31.7147 895.289 16.9117 937.334 1.54011 979.983C-13.2273 1022.51 -29.4341 1069.4 -11.9656 1116.49C5.52964 1163.53 50.7471 1206.92 93.9832 1242.5C137.193 1278.66 177.265 1308.32 195.24 1342.64C213.34 1376.87 206.996 1417.8 194.334 1458.61C181.957 1499.15 161.814 1540.45 143.688 1578.18C125.633 1615.89 109.612 1650.01 102.922 1675.55C96.1778 1701.05 98.7723 1717.95 116.108 1720.51Z" stroke="#264A50" stroke-width="0.3266"/>
<path fill-rule="evenodd" clip-rule="evenodd" d="M96.8806 1726.02C172.34 1741.6 287.012 1722.4 374.162 1686.29C461.526 1651.08 534.453 1605.64 594.756 1569.83C655.273 1534.05 705.271 1506.17 747.718 1495.05C790.085 1483.84 826.713 1483.88 860.356 1482.04C893.866 1480.06 924.195 1475.91 950.855 1460.87C977.454 1445.94 1000.29 1420.07 1017.4 1381.76C1034.49 1343.53 1045.68 1293 1048.95 1234.83C1052.3 1176.6 1047.4 1111.11 1034.92 1047.11C1022.52 982.939 1002.97 922.492 980.518 868.786C958.096 815.16 932.19 766.057 898.938 712.36C870.217 666.114 842.144 619.051 812.108 576.574C782.001 534.062 748.393 498.601 718.632 467.77C688.845 436.859 662.913 410.117 642.267 384.91C621.577 359.791 606.021 336.144 592.598 315.043C579.21 293.978 564.338 278.101 542.431 270.908C520.577 263.697 493.827 263.75 462.636 270.039C431.436 276.301 395.706 288.878 355.64 306.573C315.591 324.747 267.894 345.413 232.572 369.645C202.456 390.436 184.084 422.295 164.646 456.887C145.111 491.186 124.447 527.286 102.451 567.483C80.4189 607.831 63.8417 658.211 55.9262 707.792C47.9218 757.649 43.1513 806.592 32.7483 851.552C22.4697 896.637 5.11079 937.411 -12.2482 979.453C-29.0386 1021.34 -45.4382 1068.56 -25.956 1116.06C-6.47379 1163.54 40.8326 1207.21 84.9141 1243.03C129.005 1279.44 168.937 1309.4 185.55 1344.44C202.296 1379.38 194.194 1420.9 180.566 1461.93C167.24 1502.73 146.488 1544.09 127.894 1581.96C109.371 1619.75 93.025 1653.96 85.8114 1679.78C78.5977 1705.55 80.4988 1722.8 96.8806 1726.02Z" stroke="#264A50" stroke-width="0.3299"/>
<path fill-rule="evenodd" clip-rule="evenodd" d="M78.4252 1736.7C150.334 1755.08 263.77 1741.05 352.792 1706.78C441.957 1673.33 517.311 1627.84 579.407 1591.29C641.76 1554.77 693.162 1524.75 736.27 1511.99C779.307 1499.14 816.136 1498.14 849.928 1495.64C883.578 1493.02 913.969 1488.54 940.798 1473.35C967.556 1458.26 990.655 1432.45 1008.12 1393.97C1025.58 1355.65 1037.27 1304.82 1041.02 1246.16C1044.84 1187.48 1040.4 1121.23 1028.05 1056.25C1015.81 991.103 995.975 929.385 973.417 875.431C950.895 821.548 925.114 772.896 891.926 719.848C863.356 674.323 834.804 627.964 804.787 585.788C774.716 543.577 741.03 508.516 711.048 478.164C681.049 447.713 654.743 421.5 633.616 396.921C612.435 372.378 596.263 349.442 582.186 329.074C568.146 308.706 553.883 292.743 532.293 285.77C510.766 278.762 484.354 279.144 453.546 285.788C422.729 292.379 387.437 305.375 347.979 323.265C308.53 341.563 262.535 361.701 228.486 385.134C199.437 405.209 181.16 435.917 161.302 469.387C141.338 502.574 119.73 537.643 96.8176 577.323C73.8071 617.038 59.3845 667.492 51.3828 716.321C43.239 765.328 37.3332 813.207 25.0687 857.079C12.964 901.058 -7.05363 940.622 -26.414 982.194C-45.2416 1023.54 -61.325 1071.34 -39.6999 1119.45C-18.137 1167.5 31.2409 1211.63 76.1339 1247.79C121.054 1284.54 160.725 1314.96 175.849 1350.82C191.089 1386.58 181.373 1428.69 166.87 1470.05C152.652 1511.18 131.4 1552.77 112.43 1590.77C93.5316 1628.7 76.951 1663.12 69.3134 1689.17C61.6758 1715.21 62.928 1732.89 78.4252 1736.7Z" stroke="#264A50" stroke-width="0.3331"/>
<path fill-rule="evenodd" clip-rule="evenodd" d="M58.8645 1742.96C127.416 1763.9 238.495 1755.22 329.202 1723.15C419.962 1691.75 497.755 1646.56 561.691 1609.41C625.849 1572.31 677.323 1542.59 722.441 1526.35C767.4 1509.98 803.553 1509.26 837.549 1506.05C871.368 1502.67 901.832 1497.83 928.816 1482.54C955.729 1467.33 979.064 1441.55 996.906 1403.06C1014.73 1364.72 1026.91 1313.82 1031.13 1254.87C1035.44 1195.87 1031.48 1129.12 1019.34 1063.44C1007.31 997.542 987.231 934.705 964.596 880.662C941.997 826.68 916.406 778.643 883.369 726.374C855.027 681.664 826.099 636.253 796.106 594.463C766.077 552.619 732.303 518.077 702.105 488.194C671.873 458.275 645.217 432.642 623.603 408.694C601.945 384.836 585.169 362.601 570.469 342.965C555.806 323.392 541.932 307.394 520.682 300.669C499.485 293.899 473.416 294.511 443.014 301.494C412.604 308.397 377.773 321.724 338.913 339.673C300.079 358.013 255.919 377.383 222.979 399.919C194.868 419.217 176.582 448.648 156.22 480.981C135.751 512.967 113.143 547.011 89.2748 586.096C65.2289 625.074 53.379 675.409 45.1861 723.366C36.7625 771.376 29.5815 818.038 15.3173 860.627C1.25716 903.349 -21.5461 941.564 -42.8582 982.565C-63.7087 1023.33 -78.9493 1071.72 -55.0631 1120.32C-31.31 1168.9 20.1105 1213.34 65.7349 1249.78C111.395 1286.85 150.708 1317.63 164.182 1354.27C177.763 1390.79 166.605 1433.29 151.311 1474.82C136.293 1516.15 114.608 1557.75 95.3818 1595.82C76.2178 1633.86 59.477 1668.23 51.506 1694.47C43.4996 1720.65 44.2097 1738.62 58.8645 1742.96Z" stroke="#264A50" stroke-width="0.3363"/>
<path fill-rule="evenodd" clip-rule="evenodd" d="M40.3471 1748.52C105.873 1771.79 213.71 1768.66 306.042 1738.92C398.338 1709.81 478.649 1664.92 544.584 1627.31C610.75 1589.71 663.766 1558.68 709.737 1540.64C755.548 1522.45 792.42 1520.09 826.671 1516.03C860.745 1511.85 891.327 1506.6 918.524 1491.11C945.64 1475.69 969.239 1449.9 987.471 1411.37C1005.68 1373.01 1018.35 1322 1023.1 1262.7C1027.91 1203.41 1024.45 1136.11 1012.53 1069.71C1000.75 1003.09 980.434 939 957.724 884.819C935.041 830.666 909.63 783.158 876.773 731.684C848.688 687.779 819.457 643.333 789.443 601.832C759.412 560.252 725.49 526.09 695.015 496.675C664.504 467.198 637.431 442.069 615.308 418.75C593.14 395.457 575.761 373.904 560.435 354.977C545.144 336.068 531.47 320.229 510.501 313.699C489.604 307.124 463.847 308.011 433.816 315.252C403.767 322.421 369.373 336.059 331.062 354.046C292.794 372.396 250.493 390.843 218.481 412.485C191.133 431.013 172.706 459.283 151.728 490.499C130.716 521.52 105.269 552.71 82.1596 593.199C58.9521 633.554 48.0592 681.639 39.4409 728.685C30.5826 775.705 21.9642 821.189 5.53603 862.476C-10.6345 903.915 -36.3653 940.774 -59.626 981.334C-82.5046 1021.62 -96.3651 1070.76 -70.1013 1119.98C-44.024 1169.15 9.48092 1213.99 55.8335 1250.8C102.231 1288.19 141.12 1319.45 152.812 1356.96C164.576 1394.37 152.199 1437.16 136.162 1478.9C120.382 1520.44 98.3478 1562.13 78.9165 1600.23C59.5563 1638.28 42.7283 1672.73 34.4831 1699.12C26.229 1725.45 26.4511 1743.69 40.3471 1748.52Z" stroke="#264A50" stroke-width="0.3396"/>
<path fill-rule="evenodd" clip-rule="evenodd" d="M24.3483 1753.4C86.9592 1778.77 190.382 1781.14 283.934 1754.06C377.38 1727.47 459.997 1683.2 527.836 1645.14C595.932 1607.14 650.484 1574.91 697.322 1555.11C744.018 1535.22 781.599 1530.89 816.073 1525.94C850.37 1520.85 881.036 1515.17 908.392 1499.41C935.65 1483.76 959.482 1457.94 978.05 1419.37C996.592 1380.89 1009.76 1329.87 1015.01 1270.32C1020.33 1210.77 1017.4 1143.04 1005.79 1075.98C994.32 1008.64 973.861 943.426 951.121 889.083C928.416 834.775 903.271 787.787 870.74 737.152C843.029 694.085 813.677 650.726 783.703 609.451C753.738 568.088 719.734 534.293 689.023 505.298C658.286 476.25 630.859 451.593 608.27 428.871C585.636 406.185 567.698 385.255 551.801 366.995C535.931 348.771 522.288 333.174 501.652 326.785C481.086 320.362 455.701 321.515 426.109 328.986C396.499 336.394 362.601 350.288 324.923 368.237C287.289 386.47 247.019 403.922 215.829 424.639C189.174 442.348 170.553 469.436 148.913 499.646C127.265 529.733 99.6872 560.839 77.2843 600.33C54.8193 639.848 44.7985 687.591 35.6296 733.629C26.2122 779.668 16.0048 823.844 -2.67904 863.77C-21.0611 903.873 -49.7836 939.363 -74.8759 979.502C-99.6841 1019.33 -111.578 1069.41 -82.8998 1119.25C-54.4879 1169.04 0.97787 1214.35 47.8695 1251.49C94.8321 1289.3 133.096 1321 142.807 1359.42C152.57 1397.73 139.247 1440.71 122.587 1482.62C106.167 1524.33 83.9058 1566.09 64.4054 1604.2C44.9671 1642.26 28.2004 1676.73 19.786 1703.22C11.3627 1729.67 11.203 1748.12 24.3483 1753.4Z" stroke="#264A50" stroke-width="0.3428"/>
<path fill-rule="evenodd" clip-rule="evenodd" d="M9.39953 1759.42C69.4522 1786.72 167.723 1794.61 262.379 1770.35C356.867 1746.49 441.826 1702.92 511.691 1664.55C581.822 1626.26 638.092 1592.78 685.98 1571.34C733.743 1549.74 772.156 1543.31 806.946 1537.34C841.559 1531.28 872.389 1525.02 899.933 1508.98C927.398 1493.01 951.47 1467.09 970.419 1428.46C989.333 1389.94 1002.98 1338.76 1008.76 1278.93C1014.6 1219.05 1012.23 1150.92 1000.95 1083.19C989.83 1015.15 969.229 948.682 946.444 894.139C923.704 839.561 898.814 793.11 866.626 743.239C839.312 700.971 809.921 658.756 779.97 617.625C750.037 576.396 715.886 542.903 684.905 514.26C653.898 485.563 626.06 461.414 602.991 439.165C579.877 416.97 561.346 396.675 544.883 379.036C528.447 361.432 514.621 346.165 494.296 339.921C474.024 333.624 448.992 335 419.787 342.683C390.574 350.304 357.142 364.408 320.034 382.287C282.971 400.379 244.717 416.686 214.181 436.501C188.066 453.42 169.108 479.399 146.713 508.647C124.337 537.868 94.9721 568.749 73.2171 607.456C51.4266 646.295 42.1386 693.59 32.2645 738.674C22.1151 783.669 10.1721 826.576 -10.9435 865.141C-31.704 903.918 -63.5196 937.962 -90.407 977.849C-117.108 1017.38 -126.467 1068.57 -95.2819 1119.12C-64.4253 1169.69 -6.99214 1215.4 40.4248 1253C87.9129 1291.24 125.474 1323.54 133.03 1362.94C140.595 1402.25 126.646 1445.33 109.428 1487.43C92.4237 1529.38 69.9938 1571.17 50.4854 1609.31C31.0391 1647.42 14.381 1681.93 5.88321 1708.51C-2.61455 1735.14 -3.10293 1753.76 9.39953 1759.42Z" stroke="#264A50" stroke-width="0.346"/>
</g>
</g>
<defs>
<clipPath id="clip0_1471_7890">
<rect width="1103" height="342" fill="white"/>
</clipPath>
</defs>
</svg>
