<svg width="1440" height="614" viewBox="0 0 1440 614" fill="none" xmlns="http://www.w3.org/2000/svg">
<g clip-path="url(#clip0_1135_6573)">
<mask id="mask0_1135_6573" style="mask-type:luminance" maskUnits="userSpaceOnUse" x="0" y="0" width="1440" height="614">
<path d="M1440 0H0V614H1440V0Z" fill="white"/>
</mask>
<g mask="url(#mask0_1135_6573)">
<path fill-rule="evenodd" clip-rule="evenodd" d="M659.928 1505.75C701.715 1460.45 753.387 1418.25 803.319 1394.14C853.17 1369.42 903.155 1362.7 951.034 1367.36C998.692 1371.57 1043.88 1385.53 1082.99 1395.96C1122.18 1406.71 1149.39 1421.6 1169.55 1429.08C1189.91 1437.03 1202.8 1438.3 1213.24 1432.28C1223.8 1426.43 1232.44 1413.6 1245.44 1397.98C1258.7 1382.48 1276.3 1364.72 1307.48 1349.84C1338.54 1334.57 1387.41 1326.01 1444.93 1304.46C1501.11 1283.58 1562.92 1236.51 1529.62 1111.86C1503.37 1014.89 1440.79 906.903 1383.19 817.544C1325.37 727.149 1273.33 652.84 1245.54 589.38C1217.58 526.035 1217.47 469.337 1222.76 425.748C1228.16 382.541 1237.42 349.126 1237.78 318.628C1238.36 288.21 1229.98 260.752 1209.45 234.357C1189.14 207.927 1156.87 182.88 1118.81 159.588C1080.58 136.118 1037.92 114.403 997.111 92.3695C955.573 70.7523 916.566 45.4657 870.16 31.1694C823.844 16.8643 767.411 27.1367 700.667 34.6704C639.119 40.9189 570.865 65.1242 503.26 115.316C435.699 165.136 370.5 240.163 319.21 327.181C267.503 414.51 234.766 517.137 217.021 606.654C199.116 696.589 193.147 776.464 193.041 850.329C192.908 924.195 198.769 995.924 217.038 1059.08C235.201 1122.38 263.204 1176.23 293.907 1221.61C324.575 1267.12 357.844 1304.56 386.975 1338.42C416.186 1372.25 443.843 1397.94 469.066 1415.8C494.316 1433.6 517.133 1446.05 536.787 1457.99C556.424 1469.89 572.855 1481.26 586.994 1491.95C601.142 1502.6 612.803 1512.74 624.855 1516.88C636.854 1521.06 648.569 1518.12 659.928 1505.75Z" stroke="#BCAB96" stroke-width="0.1973"/>
<path fill-rule="evenodd" clip-rule="evenodd" d="M654.692 1517.51C696.631 1472.08 747.534 1429.7 797.496 1404.75C847.396 1379.3 897.313 1371.71 945.169 1375.75C992.794 1379.3 1038.02 1392.83 1077.28 1403.01C1116.57 1413.42 1145.18 1426.48 1165.83 1433.46C1186.64 1440.81 1199.93 1441.75 1209.75 1434.86C1219.68 1428.14 1227.18 1414.21 1238.45 1397.05C1249.95 1380.02 1265.18 1360.2 1293.2 1342.9C1321.14 1325.23 1365.69 1313.61 1419.78 1290.67C1472.44 1268.29 1535.19 1223.96 1503.98 1102.62C1479.37 1008.54 1418.69 903.109 1361.93 815.511C1304.99 726.928 1252.86 653.841 1224.02 591.424C1194.97 529.105 1193.47 472.995 1198.52 429.435C1203.68 386.204 1212.58 352.667 1212.82 322.244C1213.27 291.847 1205.02 264.616 1184.88 238.601C1164.96 212.551 1133.43 188.043 1096.22 165.301C1058.81 142.391 1017.1 121.183 976.801 99.8511C935.813 78.9627 896.736 54.5885 850.044 42.7207C803.396 30.8618 747.561 41.2394 681.366 48.8409C620.235 55.2094 552.636 80.0005 486.112 130.762C419.624 181.143 355.943 256.607 306.336 343.425C256.33 430.606 227.08 532.91 210.784 620.588C194.346 708.718 188.98 786.888 189.237 859.895C189.469 932.911 196.052 1004.38 214.614 1066.98C233.077 1129.71 260.844 1183.19 290.991 1228.51C321.113 1273.94 353.544 1311.55 381.79 1345.66C410.09 1379.71 438.22 1404.69 463.792 1422.51C489.373 1440.29 512.634 1452.98 532.546 1465.34C552.44 1477.66 568.949 1489.7 582.961 1501.12C597 1512.48 608.533 1523.6 620.226 1528.12C631.848 1532.55 643.39 1529.79 654.692 1517.51Z" stroke="#BCAB96" stroke-width="0.2005"/>
<path fill-rule="evenodd" clip-rule="evenodd" d="M650.299 1531.15C692.477 1485.52 742.4 1443.06 792.332 1417.26C842.202 1391.08 891.975 1382.68 939.715 1386.09C987.234 1389.01 1032.38 1402.13 1071.73 1412.04C1111.06 1422.1 1140.92 1433.39 1162.05 1439.86C1183.29 1446.61 1196.79 1447.04 1206.4 1439.44C1216.12 1432.06 1222.24 1416.92 1231.86 1398.28C1241.73 1379.78 1254.7 1358.08 1279.63 1338.44C1304.54 1318.49 1344.88 1303.94 1395.38 1279.47C1444.34 1255.47 1507.32 1213.46 1478.24 1095.39C1455.3 1004.15 1396.65 901.226 1340.94 815.428C1285.06 728.654 1233.07 656.791 1203.35 595.412C1173.42 534.148 1170.21 478.636 1174.95 435.071C1179.76 391.852 1188.23 358.167 1188.27 327.775C1188.53 297.409 1180.34 270.354 1160.63 244.719C1141.12 219.022 1110.36 195.065 1074.06 172.848C1037.55 150.506 996.851 129.816 957.122 109.205C916.754 89.056 877.69 65.7735 830.846 56.3646C784.037 47.0623 729.012 56.9682 663.43 64.7172C602.798 71.2857 535.956 96.7073 470.639 148.048C405.447 198.927 342.935 272.085 295.504 361.771C247.897 451.581 221.76 549.903 206.704 635.959C191.63 722.298 186.786 798.794 187.363 871.02C187.904 943.282 195.232 1014.48 213.97 1076.5C232.61 1138.66 260.034 1191.85 289.533 1237.06C319.015 1282.42 350.529 1320.2 377.828 1354.55C405.155 1388.85 433.927 1413.06 459.815 1430.87C485.695 1448.66 509.366 1461.64 529.479 1474.46C549.583 1487.26 566.094 1499.93 579.926 1512.14C593.784 1524.29 605.06 1536.34 616.372 1541.18C627.657 1545.96 639.014 1543.44 650.299 1531.15Z" stroke="#BCAB96" stroke-width="0.2037"/>
<path fill-rule="evenodd" clip-rule="evenodd" d="M646.127 1544.76C688.765 1498.85 737.683 1456.34 787.655 1429.72C837.566 1402.83 887.246 1393.63 934.93 1396.44C982.376 1398.75 1027.53 1411.44 1067 1421.12C1106.41 1430.85 1137.43 1440.49 1159.1 1446.35C1180.85 1452.39 1194.62 1452.37 1204.06 1444.04C1213.6 1435.9 1218.69 1419.77 1226.8 1399.71C1235.15 1379.83 1246.02 1356.31 1268.06 1334.47C1290.12 1312.36 1326.46 1294.99 1373.38 1268.94C1418.7 1243.22 1481.28 1202.99 1454.33 1088.23C1432.95 999.78 1376.35 899.39 1321.68 815.361C1266.87 730.365 1215.07 659.758 1184.58 599.401C1153.86 539.151 1148.74 484.355 1153.09 440.751C1157.5 397.457 1165.46 363.659 1165.26 333.29C1165.28 302.939 1157.11 276.087 1137.77 250.789C1118.62 225.474 1088.58 201.98 1053.14 180.333C1017.48 158.553 977.729 138.381 938.513 118.564C898.704 99.2005 859.612 77.1097 812.637 70.208C765.68 63.4928 711.468 72.4464 646.402 80.3963C586.168 87.2535 520.011 113.341 455.832 165.286C391.732 216.743 329.823 290.654 285.428 380.429C240.821 470.312 216.797 566.633 202.936 650.866C189.083 735.383 184.649 810.289 185.518 881.811C186.352 953.387 194.404 1024.26 213.285 1085.74C232.068 1147.35 259.116 1200.21 287.964 1245.38C316.795 1290.68 347.399 1328.65 373.809 1363.19C400.21 1397.72 429.839 1421.17 456.089 1439.04C482.312 1456.9 506.407 1470.15 526.716 1483.47C547.015 1496.76 563.51 1510.15 577.141 1523.15C590.798 1536.08 601.697 1548.95 612.658 1554.19C623.575 1559.4 634.793 1557.05 646.127 1544.76Z" stroke="#BCAB96" stroke-width="0.207"/>
<path fill-rule="evenodd" clip-rule="evenodd" d="M640.254 1558.37C683.575 1512.21 731.475 1469.69 781.575 1442.31C831.604 1414.72 881.252 1404.77 928.939 1407.01C976.386 1408.69 1021.58 1421.01 1061.18 1430.44C1100.71 1439.84 1132.84 1447.92 1155.1 1453.11C1177.4 1458.45 1191.52 1457.88 1200.87 1448.84C1210.32 1440.01 1214.6 1422.92 1221.33 1401.55C1228.27 1380.34 1237.2 1355.15 1256.5 1331.27C1275.88 1307.14 1308.43 1287.11 1351.81 1259.44C1393.54 1232 1455.24 1193.2 1430.29 1081.79C1410.44 996.13 1355.81 898.424 1302.19 816.253C1248.47 733.16 1196.91 663.844 1165.72 604.605C1134.3 545.409 1127.09 491.434 1131.01 447.89C1134.97 404.594 1142.38 370.7 1141.88 340.383C1141.61 310.066 1133.4 283.425 1114.39 258.515C1095.55 233.551 1066.2 210.629 1031.54 189.536C996.68 168.328 957.804 148.744 919.045 129.764C879.735 111.281 840.566 90.419 793.492 86.1312C746.418 82.1096 692.981 89.549 628.319 97.7962C568.396 105.005 502.846 131.806 439.737 184.245C376.664 236.188 315.747 311.043 274.209 400.493C232.45 490.058 210.311 584.08 197.524 666.454C184.764 749.024 180.646 822.334 181.773 893.159C182.856 964.011 191.658 1034.47 210.63 1095.34C229.487 1156.4 256.143 1208.83 284.343 1253.9C312.561 1299.05 341.95 1338.17 367.799 1371.88C394.553 1406.79 424.005 1429.23 450.679 1447.2C477.299 1465.13 501.817 1478.69 522.306 1492.52C542.804 1506.3 559.256 1520.41 572.637 1534.25C586.072 1547.96 596.481 1561.65 607.12 1567.23C617.715 1572.82 628.834 1570.61 640.254 1558.37Z" stroke="#BCAB96" stroke-width="0.2102"/>
<path fill-rule="evenodd" clip-rule="evenodd" d="M633.911 1571.98C678.092 1525.56 724.909 1483 775.134 1454.88C825.28 1426.63 874.884 1415.91 922.553 1417.58C969.974 1418.72 1015.18 1430.59 1054.93 1439.8C1094.57 1448.91 1127.69 1455.58 1150.53 1460C1173.41 1464.55 1187.92 1463.44 1197.26 1453.7C1206.71 1444.18 1210.37 1426.17 1215.8 1403.56C1221.45 1381.12 1228.52 1354.41 1245.23 1328.54C1262.04 1302.52 1290.99 1279.96 1330.82 1250.62C1368.98 1221.47 1429.2 1183.65 1406.16 1075.52C1387.8 992.61 1335.17 897.532 1282.68 817.225C1230.11 736.014 1178.91 668.004 1147.16 609.868C1115.16 551.714 1105.77 498.679 1109.2 455.172C1112.66 411.905 1119.47 377.873 1118.64 347.621C1118.04 317.377 1109.76 290.904 1091.06 266.356C1072.51 241.728 1043.83 219.372 1009.97 198.851C975.885 178.225 937.872 159.213 899.566 141.115C860.755 123.504 821.535 104.058 774.442 102.363C727.332 101.032 674.684 106.533 610.418 115.147C550.802 122.759 485.888 150.35 423.894 203.252C361.891 255.692 302.391 331.652 263.606 420.475C224.581 509.44 204.177 601.111 192.346 681.648C180.551 762.345 176.699 834.126 178.039 904.292C179.344 974.511 188.876 1044.51 207.869 1104.75C226.738 1165.23 252.929 1217.27 280.443 1262.25C308 1307.2 334.174 1345.86 361.767 1380.37C389.378 1414.8 418.045 1437.15 445.097 1455.21C472.105 1473.25 497.018 1487.16 517.653 1501.52C538.297 1515.81 554.645 1530.75 567.745 1545.39C580.881 1559.98 590.714 1574.31 601.036 1580.27C611.305 1586.2 622.337 1584.21 633.911 1571.98Z" stroke="#BCAB96" stroke-width="0.2134"/>
<path fill-rule="evenodd" clip-rule="evenodd" d="M628.931 1583.64C674.114 1536.76 719.855 1494.14 770.21 1465.18C820.468 1436.14 870.025 1424.72 917.656 1425.83C965.039 1426.36 1010.24 1437.93 1050.11 1446.93C1089.86 1455.79 1123.82 1461.21 1147.28 1464.84C1170.74 1468.54 1185.67 1466.85 1195.09 1456.38C1204.59 1446.14 1207.83 1427.24 1212.09 1403.41C1216.53 1379.72 1221.88 1351.43 1236.12 1323.71C1250.49 1295.81 1275.98 1270.8 1312.27 1239.77C1346.91 1208.83 1405.05 1171.48 1383.86 1066.32C1366.92 985.879 1316.32 893.237 1265.02 814.598C1213.67 735.097 1162.95 668.23 1130.74 611.057C1098.27 553.848 1086.65 501.721 1089.57 458.123C1092.48 414.783 1098.66 380.568 1097.47 350.28C1096.5 320.001 1088.14 293.648 1069.71 269.428C1051.43 245.102 1023.41 223.192 990.319 203.201C957.009 183.122 919.839 164.615 881.977 147.441C843.654 130.728 804.452 112.648 757.389 113.643C711.798 115.082 658.426 118.263 594.583 127.245C535.293 135.348 471.033 163.753 410.198 217.257C349.293 270.299 291.652 347.632 255.485 435.769C219.061 524.057 200.259 613.598 189.274 692.45C178.342 771.4 174.668 841.946 176.221 911.691C177.73 981.517 187.969 1051.08 206.896 1110.89C225.707 1170.91 251.377 1222.76 278.147 1267.7C304.998 1312.63 330.091 1351.98 357.394 1386.15C384.75 1420.19 413.792 1442.55 441.219 1460.81C468.602 1479.03 493.881 1493.34 514.609 1508.29C535.346 1523.21 551.548 1538.92 564.299 1554.47C577.094 1569.97 586.242 1584.96 596.243 1591.31C606.198 1597.7 617.174 1595.9 628.931 1583.64Z" stroke="#BCAB96" stroke-width="0.2167"/>
<path fill-rule="evenodd" clip-rule="evenodd" d="M622.208 1599.16C668.648 1551.95 713.365 1509.29 763.934 1479.62C814.38 1449.96 863.955 1437.76 911.611 1438.34C959.01 1438.34 1004.27 1449.5 1044.29 1458.29C1084.19 1466.87 1118.92 1471.32 1143.04 1474.03C1167.14 1476.81 1182.56 1474.43 1192.11 1463.3C1201.75 1452.34 1204.77 1432.67 1207.95 1407.7C1211.31 1382.88 1215.05 1353.23 1226.97 1323.77C1239.03 1294.15 1261.27 1266.92 1294.12 1234.26C1325.33 1201.61 1380.95 1164.5 1361.48 1062.49C1345.88 984.654 1297.23 894.658 1247.12 817.893C1196.97 740.347 1146.72 674.772 1114.12 618.7C1081.26 562.521 1067.38 511.569 1069.75 468.036C1072.12 424.715 1077.64 390.41 1076.05 360.204C1074.68 329.963 1066.19 303.857 1048 279.961C1029.95 256.038 1002.52 234.608 970.138 215.184C937.535 195.706 901.113 177.791 863.635 161.587C825.81 145.784 785.347 131.533 739.76 132.739C694.208 134.292 641.205 137.496 577.678 147.044C518.627 155.695 454.958 184.889 395.223 238.778C335.363 292.259 279.874 370.755 246.143 457.787C212.128 544.952 194.747 632.09 184.499 709.077C174.321 786.161 170.742 855.295 172.5 924.544C174.205 993.838 185.111 1062.76 203.939 1121.95C222.652 1181.36 247.777 1232.86 273.817 1277.67C299.963 1322.49 324.049 1362.37 351.163 1396.06C378.348 1429.68 407.834 1452.07 435.668 1470.47C463.457 1488.88 489.097 1503.57 509.906 1519.12C530.723 1534.6 546.727 1551.12 559.107 1567.56C571.514 1583.99 579.907 1599.49 589.614 1606.22C599.268 1612.96 610.21 1611.38 622.208 1599.16Z" stroke="#BCAB96" stroke-width="0.2199"/>
<path fill-rule="evenodd" clip-rule="evenodd" d="M616.058 1610.83C663.838 1563.24 707.502 1520.47 758.219 1490.04C808.785 1459.6 858.277 1446.81 905.862 1446.78C953.199 1446.21 998.389 1457.06 1038.49 1465.65C1078.45 1474.01 1113.79 1477.7 1138.51 1479.42C1163.23 1481.17 1179.12 1478.16 1188.86 1466.27C1198.68 1454.59 1201.66 1434.12 1203.87 1408.05C1206.24 1382.07 1208.48 1351.13 1218.17 1320C1228.03 1288.76 1247.13 1259.4 1276.53 1225.08C1304.35 1190.74 1356.84 1153.45 1339.02 1054.39C1324.74 978.983 1278.11 891.476 1229.29 816.513C1180.47 740.752 1130.88 676.452 1098.05 621.414C1064.95 566.216 1048.86 516.457 1050.67 472.952C1052.47 429.624 1057.28 395.221 1055.29 365.031C1053.51 334.816 1044.88 308.849 1026.94 285.313C1009.13 261.715 982.323 240.744 950.679 221.883C918.805 202.978 883.178 185.67 846.132 170.465C808.865 155.49 768.705 144.72 723.302 146.139C677.979 147.772 625.311 151.169 562.21 161.345C503.509 170.562 440.586 200.601 382.072 254.947C323.398 308.885 270.499 388.629 239.121 474.406C207.442 560.388 191.368 645.136 181.769 720.436C172.25 795.736 168.737 863.7 170.671 932.568C172.57 1001.49 184.067 1069.72 202.687 1128.41C221.193 1187.32 245.686 1238.45 270.924 1283.23C296.305 1327.97 319.379 1368.27 346.312 1401.62C373.325 1434.9 403.221 1457.35 431.395 1475.99C459.526 1494.66 485.439 1509.77 506.233 1525.93C527.045 1542.07 542.755 1559.35 554.678 1576.77C566.628 1594.12 574.177 1610.13 583.572 1617.27C592.887 1624.4 603.807 1623.09 616.058 1610.83Z" stroke="#BCAB96" stroke-width="0.2231"/>
<path fill-rule="evenodd" clip-rule="evenodd" d="M608.142 1624.42C657.493 1576.4 700.226 1533.44 751.182 1502.18C801.953 1470.95 851.436 1457.43 899.013 1456.9C946.332 1455.79 991.522 1466.32 1031.74 1474.73C1071.83 1482.92 1107.66 1486.17 1133.05 1486.78C1158.44 1487.43 1174.85 1483.67 1184.84 1471.04C1194.9 1458.55 1198.02 1437.34 1199.36 1410.17C1200.83 1383.12 1201.66 1350.83 1209.29 1318.08C1217.07 1285.27 1233.22 1253.84 1259.27 1217.9C1283.85 1181.88 1332.8 1144.02 1316.5 1047.72C1303.43 974.574 1258.72 889.466 1211.17 816.166C1163.65 742.129 1114.73 678.968 1081.69 624.925C1048.4 570.661 1030.13 522.122 1031.37 478.601C1032.61 435.221 1036.72 400.657 1034.29 370.48C1032.07 340.302 1023.29 314.413 1005.55 291.187C987.93 267.917 961.688 247.345 930.701 229.029C899.492 210.66 864.566 193.906 827.892 179.763C791.076 165.753 751.28 157.904 705.992 159.582C660.837 161.358 608.408 165.007 545.662 175.91C487.245 185.809 425.004 216.733 367.66 271.468C310.13 325.91 260.052 406.881 230.83 491.35C201.297 576.05 186.367 658.548 177.31 732.265C168.35 805.929 164.828 872.854 166.948 941.52C169.042 1010.2 181.071 1077.78 199.443 1135.98C217.718 1194.45 241.546 1245.31 265.996 1290.06C290.604 1334.76 312.783 1375.45 339.609 1408.54C366.533 1441.57 396.873 1464.14 425.412 1483.07C453.906 1502 480.077 1517.6 500.835 1534.45C521.612 1551.21 537.004 1569.43 548.421 1587.8C559.856 1606.13 566.518 1622.6 575.638 1630.15C584.66 1637.79 595.58 1636.64 608.142 1624.42Z" stroke="#BCAB96" stroke-width="0.2264"/>
<path fill-rule="evenodd" clip-rule="evenodd" d="M602.2 1639.92C653.352 1591.54 695.329 1548.43 746.605 1516.38C797.668 1484.37 847.212 1470.17 894.838 1469.11C942.197 1467.47 987.443 1477.66 1027.82 1485.89C1068.07 1493.89 1104.32 1497.07 1130.43 1496.47C1156.53 1495.92 1173.51 1491.39 1183.83 1477.97C1194.2 1464.74 1197.63 1442.78 1198.2 1414.57C1198.89 1386.46 1198.42 1352.93 1204.08 1318.73C1209.91 1284.49 1223.28 1251.13 1246.12 1213.68C1267.57 1176.09 1312.65 1137.52 1297.71 1043.95C1285.75 973.039 1242.89 890.416 1196.55 818.893C1150.27 746.686 1102.01 684.806 1068.81 631.762C1035.37 578.514 1014.97 531.343 1015.63 487.898C1016.3 444.524 1019.72 409.934 1016.84 379.787C1014.18 349.633 1005.2 323.94 987.62 301.033C970.149 278.038 944.409 257.979 914.006 240.218C883.38 222.421 849.069 206.337 812.697 193.26C776.253 180.272 736.826 174.975 691.598 176.9C646.531 178.843 594.26 182.862 531.801 194.484C473.596 205.024 411.973 236.82 355.758 291.86C299.321 346.634 252.264 428.6 225.014 511.515C197.453 594.669 183.49 674.843 174.883 746.899C166.374 818.884 162.821 884.756 165.122 953.193C167.413 1021.63 179.902 1088.27 197.994 1145.97C215.989 1203.88 239.154 1254.49 262.825 1299.11C286.673 1343.73 308.061 1384.61 334.858 1417.47C361.771 1450.27 392.61 1472.98 421.512 1492.18C450.379 1511.4 476.803 1527.48 497.498 1545C518.211 1562.46 533.222 1581.53 544.094 1600.87C554.974 1620.19 560.73 1637 569.576 1644.97C578.316 1653 589.268 1652.17 602.2 1639.92Z" stroke="#BCAB96" stroke-width="0.2296"/>
<path fill-rule="evenodd" clip-rule="evenodd" d="M592.972 1651.62C646.001 1602.91 687.245 1559.53 738.784 1526.62C790.073 1493.77 839.562 1478.86 887.151 1477.26C934.457 1475.08 979.65 1484.93 1020.1 1493.05C1060.42 1500.95 1096.86 1504.37 1123.65 1502.46C1150.44 1500.63 1167.98 1495.27 1178.63 1481.01C1189.33 1466.93 1193.23 1444.22 1193.12 1414.98C1193.12 1385.83 1191.45 1351.07 1195.24 1315.46C1199.23 1279.75 1209.93 1244.67 1229.59 1205.67C1248.01 1166.55 1288.74 1126.95 1275.05 1035.9C1264.14 967.123 1223.17 886.813 1178.16 816.94C1133.23 746.41 1085.78 685.712 1052.57 633.675C1019.11 581.354 996.697 535.653 996.794 492.224C996.901 448.848 999.616 414.133 996.297 384.024C993.192 353.888 984.025 328.339 966.615 305.72C949.311 283.038 924.083 263.426 894.303 246.175C864.302 228.924 830.617 213.457 794.626 201.513C758.599 189.577 719.643 186.374 674.574 188.628C629.682 190.873 577.656 195.266 515.629 207.654C457.764 218.959 396.926 251.562 341.971 306.918C286.759 362.069 243.066 444.934 217.678 526.247C191.989 607.816 178.909 685.765 170.674 756.331C162.546 826.781 158.908 891.756 161.401 960.13C163.904 1028.51 176.726 1094.08 194.429 1151.36C212.052 1208.8 234.458 1259.13 257.29 1303.72C280.317 1348.28 300.931 1389.39 327.685 1422.06C354.563 1454.66 385.834 1477.62 415.019 1497.15C444.178 1516.71 470.746 1533.3 491.262 1551.55C511.831 1569.69 527.28 1589.84 536.358 1610.04C545.489 1630.15 551.674 1647.48 560.219 1655.92C568.684 1664.42 579.661 1663.84 592.972 1651.62Z" stroke="#BCAB96" stroke-width="0.2328"/>
<path fill-rule="evenodd" clip-rule="evenodd" d="M583.808 1667.14C639.102 1618.1 681.455 1571.95 731.654 1540.49C781.782 1509.08 832.745 1491.29 880.272 1489.19C927.587 1486.45 972.762 1495.99 1013.32 1503.98C1053.76 1511.74 1090.29 1515.93 1117.82 1512.57C1145.35 1509.36 1163.49 1503.06 1174.53 1487.94C1185.61 1472.98 1190.1 1449.57 1189.42 1419.3C1188.83 1389.09 1186.06 1353.2 1188.11 1316.22C1190.36 1279.2 1198.56 1242.45 1215.17 1201.96C1230.69 1161.35 1266.8 1120.56 1254.24 1031.96C1244.27 965.143 1205.08 887.141 1161.34 818.954C1117.7 750.127 1071.05 690.663 1037.85 639.567C1004.48 588.311 984.221 543.968 979.943 500.654C975.789 457.5 981.23 422.536 977.422 392.409C973.863 362.309 964.491 336.894 947.21 314.594C930.028 292.187 905.265 272.993 876.021 256.318C846.555 239.644 813.441 224.798 777.753 214.016C742.065 203.199 703.546 201.717 658.592 204.317C613.816 206.855 561.975 211.709 500.308 224.905C442.725 236.938 382.639 270.375 328.89 325.997C274.865 381.45 234.66 464.998 210.962 544.607C186.963 624.534 174.618 700.274 166.674 769.349C158.855 838.281 154.808 902.245 157.808 970.894C160.843 1039.42 173.579 1103.59 190.842 1160.44C208.069 1217.44 229.698 1267.48 251.718 1312.03C273.933 1356.52 293.885 1397.78 320.662 1430.3C347.554 1462.8 379.293 1485.97 408.777 1505.87C438.225 1525.84 464.914 1542.94 485.229 1561.93C505.607 1580.78 520.278 1602.11 528.639 1623.01C537.061 1643.81 542.644 1661.79 550.898 1670.69C559.055 1679.6 570.078 1679.36 583.808 1667.14Z" stroke="#BCAB96" stroke-width="0.2361"/>
<path fill-rule="evenodd" clip-rule="evenodd" d="M576.261 1680.78C633.899 1631.51 677.023 1584.71 726.808 1552.38C776.523 1520 828.068 1501.84 875.642 1499.22C922.994 1495.9 968.187 1505.17 1008.87 1513.01C1049.44 1520.79 1085.25 1526.11 1114.07 1521.26C1142.93 1516.7 1161.33 1509.24 1172.79 1493.15C1184.32 1477.32 1188.18 1452.87 1188.22 1421.82C1188.39 1390.92 1183.52 1353.66 1183.91 1315.34C1184.53 1277.06 1190.35 1238.7 1204.02 1196.85C1216.97 1154.89 1244.6 1111.1 1236.23 1026.37C1229.75 962.511 1189.83 885.666 1147.3 819.245C1104.91 752.106 1059.07 693.829 1025.9 643.723C992.596 593.466 971.66 549.88 966.162 507.385C960.762 465.033 965.727 429.343 961.49 399.259C957.475 369.221 947.882 343.963 930.712 321.953C913.632 299.863 889.276 281.1 860.515 264.963C831.541 248.843 798.916 234.702 763.51 225.094C728.114 215.442 690 215.256 645.117 218.281C600.43 221.164 548.725 226.576 487.392 240.557C430.083 253.376 370.713 287.585 318.156 343.369C265.324 399.055 228.728 483.015 206.549 560.863C184.086 639.012 172.343 712.557 164.606 780.246C156.977 847.803 152.695 911.677 156.088 979.704C159.517 1047.6 172.13 1111.09 188.953 1167.48C205.723 1223.98 226.57 1273.78 247.781 1318.25C269.206 1362.68 288.56 1403.97 315.403 1436.42C342.361 1468.82 374.577 1492.27 404.324 1512.56C434.054 1532.9 460.816 1550.59 480.864 1570.32C500.991 1589.92 514.768 1612.35 522.416 1633.96C530.126 1655.48 535.1 1674.06 543.085 1683.46C550.964 1692.88 562.058 1692.95 576.261 1680.78Z" stroke="#BCAB96" stroke-width="0.2393"/>
<path fill-rule="evenodd" clip-rule="evenodd" d="M566.505 1696.31C626.434 1646.82 670.382 1599.3 719.743 1566.04C769.051 1532.68 820.795 1514 868.242 1510.86C915.477 1507 960.514 1515.93 1001.18 1523.66C1041.74 1531.26 1077.64 1536.62 1106.67 1531.68C1135.71 1526.92 1155.3 1517.17 1167.2 1500.15C1179.16 1483.34 1183.28 1458.03 1183.16 1425.95C1183.15 1394.03 1177.47 1355.67 1176.35 1316.06C1175.44 1276.51 1179.01 1236.64 1189.81 1193.44C1199.99 1150.14 1223.65 1105.11 1214.91 1022.14C1208.19 959.824 1171.14 885.375 1129.98 820.436C1088.97 754.892 1044.12 697.712 1011.17 648.532C978.072 599.157 956.608 556.344 949.999 514.586C943.452 472.998 947.864 436.701 943.222 406.611C938.775 376.556 928.995 351.456 911.96 329.729C895.004 307.958 871.13 289.535 842.906 273.952C814.487 258.414 782.427 244.927 747.4 236.537C712.381 228.084 674.767 228.937 630.128 232.319C585.675 235.613 534.268 241.589 473.515 256.416C421.053 269.033 367.308 299.568 319.036 348.481C270.553 397.27 235.02 470.956 212.661 541.844C190.062 612.964 177.297 681.855 168.349 744.957C159.455 808.041 154.105 866.57 153.121 927.532C152.085 988.583 158.153 1052.1 169.838 1108.11C181.434 1164.36 197.716 1215.12 215.496 1260.76C233.284 1306.43 252.614 1347.18 271.35 1384.35C290.077 1421.5 314.58 1453.26 342.335 1477.82C370.071 1502.42 399.695 1521.36 425.199 1539.47C450.712 1557.55 471.991 1575.23 487.361 1594.96C502.811 1614.56 511.483 1637.16 517.179 1656.77C522.929 1676.34 527.429 1692.44 534.959 1700.24C542.409 1708.08 552.995 1707.46 566.505 1696.31Z" stroke="#BCAB96" stroke-width="0.2425"/>
<path fill-rule="evenodd" clip-rule="evenodd" d="M554.376 1711.91C617.018 1662.33 662.142 1614.15 711.463 1580C760.732 1545.75 812.742 1526.48 860.289 1522.76C907.623 1518.3 952.703 1526.94 993.523 1534.54C1034.22 1542.02 1070.38 1547.41 1099.74 1542.37C1129.09 1537.42 1149.85 1525.61 1162.26 1507.64C1174.72 1489.81 1179.18 1463.64 1178.98 1430.58C1178.87 1397.65 1172.54 1358.26 1169.99 1317.49C1167.65 1276.75 1169.11 1235.51 1177.21 1191.09C1184.77 1146.58 1204.68 1100.41 1195.26 1019.14C1188.09 958.309 1153.61 886.301 1113.62 822.91C1073.79 758.995 1029.76 703.021 996.913 654.812C963.937 606.39 941.921 564.365 934.236 523.424C926.586 482.624 930.429 445.914 925.371 415.887C920.481 385.939 910.462 361.005 893.486 339.558C876.573 318.058 853.03 300.124 825.192 285.093C797.168 270.123 765.506 257.372 730.693 250.212C695.889 243.006 658.548 244.541 613.956 248.348C569.533 252.075 518.215 258.659 457.783 274.321C405.542 287.648 352.44 318.874 305.195 367.899C257.719 416.836 225.595 490.974 204.608 560.222C183.381 629.745 171.233 696.606 162.483 758.285C153.804 819.875 148.303 877.481 147.38 938.264C146.403 999.091 152.819 1061.97 164.24 1117.42C175.572 1173.1 191.27 1223.43 208.344 1268.83C225.444 1314.28 243.982 1354.98 262.138 1392.25C280.268 1429.5 305.203 1460.93 333.254 1485.68C361.269 1510.5 391.228 1529.82 416.785 1548.43C442.36 1567.05 463.427 1585.32 478.326 1605.84C493.305 1626.24 500.901 1649.6 505.96 1669.88C511.071 1690.06 515.073 1706.77 522.403 1715.01C529.662 1723.24 540.382 1722.97 554.376 1711.91Z" stroke="#BCAB96" stroke-width="0.2458"/>
<path fill-rule="evenodd" clip-rule="evenodd" d="M545.105 1723.69C610.532 1674.2 656.998 1625.25 706.403 1590.24C755.773 1555.06 807.843 1535.18 855.445 1530.83C902.844 1525.79 947.915 1534.06 988.839 1541.56C1029.64 1548.88 1066.02 1554.35 1095.67 1549.21C1125.32 1544.13 1147.14 1530.5 1160.08 1511.51C1173.08 1492.58 1177.92 1465.55 1177.68 1431.48C1177.54 1397.56 1170.72 1357.13 1166.86 1315.26C1163.18 1273.42 1162.66 1230.89 1168.15 1185.31C1173.18 1139.68 1189.44 1092.37 1179.14 1012.67C1171.35 953.213 1139.31 883.51 1100.52 821.654C1061.86 759.337 1018.71 704.584 986.042 657.323C953.253 609.85 930.775 568.627 922.089 528.469C913.412 488.461 916.663 451.468 911.201 421.525C905.89 391.634 895.641 366.887 878.714 345.766C861.849 324.592 838.625 307.044 811.164 292.609C783.518 278.235 752.247 266.238 717.673 260.324C683.108 254.419 646.012 256.29 601.509 260.581C557.157 264.784 505.984 272.011 445.948 288.503C394.091 302.584 341.657 331.455 295.449 383.548C249.196 435.481 220.564 506.736 200.741 574.391C180.785 642.223 169.125 707.12 160.528 767.433C152.002 827.639 146.309 884.379 145.456 945.037C144.568 1005.73 151.229 1067.76 162.304 1122.7C173.308 1177.8 188.352 1227.66 204.684 1272.87C221.043 1318.08 238.797 1358.75 256.417 1396.14C273.975 1433.55 299.277 1464.59 327.599 1489.57C355.84 1514.62 386.072 1534.37 411.596 1553.49C437.147 1572.61 457.928 1591.56 472.271 1612.83C486.685 1633.99 493.186 1658.18 497.6 1679.06C502.067 1699.89 505.549 1717.16 512.698 1725.86C519.758 1734.59 530.602 1734.67 545.105 1723.69Z" stroke="#BCAB96" stroke-width="0.249"/>
<path fill-rule="evenodd" clip-rule="evenodd" d="M531.575 1741.22C599.952 1691.87 647.949 1642.09 697.627 1606.17C747.277 1570.07 799.32 1549.36 847.015 1544.38C894.496 1538.7 939.577 1546.64 980.62 1554.03C1021.53 1561.28 1058.12 1566.75 1088.08 1561.57C1118.05 1556.38 1140.82 1541.22 1154.35 1521.1C1167.9 1501.02 1173.16 1472.97 1172.96 1437.87C1172.84 1402.89 1165.71 1361.42 1160.62 1318.39C1155.71 1275.41 1153.31 1231.61 1156.3 1184.9C1158.92 1138.15 1171.64 1089.75 1160.28 1011.33C1151.72 953.107 1121.94 885.479 1084.28 825.046C1046.77 764.249 1004.47 710.567 971.996 664.195C939.417 617.628 916.521 577.12 906.9 537.686C897.27 498.411 899.902 461.221 894.052 431.333C888.334 401.506 877.842 376.932 860.948 356.066C844.107 335.147 821.167 318.016 794.047 304.149C766.75 290.327 735.816 279.105 701.468 274.456C667.102 269.816 630.166 271.857 585.743 276.603C541.463 281.314 490.398 289.254 430.771 306.571C379.209 321.414 326.152 350.983 282.539 403.724C238.89 456.342 212.17 526.33 193.462 592.379C174.648 658.641 163.364 721.656 154.846 780.732C146.39 839.675 140.486 895.735 139.721 956.425C138.93 1017.09 145.732 1078.31 156.42 1132.75C167.054 1187.32 181.388 1236.87 196.975 1281.88C212.588 1326.92 229.58 1367.61 246.723 1405.22C263.786 1442.82 289.385 1473.53 317.945 1498.79C346.416 1524.16 376.861 1544.35 402.318 1564.03C427.801 1583.7 448.225 1603.34 461.954 1625.42C475.754 1647.34 481.16 1672.32 484.939 1693.87C488.771 1715.34 491.741 1733.22 498.685 1742.41C505.576 1751.65 516.54 1752.06 531.575 1741.22Z" stroke="#BCAB96" stroke-width="0.2522"/>
<path fill-rule="evenodd" clip-rule="evenodd" d="M519.427 1754.96C590.542 1705.99 640.043 1655.46 689.934 1618.64C739.799 1581.66 791.507 1560.09 839.076 1554.41C886.442 1548.07 931.326 1555.65 972.285 1562.93C1013.11 1570.05 1049.74 1575.64 1079.87 1570.36C1110 1565.13 1133.53 1548.77 1147.58 1527.48C1161.67 1506.21 1167.34 1477.14 1167.23 1441C1167.21 1404.97 1159.93 1362.51 1153.75 1318.41C1147.75 1274.37 1143.59 1229.48 1144.19 1181.73C1144.5 1133.98 1153.77 1084.57 1141.26 1007.46C1131.87 950.368 1104.23 884.883 1067.85 825.869C1031.6 766.545 990.345 714.074 958.266 668.65C926.071 623.022 902.925 583.263 892.468 544.612C881.993 506.121 883.996 468.923 877.811 439.12C871.732 409.422 861.062 384.973 844.269 364.451C827.521 343.849 804.95 327.129 778.259 313.859C751.408 300.659 720.915 290.189 686.948 286.838C652.937 283.505 616.232 285.429 572.11 290.677C528.103 295.898 477.405 304.533 418.484 322.697C367.467 338.255 314.492 368.723 273.569 421.771C232.593 474.774 207.753 543.22 190.118 607.597C172.386 672.125 161.451 733.302 152.97 791.136C144.57 848.838 138.464 904.217 137.79 964.942C137.126 1025.67 143.905 1085.72 154.087 1139.59C164.225 1193.61 177.765 1242.66 192.52 1287.51C207.319 1332.35 223.447 1373.13 240.143 1410.82C256.741 1448.5 282.555 1479.06 311.107 1504.53C339.562 1530.09 370.01 1550.75 395.222 1570.98C420.46 1591.2 440.363 1611.5 453.363 1634.34C466.425 1657.08 470.759 1682.7 473.887 1704.88C477.051 1727 479.496 1745.49 486.231 1755.13C492.869 1764.86 503.919 1765.62 519.427 1754.96Z" stroke="#BCAB96" stroke-width="0.2555"/>
<path fill-rule="evenodd" clip-rule="evenodd" d="M508.12 1772.53C582.328 1723.91 633.691 1672.54 684.133 1634.74C734.574 1596.83 786.079 1574.17 833.727 1567.75C881.172 1560.71 926.011 1567.97 967.037 1575.09C1007.92 1582.07 1044.72 1587.74 1075.12 1582.46C1105.52 1577.19 1129.78 1559.99 1144.44 1537.37C1159.14 1514.73 1165.28 1484.57 1165.33 1447.27C1165.43 1410.12 1158.13 1366.47 1150.95 1321.23C1143.91 1276.05 1138.09 1229.9 1136.44 1181.13C1134.54 1132.35 1140.56 1081.87 1126.74 1005.74C1116.42 949.582 1090.55 885.852 1055.28 828.142C1020.1 770.167 979.75 718.692 947.942 674.065C916.029 629.224 892.599 590.166 881.332 552.155C870.029 514.33 871.43 477.145 864.905 447.376C858.469 417.722 847.592 393.432 830.829 373.13C814.109 352.792 791.779 336.46 765.388 323.742C738.847 311.131 708.555 301.549 674.94 299.355C642.016 297.348 604.42 298.955 560.459 304.71C516.56 310.492 466.057 319.95 407.637 338.894C357.001 355.199 304.344 386.754 265.826 440.058C227.237 493.246 204.029 560.307 187.274 623.176C170.44 686.17 159.695 745.682 151.176 802.485C142.755 859.146 136.177 913.863 135.849 975.151C135.556 1036.34 141.966 1094.91 151.611 1148.42C161.247 1202.02 173.986 1250.75 187.965 1295.54C202.007 1340.3 217.149 1381.38 233.691 1419.07C250.144 1456.8 276.215 1487.54 304.858 1513.23C333.394 1539.04 363.632 1560.11 388.595 1581.13C413.577 1602.18 433.008 1623.06 445.26 1646.7C457.573 1670.22 460.95 1696.6 463.433 1719.46C465.959 1742.29 467.901 1761.36 474.443 1771.58C480.888 1781.82 492.075 1783.03 508.12 1772.53Z" stroke="#BCAB96" stroke-width="0.2587"/>
<path fill-rule="evenodd" clip-rule="evenodd" d="M492.383 1784.42C569.771 1736.53 623.179 1684.43 674.351 1645.78C725.523 1607.02 776.811 1583.29 824.56 1576.08C872.105 1568.35 916.909 1575.17 957.989 1582.17C998.927 1588.97 1035.88 1594.72 1066.55 1589.46C1097.22 1584.18 1122.08 1566.63 1137.38 1542.65C1152.73 1518.68 1159.37 1487.37 1159.6 1449.02C1159.89 1410.75 1152.69 1366.07 1144.59 1319.84C1136.62 1273.64 1129.26 1226.51 1125.46 1176.87C1121.47 1127.23 1124.37 1075.94 1109.15 1000.91C1097.83 945.747 1073.5 883.922 1039.28 827.588C1005.13 771.068 965.652 720.74 934.15 677.03C902.551 633.135 878.863 594.783 866.837 557.567C854.775 520.52 855.556 483.526 848.718 453.922C841.96 424.363 830.874 400.303 814.13 380.334C797.422 360.32 775.33 344.386 749.211 332.312C722.978 320.292 692.656 312.245 659.762 310.515C626.797 308.838 589.194 310.994 545.365 317.346C501.589 323.725 451.286 333.883 393.409 353.613C343.177 370.584 291.242 403.257 254.995 456.424C218.669 509.466 196.932 574.867 180.942 636C164.889 697.266 154.238 754.993 145.627 810.706C137.086 866.276 130.337 921.306 130.124 981.916C129.947 1042.45 136.049 1100.3 145.13 1153.21C154.212 1206.2 166.087 1254.57 179.345 1299.13C192.684 1343.71 206.75 1384.81 223.21 1422.43C239.582 1460.06 265.984 1490.86 294.754 1516.71C323.426 1542.73 353.58 1564.07 377.977 1585.73C402.393 1607.41 421.23 1629.35 432.644 1653.72C444.147 1677.95 446.683 1704.97 448.528 1728.45C450.426 1751.86 451.871 1771.56 458.221 1782.29C464.482 1793.02 475.79 1794.67 492.383 1784.42Z" stroke="#BCAB96" stroke-width="0.262"/>
<path fill-rule="evenodd" clip-rule="evenodd" d="M477.967 1802.04C558.603 1755 614.218 1702.19 666.283 1662.6C718.367 1622.94 769.447 1598.02 817.298 1589.97C864.963 1581.48 909.726 1587.86 950.87 1594.71C991.853 1601.36 1028.94 1607.23 1059.88 1601.96C1090.81 1596.7 1116.13 1579.25 1132.11 1553.78C1148.14 1528.38 1155.3 1495.83 1155.77 1456.3C1156.29 1416.85 1149.29 1371.02 1140.37 1323.77C1131.57 1276.53 1122.77 1228.38 1116.93 1177.87C1110.96 1127.4 1110.89 1075.3 1094.2 1001.19C1081.84 946.902 1058.82 886.752 1025.58 831.686C992.394 776.513 953.798 727.241 922.592 684.367C891.315 641.341 867.412 603.675 854.688 567.18C841.903 530.854 842.08 494.164 834.955 464.634C827.901 435.211 816.624 411.272 799.89 391.627C783.2 371.92 761.302 356.392 735.447 344.928C709.512 333.482 679.797 326.738 646.834 325.505C613.827 324.289 576.26 326.951 532.552 333.881C488.907 340.855 438.829 351.796 381.511 372.266C331.699 389.888 280.857 423.765 246.768 476.649C212.581 529.443 192.165 593.196 176.824 652.672C161.429 712.272 150.791 768.439 142.042 823.15C133.347 877.773 126.479 933.229 126.311 993.237C126.16 1053.2 131.91 1110.37 140.365 1162.75C148.83 1215.21 159.965 1263.24 172.485 1307.57C185.12 1351.9 197.994 1393.21 214.427 1430.79C230.779 1468.4 257.602 1499.27 286.545 1525.32C315.399 1551.5 345.487 1573.22 369.284 1595.5C393.125 1617.76 410.649 1641.14 421.172 1666.23C431.802 1691.17 433.674 1718.86 434.898 1742.97C436.185 1767.01 437.125 1787.32 443.301 1798.61C449.379 1809.9 460.825 1812.04 477.967 1802.04Z" stroke="#BCAB96" stroke-width="0.2652"/>
<path fill-rule="evenodd" clip-rule="evenodd" d="M462.933 1817.77C546.867 1771.79 604.862 1718.25 657.984 1677.82C711.141 1637.33 762.034 1611 810.033 1602.1C857.845 1592.79 902.578 1598.73 943.759 1605.42C984.781 1611.88 1022.01 1617.86 1053.21 1612.59C1084.37 1607.51 1109.35 1591.21 1126.68 1563.54C1144.05 1536.05 1151.18 1502.82 1151.92 1462.01C1152.71 1421.31 1146 1374.32 1136.37 1326.02C1126.83 1277.71 1116.69 1228.62 1108.92 1177.29C1101.07 1126.01 1098.18 1073.21 1079.98 999.974C1066.55 946.489 1044.58 887.91 1012.28 834.087C980.014 780.185 942.259 731.98 911.375 689.934C880.42 647.727 856.354 610.757 842.958 574.985C829.509 539.364 829.057 503.103 821.68 473.658C814.365 444.32 802.913 420.626 786.197 401.253C769.517 381.836 747.803 366.732 722.184 355.888C696.52 345.017 667.269 339.408 634.246 338.663C601.214 337.962 563.681 341.068 520.12 348.646C476.622 356.216 426.785 367.992 370.06 389.14C320.694 407.394 271.292 442.394 239.218 494.85C207.03 547.191 187.802 609.275 172.994 667.109C158.143 725.067 147.437 779.67 138.506 833.519C129.602 887.324 122.687 943.25 122.501 1002.57C122.305 1061.92 127.614 1118.38 135.399 1170.27C143.185 1222.21 153.766 1269.73 165.484 1313.91C177.335 1358.02 189 1399.56 205.476 1437.08C221.908 1474.62 249.205 1505.58 278.376 1531.83C307.449 1558.22 337.489 1580.22 360.677 1603.16C383.917 1626.08 400.056 1650.49 409.093 1676.74C418.228 1702.86 420.012 1730.82 420.651 1755.54C421.335 1780.21 421.805 1801.13 427.797 1812.99C433.683 1824.84 445.232 1827.47 462.933 1817.77Z" stroke="#BCAB96" stroke-width="0.2684"/>
<path fill-rule="evenodd" clip-rule="evenodd" d="M446.733 1829.72C533.826 1785.04 594.252 1730.99 648.472 1689.74C702.763 1648.46 753.446 1620.73 801.523 1610.92C849.413 1600.75 894.032 1606.23 935.185 1612.7C976.169 1618.96 1013.44 1625 1044.83 1619.79C1076.19 1614.73 1101.48 1598.44 1119.15 1570.39C1136.84 1542.49 1145.1 1506.74 1146.14 1464.76C1147.23 1422.84 1140.9 1374.69 1130.67 1325.4C1120.52 1276.12 1109.16 1226.15 1099.59 1174.11C1089.99 1122.15 1084.41 1068.79 1064.74 996.466C1050.27 943.874 1029.14 886.744 997.783 834.196C966.435 781.586 929.556 734.481 899.059 693.297C868.491 651.971 844.324 615.734 830.335 580.702C816.292 545.829 815.193 510.062 807.613 480.818C800.095 451.69 788.5 428.146 771.833 409.123C755.193 390.047 733.703 375.395 708.339 365.156C682.967 354.927 654.075 350.246 621.087 350.016C588.108 349.777 550.696 353.411 507.38 361.611C464.127 369.81 414.649 382.3 358.647 404.124C309.844 422.925 262.29 458.994 232.148 510.78C201.891 562.477 183.726 622.701 169.382 678.892C154.993 735.154 144.16 788.207 135.02 841.207C125.888 894.136 119 950.514 118.699 1009.08C118.379 1067.75 123.043 1123.51 130.232 1174.69C137.431 1225.93 147.422 1273 158.273 1316.9C169.266 1360.76 179.665 1402.43 196.243 1439.87C212.804 1477.32 240.614 1508.34 269.985 1534.72C299.258 1561.25 329.197 1583.56 351.714 1607.08C374.277 1630.57 388.913 1656.15 396.422 1683.35C404.038 1710.42 405.172 1738.92 405.226 1764.3C405.323 1789.58 405.35 1811.11 411.148 1823.49C416.875 1835.89 428.515 1839.07 446.733 1829.72Z" stroke="#BCAB96" stroke-width="0.2717"/>
<path fill-rule="evenodd" clip-rule="evenodd" d="M428.663 1845.47C519.072 1802.2 582.171 1747.65 637.767 1705.46C693.442 1663.31 744.097 1633.99 792.375 1623.2C840.475 1612.08 885.055 1617.04 926.255 1623.32C967.268 1629.35 1004.64 1635.47 1036.27 1630.33C1067.87 1625.29 1093.53 1608.99 1111.57 1580.5C1129.65 1552.1 1138.93 1514.06 1140.33 1470.78C1141.77 1427.45 1135.84 1377.98 1125.08 1327.54C1114.4 1277.11 1101.88 1226.16 1090.64 1173.37C1079.36 1120.67 1071.27 1066.62 1050.07 995.033C1034.53 943.11 1013.99 887.227 983.447 835.773C952.881 784.258 916.808 738.087 886.625 697.677C856.388 657.108 832.111 621.501 817.538 587.11C802.921 552.87 801.12 517.671 793.377 488.509C785.678 459.444 773.952 436.088 757.304 417.348C740.682 398.572 719.35 384.306 694.196 374.692C669.032 365.069 640.321 361.19 607.334 361.456C574.374 361.714 537.024 365.913 493.882 374.728C450.801 383.587 401.628 396.886 346.28 419.319C297.985 438.671 252.456 475.788 224.056 526.903C195.522 577.939 178.27 636.468 164.247 691.197C150.188 745.979 139.146 797.698 129.744 850.022C120.333 902.345 113.486 959.249 113.007 1017.19C112.51 1075.28 116.439 1130.38 123.251 1181.01C130.099 1231.68 139.181 1278.43 149.106 1322.18C159.2 1365.93 168.371 1407.83 185.18 1445.29C201.979 1482.76 230.451 1513.91 260.111 1540.49C289.683 1567.23 319.574 1589.91 341.429 1614.06C363.337 1638.2 376.562 1664.83 382.442 1693.14C388.438 1721.29 388.35 1750.63 387.862 1776.61C387.418 1802.53 387.001 1824.7 392.634 1837.7C398.16 1850.73 409.903 1854.44 428.663 1845.47Z" stroke="#BCAB96" stroke-width="0.2749"/>
<path fill-rule="evenodd" clip-rule="evenodd" d="M410.098 1861.25C503.806 1819.75 569.693 1764.74 626.814 1721.77C684.032 1678.84 734.763 1647.89 783.276 1636.06C831.612 1623.96 876.176 1628.35 917.404 1634.39C958.445 1640.14 995.892 1646.35 1027.76 1641.26C1059.57 1636.3 1085.6 1619.97 1104.01 1591.15C1122.47 1562.37 1132.71 1522.39 1134.48 1477.75C1136.31 1433.03 1130.81 1382.14 1119.62 1330.68C1108.51 1279.17 1094.97 1227.29 1082.12 1173.86C1069.29 1120.53 1058.82 1065.94 1036.1 995.124C1019.52 943.924 999.362 889.251 969.564 838.912C939.73 788.537 904.412 743.303 874.561 703.691C844.647 663.883 820.289 628.959 805.177 595.26C790.02 561.73 787.465 527.17 779.594 498.142C771.776 469.23 759.921 446.027 743.309 427.611C726.715 409.132 705.533 395.253 680.571 386.329C655.6 377.316 626.947 374.128 593.99 374.9C561.059 375.637 523.789 380.397 480.858 389.863C437.989 399.337 389.13 413.43 334.467 436.419C286.708 456.248 243.449 494.226 216.65 544.504C189.709 594.701 173.23 651.46 159.432 704.676C145.615 757.884 134.275 808.339 124.593 860.01C114.877 911.69 108.097 969.071 107.351 1026.3C106.579 1083.66 110.076 1137.96 116.412 1188.02C122.801 1238.13 130.876 1284.41 139.821 1328.01C148.97 1371.53 156.938 1413.67 174.082 1451.11C191.235 1488.56 220.421 1519.85 250.406 1546.56C280.31 1573.52 310.153 1596.43 331.326 1621.24C352.552 1646 364.274 1673.64 368.56 1702.96C372.97 1732.13 370.575 1762.63 369.873 1789.01C369.235 1815.3 368.143 1838.31 373.618 1851.9C378.978 1865.52 390.816 1869.75 410.098 1861.25Z" stroke="#BCAB96" stroke-width="0.2781"/>
<path fill-rule="evenodd" clip-rule="evenodd" d="M392.978 1877.02C489.922 1837.56 558.718 1782.38 617.501 1738.66C676.399 1695.02 727.334 1662.43 776.113 1649.53C824.732 1636.42 869.267 1640.17 910.518 1645.91C951.582 1651.37 989.096 1657.65 1021.17 1652.61C1053.19 1647.7 1079.57 1631.44 1098.37 1602.32C1117.22 1573.23 1128.3 1531.74 1130.5 1485.73C1132.74 1439.59 1127.66 1387.39 1116.16 1334.84C1104.73 1282.27 1090.23 1229.58 1075.91 1175.57C1061.63 1121.67 1048.91 1066.77 1024.73 996.747C1007.13 946.277 987.17 892.836 958.062 843.608C928.893 794.344 894.309 750.146 864.766 711.334C835.18 672.37 810.75 638.144 795.127 605.133C779.468 572.264 776.077 538.579 768.124 509.711C760.232 480.95 748.284 457.999 731.711 439.91C715.146 421.768 694.126 408.381 669.342 400.068C644.549 391.72 615.841 389.068 582.952 390.345C550.081 391.57 512.904 396.892 470.207 406.997C427.562 417.057 379.068 431.899 325.114 455.373C277.925 475.583 237.144 514.245 211.81 563.517C186.333 612.7 170.505 667.659 156.844 719.345C143.173 771.03 131.483 820.16 121.487 871.198C111.447 922.289 104.745 979.954 103.654 1036.4C102.517 1093.02 105.864 1146.33 111.634 1195.74C117.457 1245.2 124.434 1291.01 132.335 1334.38C140.475 1377.68 147.337 1419.92 164.904 1457.33C182.507 1494.72 212.493 1526.06 242.816 1552.93C273.078 1580.02 302.86 1603.25 323.312 1628.63C343.827 1653.97 353.991 1682.64 356.689 1712.83C359.53 1742.88 355.597 1774.18 353.44 1801.42C351.336 1828.58 350.706 1851.8 356.023 1866C361.27 1880.16 373.191 1885.08 392.978 1877.02Z" stroke="#BCAB96" stroke-width="0.2814"/>
<path fill-rule="evenodd" clip-rule="evenodd" d="M373.513 1890.9C473.615 1853.65 545.41 1798.38 605.991 1753.92C666.715 1709.61 717.982 1675.24 767.083 1661.16C816.023 1646.95 860.543 1649.97 901.821 1655.45C942.904 1660.56 980.462 1666.89 1012.74 1661.91C1044.95 1657.07 1071.68 1640.86 1090.85 1611.44C1110.1 1582.09 1121.9 1539.36 1124.55 1491.87C1127.26 1444.21 1122.58 1390.49 1110.87 1336.79C1099.21 1283.03 1083.88 1229.45 1068.2 1174.85C1052.56 1120.38 1037.75 1065.11 1012.13 995.786C993.567 946.002 973.643 893.599 945.142 845.36C916.578 797.12 882.678 753.806 853.448 715.747C824.174 677.555 799.695 643.933 783.597 611.59C767.464 579.362 763.131 546.54 755.158 517.818C747.238 489.176 735.243 466.41 718.719 448.649C702.213 430.836 681.329 417.868 656.726 410.191C632.104 402.495 603.248 400.276 570.449 402.06C537.659 403.809 500.607 409.702 458.165 420.415C415.768 431.12 367.68 446.679 314.468 470.59C267.88 491.173 229.745 530.342 205.754 578.617C181.612 626.759 166.296 680.031 152.693 730.303C139.073 780.531 126.979 828.522 116.653 879.087C106.274 929.741 99.6409 987.709 98.1049 1043.4C96.5067 1099.3 100.005 1151.68 105.119 1200.54C110.278 1249.43 116.041 1294.79 122.868 1338C129.954 1381.12 135.805 1423.57 153.918 1460.99C172.067 1498.43 202.912 1529.83 233.616 1556.91C264.257 1584.16 293.975 1607.75 313.66 1633.74C333.416 1659.69 341.966 1689.39 343.12 1720.45C344.417 1751.37 339 1783.47 335.413 1811.51C331.888 1839.5 330.956 1863.22 336.141 1878.09C341.256 1892.91 353.251 1898.4 373.513 1890.9Z" stroke="#BCAB96" stroke-width="0.2846"/>
<path fill-rule="evenodd" clip-rule="evenodd" d="M355.584 1904.75C458.744 1870.1 533.585 1814.88 596.1 1769.82C658.758 1724.86 710.537 1688.82 759.999 1673.51C809.301 1658.08 853.825 1660.46 895.126 1665.52C936.214 1670.29 973.821 1676.57 1006.27 1671.68C1038.65 1666.91 1065.7 1650.76 1085.27 1621.13C1104.9 1591.52 1117.31 1548.18 1120.46 1499.14C1123.67 1449.92 1119.34 1394.78 1107.51 1339.87C1095.74 1284.98 1079.67 1230.54 1062.74 1175.43C1045.86 1120.47 1029.1 1064.93 1002.1 996.387C982.612 947.291 962.579 895.951 934.642 848.718C906.617 801.44 873.37 759.103 844.448 721.804C815.481 684.381 790.963 651.429 774.42 619.78C757.85 588.247 752.442 556.368 744.485 527.841C736.591 499.368 724.585 476.829 708.13 459.382C691.694 441.934 670.959 429.365 646.539 422.358C622.083 415.324 592.992 413.47 560.322 415.741C527.635 417.994 490.73 424.46 448.576 435.778C406.467 447.097 358.799 463.338 306.362 487.589C260.39 508.46 225.074 547.923 202.27 595.068C179.324 642.071 164.424 693.571 150.775 742.436C137.127 791.248 124.579 838.091 113.896 888.199C103.152 938.377 96.5535 996.512 94.5111 1051.39C92.3533 1106.42 96.2871 1157.83 100.665 1206.09C105.043 1254.35 109.51 1299.25 115.22 1342.22C121.196 1385.13 126.195 1427.68 144.968 1465.11C163.776 1502.57 195.539 1534.03 226.637 1561.26C257.682 1588.69 287.297 1612.52 306.185 1639.15C325.144 1665.71 332.034 1696.32 331.661 1728.2C331.439 1759.91 324.593 1792.68 319.638 1821.46C314.745 1850.17 312.738 1874.64 317.818 1890.1C322.808 1905.52 334.867 1911.69 355.584 1904.75Z" stroke="#BCAB96" stroke-width="0.2878"/>
<path fill-rule="evenodd" clip-rule="evenodd" d="M333.061 1920.49C439.201 1888.67 517.178 1833.71 581.766 1788.11C646.524 1742.63 699.003 1704.86 748.897 1688.23C798.648 1671.52 843.194 1673.1 884.541 1677.78C925.666 1682.09 963.3 1688.39 995.932 1683.54C1028.49 1678.83 1055.87 1662.8 1075.84 1632.94C1095.84 1603.21 1108.26 1560.06 1112.33 1509.07C1116.46 1458.03 1112.13 1401.49 1100.29 1345.34C1088.51 1289.16 1071.8 1233.89 1053.72 1178.3C1035.72 1122.85 1017.12 1067.12 988.798 999.333C968.426 950.95 948.17 900.572 920.7 854.282C893.141 807.956 860.492 766.48 831.831 729.942C803.144 693.271 778.588 660.989 761.61 629.993C744.615 599.112 737.969 568.328 730.089 539.956C722.28 511.611 710.286 489.286 693.921 472.183C677.601 455.027 657.398 443.022 632.46 436.621C607.531 430.193 579.083 428.597 546.505 431.407C513.935 434.165 477.181 441.178 435.319 453.112C393.501 465.019 346.272 481.954 294.619 506.433C249.283 527.517 216.846 567.06 195.107 613.058C173.225 658.879 158.61 708.663 144.84 756.177C131.078 803.602 118 849.396 106.957 899.145C95.852 949.035 88.5492 1007.36 86.7812 1061.02C84.9333 1114.91 88.5048 1165.83 91.9697 1213.42C95.4701 1261.04 98.5351 1305.4 103.11 1348.22C107.943 1390.93 112.279 1433.61 131.824 1471.08C151.405 1508.54 184.161 1540.15 215.683 1567.51C247.151 1595.09 276.664 1619.24 294.708 1646.48C312.823 1673.64 318.029 1705.21 316.172 1737.8C314.484 1770.26 306.24 1803.66 299.976 1833.1C293.766 1862.5 289.919 1887.82 294.903 1903.9C299.798 1919.94 311.917 1926.85 333.061 1920.49Z" stroke="#BCAB96" stroke-width="0.2911"/>
<path fill-rule="evenodd" clip-rule="evenodd" d="M313.382 1934.29C422.221 1905.58 503.248 1850.99 569.949 1804.82C636.818 1758.81 690.132 1719.3 740.473 1701.24C790.68 1683.16 835.215 1683.88 876.554 1688.11C917.672 1691.96 955.274 1698.18 988.038 1693.4C1020.72 1688.73 1048.37 1672.77 1068.71 1642.72C1089.07 1612.77 1101.95 1569.09 1106.32 1517.15C1110.78 1465.12 1107.02 1406.21 1095.3 1348.68C1083.63 1291.09 1066.4 1234.89 1047.3 1178.72C1028.28 1122.71 1008.03 1066.77 978.478 999.611C957.307 951.796 936.766 902.357 909.727 856.842C882.599 811.317 850.545 770.647 822.166 734.789C793.778 698.806 769.225 667.083 751.853 636.736C734.481 606.443 726.412 576.833 718.68 548.554C711.019 520.319 699.098 498.147 682.853 481.363C666.653 464.525 646.316 453.146 621.523 447.164C596.739 441.182 568.431 440.037 536.022 443.321C503.621 446.587 467.102 454.176 425.612 466.709C384.166 479.215 337.465 496.789 286.672 521.509C242.048 542.758 212.604 582.256 191.823 627.124C170.909 671.814 156.475 719.992 142.539 766.263C128.593 812.471 114.985 857.356 103.578 906.858C92.1362 956.563 84.4843 1014.74 82.922 1067.51C81.2976 1120.6 84.3335 1170.81 86.8013 1217.85C89.3045 1264.91 90.8935 1308.8 94.2933 1351.52C97.9594 1394.14 101.839 1436.96 122.246 1474.55C142.672 1512.15 176.448 1543.89 208.352 1571.45C240.21 1599.26 269.566 1623.76 286.681 1651.65C303.884 1679.49 307.355 1712 304.079 1745.3C300.963 1778.47 291.403 1812.48 283.893 1842.6C276.437 1872.67 271.217 1898.76 275.185 1915.65C279.1 1932.48 291.874 1940 313.382 1934.29Z" stroke="#BCAB96" stroke-width="0.2943"/>
<path fill-rule="evenodd" clip-rule="evenodd" d="M289.767 1948.09C401.377 1922.73 485.645 1868.85 554.713 1822.26C623.922 1775.88 678.172 1735.41 729.355 1715.22C780.369 1694.92 824.867 1695.4 866.325 1699.14C907.535 1702.49 945.18 1708.6 978.14 1703.84C1011.01 1699.18 1038.99 1683.36 1059.73 1653.15C1080.51 1623.06 1093.87 1578.91 1098.59 1526.12C1103.39 1473.25 1098.93 1412.47 1088.35 1353.37C1077.84 1294.27 1059.31 1237.23 1039.23 1180.53C1019.27 1124.04 997.447 1068 966.682 1001.53C944.726 954.36 923.793 905.805 897.064 861.113C870.245 816.428 838.654 776.547 810.485 741.378C782.298 706.085 757.702 674.991 739.915 645.282C722.092 615.625 711.017 587.061 704.661 559.153C698.306 531.246 685.514 509.108 669.434 492.589C653.345 476.07 632.767 465.303 608.091 459.719C583.424 454.136 555.193 453.444 522.926 457.234C490.65 461.015 454.294 469.173 413.111 482.239C371.964 495.323 325.723 513.475 275.687 538.303C231.687 559.642 205.215 598.822 185.224 642.512C165.09 685.98 150.726 732.519 136.503 777.585C122.281 822.544 108.05 866.563 96.2449 915.862C84.4137 965.358 76.8047 1023.02 75.3291 1074.98C73.8091 1127.25 76.1914 1176.72 77.5514 1223.09C78.9648 1269.52 78.9736 1312.89 81.1958 1355.46C83.667 1397.89 87.3649 1440.89 108.796 1478.58C130.219 1516.29 165.135 1548.13 197.491 1575.88C229.82 1603.88 259.038 1628.7 275.216 1657.25C291.483 1685.74 293.252 1719.09 288.567 1753.05C284.069 1786.85 273.234 1821.41 264.523 1852.11C255.865 1882.73 249.5 1909.49 252.327 1927.16C255.082 1944.81 267.883 1953.08 289.767 1948.09Z" stroke="#BCAB96" stroke-width="0.2975"/>
<path fill-rule="evenodd" clip-rule="evenodd" d="M269.106 1958.02C383.084 1936.31 470.378 1883.41 541.772 1836.59C613.289 1790.03 668.995 1748.31 720.552 1726.42C771.95 1704.31 816.783 1703.9 858.267 1707.07C899.493 1709.83 937.104 1715.8 970.176 1711.05C1003.15 1706.42 1031.37 1690.74 1052.5 1660.41C1073.63 1630.23 1087.47 1585.73 1092.54 1532.17C1097.71 1478.55 1093.77 1416.15 1083.01 1355.68C1072.3 1295.13 1054.01 1237.11 1033.15 1179.99C1012.38 1123.04 989.159 1066.99 957.322 1001.29C934.688 954.806 913.369 907.175 886.932 863.268C860.416 819.371 829.299 780.333 801.371 745.863C773.424 711.277 748.827 680.833 730.688 651.789C712.513 622.773 700.725 594.971 693.406 567.808C686.086 540.689 674.742 518.199 658.815 502.015C642.897 485.795 622.084 475.597 597.602 470.444C573.12 465.256 545.058 465.017 512.999 469.283C480.949 473.548 444.831 482.23 404.066 495.852C363.319 509.535 316.603 527.653 268.564 553.016C226.298 574.947 201.816 612.991 182.513 655.381C163.086 697.549 148.713 742.484 134.163 786.355C119.612 830.128 104.769 873.272 92.581 922.366C80.3757 971.691 73.1893 1028.58 71.688 1079.66C70.1512 1131.06 71.759 1179.68 71.8922 1225.36C72.1143 1271.04 70.4532 1313.87 71.4925 1356.29C72.7628 1398.56 76.5647 1441.67 99.0656 1479.44C121.558 1517.22 157.561 1549.17 190.313 1577.08C223.038 1605.27 252.023 1630.41 267.16 1659.59C282.386 1688.68 282.448 1722.83 276.434 1757.36C270.607 1791.7 258.597 1826.7 248.772 1857.9C239.001 1889.04 231.566 1916.31 233.298 1934.68C234.968 1953.09 246.924 1962.31 269.106 1958.02Z" stroke="#BCAB96" stroke-width="0.3008"/>
<path fill-rule="evenodd" clip-rule="evenodd" d="M248.157 1973.63C352.694 1957.53 436.141 1913.73 505.678 1871.17C575.26 1828.8 630.444 1787.51 679.602 1760.02C728.706 1732.46 772.253 1721.87 811.859 1720.44C851.297 1718.68 887.344 1724.36 920.338 1725.65C953.233 1726.89 982.943 1723.33 1008.05 1708.4C1033.13 1693.56 1053.51 1667.41 1067.45 1630.35C1081.43 1593.34 1088.84 1545.71 1089.07 1492.72C1089.37 1439.65 1082.6 1381.52 1070.3 1326.6C1058.06 1271.58 1040.71 1219.17 1020.63 1167.37C1000.61 1115.68 977.954 1064.52 948.44 1005.99C925.184 960.097 903.481 913.258 877.287 870.067C851.004 826.866 820.319 788.547 792.598 754.709C764.868 720.756 740.272 690.894 721.782 662.478C703.257 634.072 690.804 606.898 682.549 580.488C674.294 554.096 664.183 531.342 648.446 515.457C632.717 499.572 611.689 489.873 587.421 485.08C563.144 480.27 535.263 480.43 503.441 485.231C471.619 489.952 435.794 499.244 395.46 513.354C355.144 527.597 307.726 546.162 262.181 571.534C222.069 593.596 198.893 630.824 180.173 671.956C161.337 712.831 146.86 756.324 131.921 799.134C116.991 841.793 101.475 884.186 88.9147 933.305C76.328 982.567 69.8927 1038.5 68.2595 1088.88C66.5907 1139.48 67.3007 1187.39 66.1113 1232.4C65.0284 1277.43 61.6376 1319.72 61.4956 1362.07C61.5666 1404.25 65.774 1447.49 89.4739 1485.49C113.112 1523.47 150.25 1555.56 183.386 1583.69C216.504 1612.11 245.201 1637.6 259.235 1667.48C273.348 1697.27 271.732 1732.22 264.454 1767.29C257.362 1802.18 244.234 1837.68 233.369 1869.34C222.557 1900.96 214.134 1928.75 214.817 1947.84C215.43 1966.89 225.726 1977.12 248.157 1973.63Z" stroke="#BCAB96" stroke-width="0.304"/>
<path fill-rule="evenodd" clip-rule="evenodd" d="M224.429 1983.49C327.222 1972.19 416.771 1929.1 488.546 1886.65C560.454 1844.52 617.528 1802.42 667.678 1773.7C717.801 1744.91 761.736 1732.43 801.534 1730.08C841.155 1727.44 877.207 1732.61 910.249 1733.7C943.194 1734.74 972.996 1731.2 998.332 1716.31C1023.63 1701.53 1044.35 1675.35 1058.69 1638.05C1073.05 1600.82 1080.9 1552.6 1081.42 1498.84C1082.01 1444.93 1075.11 1385.68 1062.93 1329.42C1050.79 1273.09 1033.35 1219.86 1012.65 1167.71C992.011 1115.68 968.317 1064.57 937.965 1006.67C914.146 961.402 892.05 915.396 865.994 872.869C839.859 830.315 809.533 792.783 781.968 759.572C754.403 726.272 729.768 697.045 710.929 669.22C692.056 641.466 678.943 614.963 669.791 589.285C660.656 563.679 652.089 540.574 635.896 525.179C619.748 509.794 599.249 500.3 575.173 495.935C551.106 491.498 523.399 492.155 491.804 497.354C460.209 502.545 424.654 512.332 384.74 526.945C344.835 541.727 297.083 560.617 253.831 585.878C215.72 607.901 193.677 644.235 175.407 684.056C157.039 723.682 142.329 765.703 126.935 807.432C111.55 849.028 95.3311 890.73 82.3698 939.832C69.373 989.04 64.002 1043.81 62.1377 1093.4C60.2024 1143.21 59.8918 1190.27 57.2818 1234.53C54.8049 1278.86 49.5849 1320.55 48.2976 1362.83C47.1702 1404.93 52.1683 1448.33 77.1587 1486.5C102.06 1524.64 140.376 1556.86 173.906 1585.21C207.428 1613.84 235.81 1639.7 248.665 1670.28C261.608 1700.74 258.377 1736.38 249.872 1771.94C241.563 1807.29 227.385 1843.22 215.542 1875.27C203.762 1907.31 194.414 1935.54 194.103 1955.23C193.757 1974.91 202.563 1985.99 224.429 1983.49Z" stroke="#BCAB96" stroke-width="0.3072"/>
<path fill-rule="evenodd" clip-rule="evenodd" d="M200.901 1993.24C299.811 1986.61 396.59 1944.91 470.586 1902.76C544.857 1861.02 603.958 1818.17 655.252 1788.23C706.536 1758.26 750.982 1743.76 791.004 1740.39C830.867 1736.76 866.945 1741.43 900.058 1742.25C933.072 1743 962.969 1739.51 988.522 1724.63C1014.04 1709.87 1035.1 1683.72 1049.84 1646.18C1064.61 1608.71 1072.91 1560.01 1073.75 1505.43C1074.66 1450.76 1067.95 1390.39 1055.55 1332.85C1043.16 1275.18 1025.96 1221.24 1004.74 1168.64C983.566 1116.18 958.936 1065.19 927.823 1007.84C903.486 963.146 881.041 917.945 855.07 876.027C829.019 834.074 798.98 797.234 771.544 764.644C744.098 731.975 719.424 703.299 700.239 676.106C681.018 648.93 667.269 623.112 657.241 598.182C647.222 573.314 638.918 550.318 623.019 535.195C607.147 520.081 586.896 510.922 563.021 506.883C539.155 502.819 511.647 503.866 480.285 509.537C448.922 515.199 413.652 525.503 374.171 540.547C334.691 555.848 286.95 575.036 245.835 600.019C206.541 623.725 184.967 663.13 166.163 705.491C147.245 747.56 130.955 791.394 113.635 836.018C96.3509 880.713 76.8904 929.065 66.836 984.624C56.7727 1040.26 55.7601 1094.85 53.6905 1145.99C51.5855 1197.16 47.5619 1244.51 41.8508 1290.13C36.6104 1335.73 27.4887 1381.83 37.1434 1427.38C46.7893 1472.91 81.9887 1514.67 120.395 1549.14C158.649 1584.09 198.245 1612.37 221.276 1643.44C244.414 1674.47 247.816 1711.37 241.003 1750.06C234.431 1788.5 218.656 1828.44 204.205 1864.88C189.843 1901.25 176.955 1934.01 174.068 1957.47C171.12 1980.91 178.305 1994.91 200.901 1993.24Z" stroke="#BCAB96" stroke-width="0.3105"/>
<path fill-rule="evenodd" clip-rule="evenodd" d="M179.241 2004.79C274.055 2002.52 376.758 1963.11 452.92 1921.44C529.446 1880.34 590.594 1836.81 643.072 1805.75C695.577 1774.61 740.558 1758.02 780.799 1753.57C820.89 1748.94 856.953 1752.96 890.087 1753.49C923.114 1753.95 953.062 1750.43 978.796 1735.59C1004.48 1720.84 1025.84 1694.73 1040.97 1657.02C1056.11 1619.37 1064.87 1570.31 1066.05 1515.02C1067.31 1459.66 1060.75 1398.28 1048.28 1339.56C1035.85 1280.75 1018.3 1225.86 996.907 1173.06C975.566 1120.36 950.001 1069.37 918.251 1012.65C893.503 968.586 870.804 924.2 844.893 882.84C818.911 841.505 789.149 805.36 761.837 773.383C734.524 741.327 709.82 713.28 690.324 686.706C670.794 660.202 656.445 634.984 645.584 610.849C634.731 586.767 626.585 563.989 610.994 549.096C595.439 534.239 575.447 525.404 551.834 521.696C528.23 518.015 500.962 519.417 469.895 525.546C438.838 531.657 403.911 542.443 364.939 557.859C325.966 573.542 278.634 593.003 239.555 617.573C202.17 640.981 181.486 679.21 162.86 720.137C144.102 760.815 127.295 803.16 109.326 846.916C91.3924 890.823 71.1517 939.776 61.7812 994.158C52.4195 1048.75 51.1329 1102.43 48.0182 1152.62C44.877 1202.83 38.9761 1249.21 31.4335 1294.2C24.4145 1339.18 13.216 1385.28 24.0951 1431C35.0007 1476.67 72.0568 1518.7 111.42 1553.35C150.659 1588.48 190.439 1616.99 212.623 1648.63C234.923 1680.24 236.351 1718 228.25 1757.18C220.397 1796.09 203.608 1836.37 188.257 1873.12C172.994 1909.79 159.311 1942.94 155.513 1966.88C151.635 1990.79 157.776 2005.45 179.241 2004.79Z" stroke="#BCAB96" stroke-width="0.3137"/>
<path fill-rule="evenodd" clip-rule="evenodd" d="M156.794 2016.19C247.644 2018.02 355.222 1981.52 433.686 1940.48C512.55 1900.11 575.937 1855.93 629.797 1823.74C683.711 1791.56 729.437 1772.62 770.006 1767.05C810.432 1761.27 846.569 1764.66 879.786 1764.83C912.896 1764.91 942.933 1761.38 968.878 1746.49C994.769 1731.74 1016.46 1705.68 1031.99 1667.73C1047.53 1629.88 1056.77 1580.37 1058.32 1524.34C1059.95 1468.23 1053.65 1405.86 1041.07 1345.89C1028.55 1285.82 1010.51 1229.85 988.829 1176.76C967.191 1123.78 941.309 1072.95 908.82 1016.67C883.577 973.113 860.758 929.389 834.814 888.543C808.807 847.706 779.222 812.134 751.964 780.744C724.705 749.266 699.924 721.73 680.088 695.748C660.226 669.82 645.273 645.25 633.597 621.817C621.93 598.436 613.824 575.944 598.507 561.275C583.227 546.633 563.498 538.019 540.119 534.69C516.75 531.289 489.695 533.171 458.903 539.689C428.11 546.206 393.491 557.484 354.992 573.28C316.483 589.379 269.789 608.906 232.523 633.058C196.856 656.154 176.887 693.138 158.286 732.768C139.578 772.122 122.122 813.155 103.422 856.15C84.7676 899.35 64.2482 948.871 55.4136 1002.24C46.6056 1055.91 44.9008 1108.77 40.5945 1158.05C36.2882 1207.39 28.3681 1252.77 18.9208 1297.21C10.0507 1341.63 -2.96602 1387.86 9.32254 1433.87C21.6555 1479.84 60.7054 1522.23 101.078 1557.1C141.345 1592.48 181.318 1621.29 202.619 1653.57C224.044 1685.78 223.476 1724.52 214.126 1764.16C205.043 1803.59 187.285 1844.19 171.098 1881.28C155.001 1918.31 140.59 1951.8 135.946 1976.22C131.249 2000.65 136.399 2015.94 156.794 2016.19Z" stroke="#BCAB96" stroke-width="0.3169"/>
<path fill-rule="evenodd" clip-rule="evenodd" d="M137.054 2025.15C223.954 2030.78 335.157 1997.96 415.902 1957.84C497.045 1918.48 562.742 1873.87 618.082 1840.7C673.519 1807.54 720.1 1786.38 761.049 1779.56C801.866 1772.58 838.089 1775.24 871.4 1774.99C904.595 1774.66 934.707 1771.03 960.849 1756.17C986.929 1741.42 1008.93 1715.41 1024.86 1677.41C1040.79 1639.47 1050.52 1589.7 1052.47 1533.11C1054.49 1476.47 1048.49 1413.28 1035.85 1352.27C1023.29 1291.14 1004.81 1234.18 982.869 1180.96C960.973 1127.86 935 1077.45 902.152 1021.81C876.721 978.818 853.172 935.722 827.146 895.446C801.066 855.179 771.567 820.241 744.35 789.48C717.124 758.639 692.261 731.673 672.089 706.347C651.889 681.022 636.22 657.195 623.829 634.521C611.446 611.891 603.301 589.856 588.262 575.393C573.268 560.965 553.797 552.648 530.667 549.633C507.545 546.565 480.737 548.746 450.224 555.725C419.721 562.641 385.451 574.373 347.433 590.423C309.415 606.801 263.625 626.248 228.049 649.853C193.975 672.438 174.593 708.094 155.913 746.393C137.134 784.408 118.978 824.063 99.5161 866.237C80.0895 908.65 59.828 958.485 51.4072 1010.78C43.0041 1063.43 40.739 1115.29 35.1251 1163.51C29.529 1211.8 19.4382 1256.03 8.05049 1299.83C-2.73316 1343.55 -17.2209 1389.89 -3.355 1436.11C10.5643 1482.3 51.6292 1524.96 92.9961 1560.01C134.283 1595.56 174.371 1624.6 194.677 1657.49C215.107 1690.32 212.567 1729.77 202.041 1769.79C191.799 1809.58 173.154 1850.38 156.223 1887.67C139.373 1924.89 124.343 1958.59 118.925 1983.42C113.48 2008.19 117.717 2024.09 137.054 2025.15Z" stroke="#BCAB96" stroke-width="0.3202"/>
<path fill-rule="evenodd" clip-rule="evenodd" d="M116.177 2033.58C199.152 2042.81 312.754 2014.06 395.729 1974.99C479.069 1936.75 547.136 1891.71 604.052 1857.52C661.101 1823.37 708.68 1799.9 750.065 1791.74C791.335 1783.46 827.665 1785.28 861.072 1784.58C894.355 1783.79 924.545 1780 950.871 1765.08C977.135 1750.3 999.427 1724.32 1015.76 1686.12C1032.09 1648.04 1042.3 1597.88 1044.67 1540.66C1047.12 1483.38 1041.43 1419.28 1028.81 1357.13C1016.25 1294.85 997.374 1236.72 975.224 1183.22C953.11 1129.87 927.104 1079.82 894.017 1024.7C865.248 976.984 838.389 928.516 808.296 885.082C778.097 841.63 744.619 805.121 715.281 773.114C685.917 741.035 660.701 713.006 641.057 686.441C621.368 659.921 607.117 634.706 595.087 612.003C583.084 589.283 566.345 573.932 543.822 566.216C521.343 558.456 493.969 557.817 462.063 563.375C430.149 568.88 393.597 580.608 352.407 597.824C311.208 615.501 260.626 636.881 222.324 662.709C189.699 684.816 170.765 719.221 151.938 756.289C133.005 793.055 114.071 831.535 93.796 873.042C73.5563 914.789 54.0453 964.953 45.9068 1016.38C37.7772 1068.16 34.8274 1119.12 27.7462 1166.38C20.7183 1213.7 8.34169 1256.86 -5.02998 1300.13C-17.7797 1343.28 -33.3548 1389.86 -17.762 1436.52C-2.12468 1483.16 41.0201 1526.2 83.3296 1561.51C125.595 1597.37 165.728 1626.72 184.919 1660.33C204.243 1693.85 199.765 1734.12 188.135 1774.56C176.789 1814.77 157.349 1855.85 139.775 1893.41C122.272 1930.93 106.706 1964.89 100.611 1990.09C94.4801 2015.31 97.8475 2031.77 116.177 2033.58Z" stroke="#BCAB96" stroke-width="0.3234"/>
<path fill-rule="evenodd" clip-rule="evenodd" d="M96.1076 2041.51C175.258 2054.06 290.012 2029.86 375.134 1992.14C460.557 1955.31 531.036 1909.96 589.617 1874.88C648.366 1839.86 697.085 1814.1 738.961 1804.53C780.74 1794.82 817.214 1795.81 850.73 1794.57C884.121 1793.2 914.375 1789.25 940.88 1774.29C967.323 1759.44 989.892 1733.48 1006.61 1695.21C1023.32 1657.02 1034.03 1606.63 1036.83 1548.87C1039.72 1491.06 1034.42 1426.19 1021.83 1363.03C1009.32 1299.77 990.096 1240.43 967.776 1186.79C945.492 1133.25 919.511 1083.65 886.289 1029.18C857.492 982.151 830 934.352 799.941 891.374C769.784 848.397 736.251 812.425 706.707 780.974C677.128 749.504 651.565 722.093 631.413 696.2C611.217 670.36 596.307 645.959 583.566 624.053C570.86 602.182 555.159 586.465 532.937 579.033C510.768 571.556 483.695 571.272 452.143 577.213C420.573 583.091 384.419 595.292 343.777 612.794C303.145 630.713 253.902 651.873 217.17 676.958C185.858 698.42 167.261 731.585 148.185 767.423C128.992 802.915 109.222 840.236 88.1108 881.092C66.9992 922.16 48.731 972.534 40.7608 1023.02C32.7729 1073.89 28.9789 1123.89 20.2979 1170.04C11.7147 1216.29 -3.08824 1258.33 -18.4599 1300.98C-33.2273 1343.51 -49.4341 1390.4 -31.9656 1437.49C-14.4704 1484.53 30.7471 1527.92 73.9832 1563.5C117.193 1599.66 157.265 1629.32 175.24 1663.64C193.34 1697.87 186.996 1738.8 174.334 1779.61C161.957 1820.15 141.814 1861.45 123.688 1899.18C105.633 1936.89 89.6124 1971.01 82.9218 1996.55C76.1778 2022.05 78.7723 2038.95 96.1076 2041.51Z" stroke="#BCAB96" stroke-width="0.3266"/>
<path fill-rule="evenodd" clip-rule="evenodd" d="M76.8805 2047.02C152.34 2062.6 267.012 2043.4 354.162 2007.29C441.526 1972.08 514.453 1926.64 574.756 1890.83C635.273 1855.05 685.271 1827.17 727.718 1816.05C770.085 1804.84 806.713 1804.88 840.356 1803.04C873.866 1801.06 904.195 1796.91 930.855 1781.87C957.454 1766.94 980.294 1741.07 997.395 1702.76C1014.49 1664.53 1025.68 1614 1028.95 1555.83C1032.3 1497.6 1027.4 1432.11 1014.92 1368.11C1002.52 1303.94 982.968 1243.49 960.518 1189.79C938.096 1136.16 912.19 1087.06 878.938 1033.36C850.217 987.114 822.144 940.051 792.108 897.574C762.001 855.062 728.393 819.601 698.632 788.77C668.845 757.859 642.913 731.117 622.267 705.91C601.577 680.791 586.021 657.144 572.598 636.043C559.21 614.978 544.338 599.101 522.431 591.908C500.577 584.697 473.827 584.75 442.636 591.039C411.436 597.301 375.706 609.878 335.64 627.573C295.591 645.747 247.894 666.413 212.572 690.645C182.456 711.436 164.084 743.295 144.646 777.887C125.111 812.186 104.447 848.286 82.4507 888.483C60.4188 928.831 43.8416 979.211 35.9261 1028.79C27.9217 1078.65 23.1512 1127.59 12.7482 1172.55C2.46963 1217.64 -14.8893 1258.41 -32.2483 1300.45C-49.0387 1342.34 -65.4383 1389.56 -45.9561 1437.06C-26.4739 1484.54 20.8325 1528.21 64.914 1564.03C109.005 1600.44 148.937 1630.4 165.55 1665.44C182.296 1700.38 174.194 1741.9 160.566 1782.93C147.24 1823.73 126.488 1865.09 107.894 1902.96C89.3712 1940.75 73.0249 1974.96 65.8113 2000.78C58.5976 2026.55 60.4987 2043.8 76.8805 2047.02Z" stroke="#BCAB96" stroke-width="0.3299"/>
<path fill-rule="evenodd" clip-rule="evenodd" d="M58.4213 2057.7C130.33 2076.08 243.766 2062.05 332.788 2027.78C421.953 1994.33 497.307 1948.84 559.403 1912.29C621.756 1875.77 673.158 1845.75 716.266 1832.99C759.303 1820.14 796.132 1819.14 829.924 1816.64C863.574 1814.02 893.965 1809.54 920.794 1794.35C947.552 1779.26 970.651 1753.45 988.12 1714.97C1005.58 1676.65 1017.27 1625.82 1021.02 1567.16C1024.83 1508.48 1020.39 1442.23 1008.05 1377.25C995.811 1312.1 975.971 1250.39 953.414 1196.43C930.892 1142.55 905.11 1093.9 871.922 1040.85C843.352 995.323 814.8 948.964 784.783 906.788C754.712 864.577 721.027 829.516 691.045 799.164C661.045 768.713 634.74 742.5 613.612 717.921C592.431 693.378 576.259 670.442 562.182 650.074C548.142 629.706 533.879 613.743 512.289 606.77C490.762 599.762 464.35 600.144 433.542 606.788C402.726 613.379 367.433 626.375 327.975 644.265C288.526 662.563 242.532 682.701 208.482 706.134C179.433 726.209 161.156 756.917 141.298 790.387C121.334 823.574 99.7265 858.643 76.8137 898.323C53.8032 938.038 39.3806 988.492 31.3789 1037.32C23.2351 1086.33 17.3293 1134.21 5.06476 1178.08C-7.03993 1222.06 -27.0575 1261.62 -46.4179 1303.19C-65.2455 1344.54 -81.3289 1392.34 -59.7038 1440.45C-38.141 1488.5 11.237 1532.63 56.13 1568.79C101.05 1605.54 140.721 1635.96 155.845 1671.82C171.085 1707.58 161.369 1749.69 146.866 1791.05C132.648 1832.18 111.396 1873.77 92.4263 1911.77C73.5277 1949.7 56.947 1984.12 49.3095 2010.17C41.6719 2036.21 42.9241 2053.89 58.4213 2057.7Z" stroke="#BCAB96" stroke-width="0.3331"/>
</g>
</g>
<defs>
<clipPath id="clip0_1135_6573">
<rect width="1440" height="614" fill="white"/>
</clipPath>
</defs>
</svg>
