<svg width="80" height="80" viewBox="0 0 80 80" fill="none" xmlns="http://www.w3.org/2000/svg">
<rect width="80" height="80" fill="#153439"/>
<path fill-rule="evenodd" clip-rule="evenodd" d="M66.0058 49.0014L62.361 53L59.4971 50.4688C57.0672 52.0095 54.3646 52.7799 51.3891 52.7799C47.3971 52.7799 44.0374 51.4959 41.3099 48.928C40.9744 48.6121 40.6596 48.2874 40.3654 47.9537V52.2301H31.6623V43.0222H23.7031V52.2301H15V26.5508H23.7031V35.6119H31.6623V26.5508H40.3654V30.9038C40.6704 30.5561 40.9977 30.2177 41.3471 29.8886C44.0994 27.2962 47.4715 26 51.4635 26C55.4556 26 58.8153 27.284 61.5427 29.8519C64.2702 32.4198 65.6339 35.5747 65.6339 39.3166V39.3899C65.6339 42.0802 64.8653 44.538 63.328 46.7636L66.0058 49.0014ZM51.4673 45.4429C52.0624 45.4429 52.6575 45.3451 53.2526 45.1495L50.3143 42.6549L53.9592 38.6196L56.7487 41.1141C56.8726 40.5516 56.9346 40.038 56.9346 39.5734V39.5C56.9346 37.9103 56.4201 36.5285 55.3911 35.3546C54.3621 34.1807 53.0294 33.5938 51.3929 33.5938C49.806 33.5938 48.5105 34.1807 47.5063 35.3546C46.5021 36.5285 46 37.8981 46 39.4633V39.5367C46 41.1264 46.5021 42.5081 47.5063 43.6821C48.5105 44.856 49.8308 45.4429 51.4673 45.4429Z" fill="#84D7DC"/>
</svg>
